SplineFontDB: 3.0
FontName: Kavoon-Regular
FullName: Kavoon Regular
FamilyName: Kavoon
Weight: Book
Copyright: Copyright (c) 2011-2013, Sorkin Type Co (www.sorkintype.com)\nwith Reserved Font Name 'Kavoon'
Version: 1.002
ItalicAngle: 0
UnderlinePosition: 85
UnderlineWidth: 282
Ascent: 1638
Descent: 410
LayerCount: 2
Layer: 0 1 "Back"  1
Layer: 1 1 "Fore"  0
XUID: [1021 631 1661839179 3233636]
FSType: 0
OS2Version: 3
OS2_WeightWidthSlopeOnly: 0
OS2_UseTypoMetrics: 1
CreationTime: 1357819260
ModificationTime: 1357801368
PfmFamily: 17
TTFWeight: 400
TTFWidth: 5
LineGap: 0
VLineGap: 0
Panose: 2 0 0 0 0 0 0 0 0 0
OS2TypoAscent: 382
OS2TypoAOffset: 1
OS2TypoDescent: -130
OS2TypoDOffset: 1
OS2TypoLinegap: 0
OS2WinAscent: 0
OS2WinAOffset: 1
OS2WinDescent: 0
OS2WinDOffset: 1
HheadAscent: 0
HheadAOffset: 1
HheadDescent: 0
HheadDOffset: 1
OS2SubXSize: 1434
OS2SubYSize: 1331
OS2SubXOff: 0
OS2SubYOff: 287
OS2SupXSize: 1434
OS2SupYSize: 1331
OS2SupXOff: 0
OS2SupYOff: 977
OS2StrikeYSize: 345
OS2StrikeYPos: 581
OS2Vendor: 'STC '
OS2CodePages: 00000011.00000000
OS2UnicodeRanges: 800000af.5000004a.00000000.00000000
Lookup: 1 0 0 "'aalt' Access All Alternates in Latin lookup 0"  {"'aalt' Access All Alternates in Latin lookup 0 subtable"  } ['aalt' ('DFLT' <'dflt' > 'latn' <'AZE ' 'MOL ' 'ROM ' 'TRK ' 'dflt' > ) ]
Lookup: 1 0 0 "'locl' Localized Forms lookup 1"  {"'locl' Localized Forms lookup 1 subtable"  } ['locl' ('DFLT' <'AZE ' > ) ]
Lookup: 1 0 0 "'locl' Localized Forms lookup 2"  {"'locl' Localized Forms lookup 2 subtable"  } ['locl' ('DFLT' <'TRK ' > ) ]
Lookup: 1 0 0 "'locl' Localized Forms lookup 3"  {"'locl' Localized Forms lookup 3 subtable"  } ['locl' ('DFLT' <'MOL ' 'ROM ' > ) ]

StartChar: .notdef
Encoding: 65536 -1 0
Width: 1872
Flags: W
LayerCount: 2
Fore
SplineSet
228 1416 m 1,0,-1
 1644 1416 l 1,1,-1
 1644 0 l 1,2,-1
 228 0 l 1,3,-1
 228 1416 l 1,0,-1
610 252 m 1,4,-1
 934 605 l 1,5,-1
 1271 252 l 1,6,-1
 1384 365 l 1,7,-1
 1036 708 l 1,8,-1
 1384 1042 l 1,9,-1
 1265 1158 l 1,10,-1
 937 807 l 1,11,-1
 604 1159 l 1,12,-1
 490 1043 l 1,13,-1
 834 705 l 1,14,-1
 491 387 l 1,15,-1
 610 252 l 1,4,-1
EndSplineSet
EndChar

StartChar: i
Encoding: 105 105 4
Width: 716
Flags: W
LayerCount: 2
Fore
SplineSet
354 1252 m 0,0,1
 303 1252 303 1252 258.5 1269.5 c 128,-1,2
 214 1287 214 1287 182 1314 c 128,-1,3
 150 1341 150 1341 131.5 1373.5 c 128,-1,4
 113 1406 113 1406 113 1435 c 0,5,6
 113 1475 113 1475 125.5 1511 c 128,-1,7
 138 1547 138 1547 166 1574 c 128,-1,8
 194 1601 194 1601 240 1617 c 128,-1,9
 286 1633 286 1633 354 1633 c 0,10,11
 421 1633 421 1633 467.5 1617 c 128,-1,12
 514 1601 514 1601 542 1574 c 128,-1,13
 570 1547 570 1547 582.5 1511 c 128,-1,14
 595 1475 595 1475 595 1435 c 0,15,16
 595 1396 595 1396 574.5 1362.5 c 128,-1,17
 554 1329 554 1329 520 1304.5 c 128,-1,18
 486 1280 486 1280 442.5 1266 c 128,-1,19
 399 1252 399 1252 354 1252 c 0,0,1
156 210 m 0,20,21
 156 277 156 277 158 353.5 c 128,-1,22
 160 430 160 430 163.5 511 c 128,-1,23
 167 592 167 592 173.5 676 c 128,-1,24
 180 760 180 760 189 842 c 1,25,-1
 64 863 l 1,26,27
 51 914 51 914 46 953.5 c 128,-1,28
 41 993 41 993 41 1037 c 0,29,30
 41 1044 41 1044 41.5 1050.5 c 128,-1,31
 42 1057 42 1057 42 1065 c 1,32,33
 57 1083 57 1083 85 1104 c 128,-1,34
 113 1125 113 1125 151.5 1143 c 128,-1,35
 190 1161 190 1161 237 1173 c 128,-1,36
 284 1185 284 1185 335 1185 c 0,37,38
 407 1185 407 1185 456 1169 c 128,-1,39
 505 1153 505 1153 535.5 1120.5 c 128,-1,40
 566 1088 566 1088 579.5 1039.5 c 128,-1,41
 593 991 593 991 593 926 c 0,42,43
 593 884 593 884 586.5 827.5 c 128,-1,44
 580 771 580 771 569 709 c 128,-1,45
 558 647 558 647 544.5 584 c 128,-1,46
 531 521 531 521 516 465 c 128,-1,47
 501 409 501 409 487 363.5 c 128,-1,48
 473 318 473 318 462 293 c 1,49,-1
 464 291 l 1,50,-1
 612 345 l 1,51,52
 653 310 653 310 673 269.5 c 128,-1,53
 693 229 693 229 699 175 c 1,54,55
 663 120 663 120 615 77 c 0,56,57
 594 59 594 59 568.5 41.5 c 128,-1,58
 543 24 543 24 512 10.5 c 128,-1,59
 481 -3 481 -3 446 -11.5 c 128,-1,60
 411 -20 411 -20 371 -20 c 0,61,62
 329 -20 329 -20 290 -9.5 c 128,-1,63
 251 1 251 1 221.5 27 c 128,-1,64
 192 53 192 53 174 97.5 c 128,-1,65
 156 142 156 142 156 210 c 0,20,21
EndSplineSet
Substitution2: "'locl' Localized Forms lookup 2 subtable" i.cy
Substitution2: "'locl' Localized Forms lookup 1 subtable" i.cy
Substitution2: "'aalt' Access All Alternates in Latin lookup 0 subtable" i.cy
EndChar

StartChar: a
Encoding: 97 97 5
Width: 1160
Flags: W
LayerCount: 2
Fore
SplineSet
65 320 m 0,0,1
 65 488 65 488 148 573.5 c 128,-1,2
 231 659 231 659 389 659 c 0,3,4
 420 659 420 659 455 655.5 c 128,-1,5
 490 652 490 652 524.5 646.5 c 128,-1,6
 559 641 559 641 591.5 633.5 c 128,-1,7
 624 626 624 626 651 618 c 1,8,-1
 651 649 l 2,9,10
 651 662 651 662 650.5 680 c 128,-1,11
 650 698 650 698 649.5 715 c 128,-1,12
 649 732 649 732 647.5 746.5 c 128,-1,13
 646 761 646 761 645 768 c 1,14,15
 643 772 643 772 634 781 c 128,-1,16
 625 790 625 790 604 799 c 128,-1,17
 583 808 583 808 547 814.5 c 128,-1,18
 511 821 511 821 455 821 c 0,19,20
 421 821 421 821 386 816 c 128,-1,21
 351 811 351 811 317.5 803 c 128,-1,22
 284 795 284 795 252.5 785.5 c 128,-1,23
 221 776 221 776 195 768 c 1,24,25
 178 795 178 795 162 825.5 c 128,-1,26
 146 856 146 856 133.5 888 c 128,-1,27
 121 920 121 920 113 953.5 c 128,-1,28
 105 987 105 987 105 1021 c 0,29,30
 105 1039 105 1039 108 1059 c 1,31,32
 111 1062 111 1062 137.5 1082 c 128,-1,33
 164 1102 164 1102 215.5 1125 c 128,-1,34
 267 1148 267 1148 344.5 1166.5 c 128,-1,35
 422 1185 422 1185 527 1185 c 0,36,37
 587 1185 587 1185 648 1179 c 128,-1,38
 709 1173 709 1173 765 1157 c 128,-1,39
 821 1141 821 1141 869.5 1111.5 c 128,-1,40
 918 1082 918 1082 954 1036 c 128,-1,41
 990 990 990 990 1010.5 924 c 128,-1,42
 1031 858 1031 858 1031 768 c 0,43,44
 1031 721 1031 721 1025 667 c 128,-1,45
 1019 613 1019 613 1010.5 560 c 128,-1,46
 1002 507 1002 507 991.5 458.5 c 128,-1,47
 981 410 981 410 972.5 372.5 c 128,-1,48
 964 335 964 335 958.5 313 c 128,-1,49
 953 291 953 291 953 291 c 1,50,-1
 1098 353 l 1,51,52
 1122 327 1122 327 1146.5 283 c 128,-1,53
 1171 239 1171 239 1178 175 c 1,54,55
 1169 157 1169 157 1141.5 124.5 c 128,-1,56
 1114 92 1114 92 1071.5 59.5 c 128,-1,57
 1029 27 1029 27 975 3.5 c 128,-1,58
 921 -20 921 -20 860 -20 c 0,59,60
 817 -20 817 -20 785.5 -6.5 c 128,-1,61
 754 7 754 7 733 31 c 128,-1,62
 712 55 712 55 702 87 c 128,-1,63
 692 119 692 119 692 156 c 0,64,65
 692 200 692 200 705 245 c 1,66,-1
 675 254 l 1,67,68
 659 165 659 165 623 111.5 c 128,-1,69
 587 58 587 58 541 28.5 c 128,-1,70
 495 -1 495 -1 446 -10.5 c 128,-1,71
 397 -20 397 -20 355 -20 c 0,72,73
 302 -20 302 -20 250.5 2.5 c 128,-1,74
 199 25 199 25 157.5 68 c 128,-1,75
 116 111 116 111 90.5 174.5 c 128,-1,76
 65 238 65 238 65 320 c 0,0,1
435 365 m 0,77,78
 435 351 435 351 438.5 336.5 c 128,-1,79
 442 322 442 322 450 309.5 c 128,-1,80
 458 297 458 297 471 288.5 c 128,-1,81
 484 280 484 280 503 278 c 1,82,83
 522 281 522 281 546.5 295.5 c 128,-1,84
 571 310 571 310 594 330.5 c 128,-1,85
 617 351 617 351 634.5 375 c 128,-1,86
 652 399 652 399 656 422 c 1,87,-1
 650 446 l 1,88,89
 621 450 621 450 592 451.5 c 128,-1,90
 563 453 563 453 537 453 c 0,91,92
 514 453 514 453 496 451.5 c 128,-1,93
 478 450 478 450 467 445 c 1,94,95
 456 432 456 432 445.5 413 c 128,-1,96
 435 394 435 394 435 365 c 0,77,78
EndSplineSet
Substitution2: "Single Substitution lookup 8 subtable" ordfeminine
Substitution2: "'aalt' Access All Alternates in Latin lookup 0 subtable" ordfeminine
EndChar

StartChar: n
Encoding: 110 110 6
Width: 1333
Flags: W
LayerCount: 2
Fore
SplineSet
180 34 m 1,0,1
 175 68 175 68 171 116 c 0,2,3
 168 156 168 156 165.5 214.5 c 128,-1,4
 163 273 163 273 163 348 c 0,5,6
 163 424 163 424 163.5 479 c 128,-1,7
 164 534 164 534 166.5 585.5 c 128,-1,8
 169 637 169 637 174 696 c 128,-1,9
 179 755 179 755 188 840 c 1,10,-1
 72 855 l 1,11,12
 61 889 61 889 54 918 c 128,-1,13
 47 947 47 947 43.5 975.5 c 128,-1,14
 40 1004 40 1004 39 1034.5 c 128,-1,15
 38 1065 38 1065 38 1103 c 1,16,17
 47 1111 47 1111 70.5 1125 c 128,-1,18
 94 1139 94 1139 127.5 1152.5 c 128,-1,19
 161 1166 161 1166 201.5 1175.5 c 128,-1,20
 242 1185 242 1185 286 1185 c 0,21,22
 349 1185 349 1185 391.5 1171 c 128,-1,23
 434 1157 434 1157 460 1130 c 128,-1,24
 486 1103 486 1103 497 1064.5 c 128,-1,25
 508 1026 508 1026 508 977 c 0,26,27
 508 942 508 942 503.5 903 c 128,-1,28
 499 864 499 864 491 820 c 0,29,30
 481 764 481 764 475.5 731.5 c 128,-1,31
 470 699 470 699 467 681.5 c 128,-1,32
 464 664 464 664 463.5 658.5 c 128,-1,33
 463 653 463 653 463 653 c 2,34,35
 463 648 463 648 470 643.5 c 128,-1,36
 477 639 477 639 485 639 c 0,37,38
 494 639 494 639 497 646 c 1,39,40
 510 700 510 700 526.5 760.5 c 128,-1,41
 543 821 543 821 565.5 881 c 128,-1,42
 588 941 588 941 618 996 c 128,-1,43
 648 1051 648 1051 689 1093 c 128,-1,44
 730 1135 730 1135 784 1160 c 128,-1,45
 838 1185 838 1185 908 1185 c 0,46,47
 995 1185 995 1185 1052.5 1155.5 c 128,-1,48
 1110 1126 1110 1126 1144.5 1078 c 128,-1,49
 1179 1030 1179 1030 1193.5 968.5 c 128,-1,50
 1208 907 1208 907 1208 842 c 0,51,52
 1208 756 1208 756 1193.5 673 c 128,-1,53
 1179 590 1179 590 1159 517.5 c 128,-1,54
 1139 445 1139 445 1118.5 387 c 128,-1,55
 1098 329 1098 329 1086 293 c 1,56,-1
 1088 291 l 1,57,-1
 1234 351 l 1,58,59
 1275 316 1275 316 1297 271.5 c 128,-1,60
 1319 227 1319 227 1325 173 c 1,61,62
 1289 118 1289 118 1240 76 c 0,63,64
 1219 58 1219 58 1193 40.5 c 128,-1,65
 1167 23 1167 23 1136 9.5 c 128,-1,66
 1105 -4 1105 -4 1070 -12 c 128,-1,67
 1035 -20 1035 -20 995 -20 c 0,68,69
 953 -20 953 -20 914.5 -10 c 128,-1,70
 876 0 876 0 846 25.5 c 128,-1,71
 816 51 816 51 798 94.5 c 128,-1,72
 780 138 780 138 780 205 c 0,73,74
 780 257 780 257 782.5 328.5 c 128,-1,75
 785 400 785 400 788.5 474.5 c 128,-1,76
 792 549 792 549 796 617.5 c 128,-1,77
 800 686 800 686 804 731 c 1,78,79
 788 748 788 748 772 754 c 128,-1,80
 756 760 756 760 740 761 c 1,81,82
 727 744 727 744 709 714 c 128,-1,83
 691 684 691 684 671.5 647.5 c 128,-1,84
 652 611 652 611 632 571.5 c 128,-1,85
 612 532 612 532 594 495 c 128,-1,86
 576 458 576 458 562 427.5 c 128,-1,87
 548 397 548 397 541 379 c 0,88,89
 540 374 540 374 539.5 367 c 128,-1,90
 539 360 539 360 539 352 c 0,91,92
 539 327 539 327 543 292 c 128,-1,93
 547 257 547 257 554 217.5 c 128,-1,94
 561 178 561 178 570.5 137 c 128,-1,95
 580 96 580 96 591 60 c 1,96,97
 574 28 574 28 519.5 4 c 128,-1,98
 465 -20 465 -20 379 -20 c 0,99,100
 316 -20 316 -20 277.5 -12 c 128,-1,101
 239 -4 239 -4 217 7 c 1,102,103
 191 18 191 18 180 34 c 1,0,1
EndSplineSet
EndChar

StartChar: e
Encoding: 101 101 7
Width: 1139
Flags: W
LayerCount: 2
Fore
SplineSet
583 -20 m 0,0,1
 456 -20 456 -20 359.5 27 c 128,-1,2
 263 74 263 74 198 156 c 128,-1,3
 133 238 133 238 100 347 c 128,-1,4
 67 456 67 456 67 581 c 256,5,6
 67 706 67 706 98.5 816 c 128,-1,7
 130 926 130 926 196 1008 c 128,-1,8
 262 1090 262 1090 364 1137.5 c 128,-1,9
 466 1185 466 1185 608 1185 c 0,10,11
 648 1185 648 1185 694.5 1180.5 c 128,-1,12
 741 1176 741 1176 787.5 1165 c 128,-1,13
 834 1154 834 1154 878.5 1135 c 128,-1,14
 923 1116 923 1116 959 1088 c 0,15,16
 991 1062 991 1062 1013.5 1027.5 c 128,-1,17
 1036 993 1036 993 1049.5 953.5 c 128,-1,18
 1063 914 1063 914 1069 869.5 c 128,-1,19
 1075 825 1075 825 1075 780 c 0,20,21
 1075 746 1075 746 1072 712.5 c 128,-1,22
 1069 679 1069 679 1064 647 c 1,23,24
 1056 633 1056 633 1034 611 c 128,-1,25
 1012 589 1012 589 981.5 565 c 128,-1,26
 951 541 951 541 915.5 518.5 c 128,-1,27
 880 496 880 496 844 483 c 1,28,29
 802 480 802 480 757 480 c 0,30,31
 669 480 669 480 587.5 487.5 c 128,-1,32
 506 495 506 495 455 503 c 1,33,34
 458 469 458 469 468.5 432 c 128,-1,35
 479 395 479 395 500.5 364 c 128,-1,36
 522 333 522 333 557.5 312.5 c 128,-1,37
 593 292 593 292 647 292 c 0,38,39
 654 292 654 292 661 292.5 c 128,-1,40
 668 293 668 293 676 294 c 0,41,42
 709 297 709 297 748 307 c 128,-1,43
 787 317 787 317 827.5 330 c 128,-1,44
 868 343 868 343 907.5 358 c 128,-1,45
 947 373 947 373 981 388 c 1,46,47
 999 370 999 370 1012.5 353 c 128,-1,48
 1026 336 1026 336 1035.5 315 c 128,-1,49
 1045 294 1045 294 1051.5 267 c 128,-1,50
 1058 240 1058 240 1062 203 c 1,51,52
 1051 190 1051 190 1028 169 c 128,-1,53
 1005 148 1005 148 972 123 c 128,-1,54
 939 98 939 98 896.5 72.5 c 128,-1,55
 854 47 854 47 804.5 26.5 c 128,-1,56
 755 6 755 6 699 -7 c 128,-1,57
 643 -20 643 -20 583 -20 c 0,0,1
725 701 m 1,58,-1
 711 811 l 1,59,60
 703 819 703 819 689.5 825.5 c 128,-1,61
 676 832 676 832 659.5 836 c 128,-1,62
 643 840 643 840 625 841.5 c 128,-1,63
 607 843 607 843 589 843 c 0,64,65
 560 842 560 842 533.5 837.5 c 128,-1,66
 507 833 507 833 501 827 c 1,67,68
 484 795 484 795 473.5 757.5 c 128,-1,69
 463 720 463 720 458 675 c 1,70,-1
 725 701 l 1,58,-1
EndSplineSet
EndChar

StartChar: s
Encoding: 115 115 8
Width: 967
Flags: W
LayerCount: 2
Fore
SplineSet
85 142 m 1,0,1
 85 170 85 170 88 194.5 c 128,-1,2
 91 219 91 219 99.5 243.5 c 128,-1,3
 108 268 108 268 123 294.5 c 128,-1,4
 138 321 138 321 163 353 c 1,5,6
 208 335 208 335 255 317 c 128,-1,7
 302 299 302 299 350 284.5 c 128,-1,8
 398 270 398 270 447 261 c 128,-1,9
 496 252 496 252 547 252 c 0,10,11
 575 252 575 252 587 257 c 1,12,13
 590 261 590 261 592.5 269.5 c 128,-1,14
 595 278 595 278 595 287 c 0,15,16
 595 295 595 295 590.5 303.5 c 128,-1,17
 586 312 586 312 572 320 c 0,18,19
 517 350 517 350 458.5 376.5 c 128,-1,20
 400 403 400 403 344 431.5 c 128,-1,21
 288 460 288 460 238.5 494 c 128,-1,22
 189 528 189 528 151.5 572.5 c 128,-1,23
 114 617 114 617 92 675 c 128,-1,24
 70 733 70 733 70 811 c 256,25,26
 70 889 70 889 92.5 957 c 128,-1,27
 115 1025 115 1025 165 1076 c 128,-1,28
 215 1127 215 1127 295 1156 c 128,-1,29
 375 1185 375 1185 491 1185 c 0,30,31
 514 1185 514 1185 560 1184 c 128,-1,32
 606 1183 606 1183 663 1176.5 c 128,-1,33
 720 1170 720 1170 781.5 1156 c 128,-1,34
 843 1142 843 1142 897 1117 c 1,35,36
 901 1101 901 1101 902.5 1082.5 c 128,-1,37
 904 1064 904 1064 904 1044 c 0,38,39
 904 1004 904 1004 897.5 960.5 c 128,-1,40
 891 917 891 917 879 875.5 c 128,-1,41
 867 834 867 834 849.5 799.5 c 128,-1,42
 832 765 832 765 810 743 c 1,43,44
 763 758 763 758 714 777.5 c 128,-1,45
 665 797 665 797 617.5 816 c 128,-1,46
 570 835 570 835 526.5 851 c 128,-1,47
 483 867 483 867 447 874 c 1,48,49
 427 869 427 869 415 850.5 c 128,-1,50
 403 832 403 832 403 807 c 0,51,52
 403 789 403 789 411.5 776.5 c 128,-1,53
 420 764 420 764 433.5 754.5 c 128,-1,54
 447 745 447 745 462.5 737.5 c 128,-1,55
 478 730 478 730 493 724 c 0,56,57
 554 698 554 698 625.5 668.5 c 128,-1,58
 697 639 697 639 759 597 c 0,59,60
 831 547 831 547 877.5 480 c 128,-1,61
 924 413 924 413 924 327 c 0,62,63
 924 268 924 268 906 218.5 c 128,-1,64
 888 169 888 169 857.5 129.5 c 128,-1,65
 827 90 827 90 785.5 61 c 128,-1,66
 744 32 744 32 698 15 c 0,67,68
 644 -5 644 -5 583 -13 c 128,-1,69
 522 -21 522 -21 441 -21 c 0,70,71
 404 -21 404 -21 355 -14 c 128,-1,72
 306 -7 306 -7 256 11 c 128,-1,73
 206 29 206 29 160.5 60.5 c 128,-1,74
 115 92 115 92 85 142 c 1,0,1
EndSplineSet
EndChar

StartChar: H
Encoding: 72 72 9
Width: 1448
Flags: W
LayerCount: 2
Fore
SplineSet
176 1 m 1,0,1
 158 114 158 114 148.5 272.5 c 128,-1,2
 139 431 139 431 139 621 c 0,3,4
 139 765 139 765 145 923 c 0,5,6
 147 999 147 999 151 1072 c 128,-1,7
 155 1145 155 1145 161 1214 c 1,8,-1
 159 1214 l 1,9,-1
 46 1235 l 1,10,11
 35 1282 35 1282 30.5 1317 c 128,-1,12
 26 1352 26 1352 26 1390 c 0,13,14
 26 1400 26 1400 26 1409.5 c 128,-1,15
 26 1419 26 1419 27 1430 c 1,16,17
 42 1448 42 1448 70 1469 c 128,-1,18
 98 1490 98 1490 135.5 1508 c 128,-1,19
 173 1526 173 1526 218 1538 c 128,-1,20
 263 1550 263 1550 313 1550 c 0,21,22
 440 1550 440 1550 502 1486 c 128,-1,23
 564 1422 564 1422 558 1291 c 0,24,25
 556 1250 556 1250 555 1200.5 c 128,-1,26
 554 1151 554 1151 552 1094 c 128,-1,27
 550 1037 550 1037 546.5 975 c 128,-1,28
 543 913 543 913 537 848 c 1,29,-1
 877 848 l 1,30,31
 879 936 879 936 883 1027.5 c 128,-1,32
 887 1119 887 1119 895 1215 c 1,33,-1
 893 1215 l 1,34,-1
 750 1236 l 1,35,36
 739 1283 739 1283 734.5 1318 c 128,-1,37
 730 1353 730 1353 730 1391 c 0,38,39
 730 1401 730 1401 730 1410.5 c 128,-1,40
 730 1420 730 1420 731 1431 c 1,41,42
 746 1449 746 1449 779 1470 c 128,-1,43
 812 1491 812 1491 855.5 1509 c 128,-1,44
 899 1527 899 1527 950 1539 c 128,-1,45
 1001 1551 1001 1551 1052 1551 c 0,46,47
 1179 1551 1179 1551 1246.5 1487 c 128,-1,48
 1314 1423 1314 1423 1314 1292 c 0,49,50
 1314 1181 1314 1181 1304.5 1057 c 128,-1,51
 1295 933 1295 933 1279.5 804 c 128,-1,52
 1264 675 1264 675 1244 544 c 128,-1,53
 1224 413 1224 413 1203 289 c 1,54,-1
 1351 353 l 1,55,56
 1391 318 1391 318 1412 273.5 c 128,-1,57
 1433 229 1433 229 1438 175 c 1,58,59
 1400 120 1400 120 1349 77 c 0,60,61
 1327 59 1327 59 1300.5 41.5 c 128,-1,62
 1274 24 1274 24 1243 10.5 c 128,-1,63
 1212 -3 1212 -3 1176.5 -11.5 c 128,-1,64
 1141 -20 1141 -20 1101 -20 c 0,65,66
 1058 -20 1058 -20 1016.5 -9.5 c 128,-1,67
 975 1 975 1 942 28 c 128,-1,68
 909 55 909 55 889 102 c 128,-1,69
 869 149 869 149 870 223 c 1,70,-1
 870 288 l 2,71,72
 870 342 870 342 871 411.5 c 128,-1,73
 872 481 872 481 877 564 c 1,74,75
 860 562 860 562 842 562 c 128,-1,76
 824 562 824 562 807 562 c 0,77,78
 732 562 732 562 659 569.5 c 128,-1,79
 586 577 586 577 513 582 c 1,80,81
 516 503 516 503 524 425.5 c 128,-1,82
 532 348 532 348 541.5 277.5 c 128,-1,83
 551 207 551 207 560.5 145.5 c 128,-1,84
 570 84 570 84 576 38 c 1,85,86
 555 25 555 25 521.5 15 c 128,-1,87
 488 5 488 5 450.5 -2 c 128,-1,88
 413 -9 413 -9 375.5 -13.5 c 128,-1,89
 338 -18 338 -18 310 -19 c 0,90,91
 270 -21 270 -21 239 -15 c 128,-1,92
 208 -9 208 -9 176 1 c 1,0,1
EndSplineSet
EndChar

StartChar: A
Encoding: 65 65 10
Width: 1405
Flags: W
LayerCount: 2
Fore
SplineSet
-21 92 m 1,0,1
 -21 126 -21 126 -15.5 161 c 128,-1,2
 -10 196 -10 196 0.5 226.5 c 128,-1,3
 11 257 11 257 26 282 c 128,-1,4
 41 307 41 307 61 321 c 1,5,6
 90 311 90 311 113.5 304 c 128,-1,7
 137 297 137 297 172 289 c 1,8,9
 192 369 192 369 217.5 474 c 128,-1,10
 243 579 243 579 272 699 c 128,-1,11
 301 819 301 819 332 949.5 c 128,-1,12
 363 1080 363 1080 393 1210 c 1,13,-1
 152 1236 l 1,14,15
 140 1269 140 1269 134.5 1305.5 c 128,-1,16
 129 1342 129 1342 129 1379 c 0,17,18
 129 1440 129 1440 143 1498 c 1,19,20
 225 1514 225 1514 319 1524 c 128,-1,21
 413 1534 413 1534 504 1540 c 128,-1,22
 595 1546 595 1546 673.5 1548.5 c 128,-1,23
 752 1551 752 1551 803 1551 c 0,24,25
 840 1551 840 1551 876.5 1551 c 128,-1,26
 913 1551 913 1551 950 1550 c 1,27,-1
 1013 1514 l 1,28,29
 1063 1376 1063 1376 1110.5 1219.5 c 128,-1,30
 1158 1063 1158 1063 1201 900.5 c 128,-1,31
 1244 738 1244 738 1282.5 576.5 c 128,-1,32
 1321 415 1321 415 1354 267 c 0,33,34
 1360 240 1360 240 1366.5 210 c 128,-1,35
 1373 180 1373 180 1373 149 c 0,36,37
 1373 113 1373 113 1360.5 78 c 128,-1,38
 1348 43 1348 43 1313 13 c 1,39,40
 1278 -1 1278 -1 1230 -10.5 c 128,-1,41
 1182 -20 1182 -20 1110 -20 c 0,42,43
 1087 -20 1087 -20 1059 -17.5 c 128,-1,44
 1031 -15 1031 -15 1003.5 -9.5 c 128,-1,45
 976 -4 976 -4 953.5 5.5 c 128,-1,46
 931 15 931 15 920 29 c 1,47,-1
 932 287 l 1,48,-1
 907 421 l 1,49,50
 870 419 870 419 831.5 418 c 128,-1,51
 793 417 793 417 754 417 c 0,52,53
 660 417 660 417 578 423 c 1,54,55
 550 297 550 297 529.5 212 c 128,-1,56
 509 127 509 127 481 75 c 128,-1,57
 453 23 453 23 409 1 c 128,-1,58
 365 -21 365 -21 289 -21 c 0,59,60
 242 -21 242 -21 195 -12 c 128,-1,61
 148 -3 148 -3 106.5 13 c 128,-1,62
 65 29 65 29 31.5 49 c 128,-1,63
 -2 69 -2 69 -21 92 c 1,0,1
868 708 m 1,64,-1
 762 1201 l 1,65,-1
 716 1201 l 1,66,-1
 644 708 l 1,67,-1
 868 708 l 1,64,-1
EndSplineSet
EndChar

StartChar: O
Encoding: 79 79 11
Width: 1387
Flags: W
LayerCount: 2
Fore
SplineSet
691 -20 m 0,0,1
 510 -20 510 -20 390 40 c 128,-1,2
 270 100 270 100 198 205 c 128,-1,3
 126 310 126 310 96.5 451.5 c 128,-1,4
 67 593 67 593 67 756 c 0,5,6
 67 865 67 865 80 966.5 c 128,-1,7
 93 1068 93 1068 122 1156.5 c 128,-1,8
 151 1245 151 1245 198.5 1317.5 c 128,-1,9
 246 1390 246 1390 315 1441.5 c 128,-1,10
 384 1493 384 1493 477 1521.5 c 128,-1,11
 570 1550 570 1550 691 1550 c 0,12,13
 821 1550 821 1550 918 1521.5 c 128,-1,14
 1015 1493 1015 1493 1085 1441.5 c 128,-1,15
 1155 1390 1155 1390 1200.5 1317.5 c 128,-1,16
 1246 1245 1246 1245 1272.5 1156.5 c 128,-1,17
 1299 1068 1299 1068 1309.5 966.5 c 128,-1,18
 1320 865 1320 865 1320 756 c 0,19,20
 1320 648 1320 648 1306.5 548.5 c 128,-1,21
 1293 449 1293 449 1263 363 c 128,-1,22
 1233 277 1233 277 1185 206.5 c 128,-1,23
 1137 136 1137 136 1067 85.5 c 128,-1,24
 997 35 997 35 904 7.5 c 128,-1,25
 811 -20 811 -20 691 -20 c 0,0,1
548 330 m 1,26,27
 555 322 555 322 575.5 316 c 128,-1,28
 596 310 596 310 623.5 306 c 128,-1,29
 651 302 651 302 681.5 300.5 c 128,-1,30
 712 299 712 299 741 299 c 0,31,32
 776 299 776 299 802.5 301 c 128,-1,33
 829 303 829 303 835 308 c 1,34,35
 848 331 848 331 857.5 372 c 128,-1,36
 867 413 867 413 873.5 466 c 128,-1,37
 880 519 880 519 883 581 c 128,-1,38
 886 643 886 643 886 707 c 0,39,40
 886 775 886 775 882.5 842.5 c 128,-1,41
 879 910 879 910 872.5 968.5 c 128,-1,42
 866 1027 866 1027 856.5 1072.5 c 128,-1,43
 847 1118 847 1118 835 1144 c 1,44,45
 822 1154 822 1154 802 1162 c 128,-1,46
 782 1170 782 1170 758 1175 c 128,-1,47
 734 1180 734 1180 707 1182.5 c 128,-1,48
 680 1185 680 1185 653 1185 c 0,49,50
 619 1185 619 1185 591.5 1181.5 c 128,-1,51
 564 1178 564 1178 552 1171 c 1,52,53
 537 1145 537 1145 526 1106.5 c 128,-1,54
 515 1068 515 1068 508.5 1021 c 128,-1,55
 502 974 502 974 499 920.5 c 128,-1,56
 496 867 496 867 496 811 c 0,57,58
 496 741 496 741 500 670 c 128,-1,59
 504 599 504 599 511.5 535 c 128,-1,60
 519 471 519 471 528 418 c 128,-1,61
 537 365 537 365 548 330 c 1,26,27
EndSplineSet
EndChar

StartChar: I
Encoding: 73 73 12
Width: 722
Flags: W
LayerCount: 2
Fore
SplineSet
196 49 m 2,0,1
 196 104 196 104 194 190 c 128,-1,2
 192 276 192 276 190 380.5 c 128,-1,3
 188 485 188 485 186 603 c 128,-1,4
 184 721 184 721 184 840 c 0,5,6
 184 938 184 938 185.5 1032.5 c 128,-1,7
 187 1127 187 1127 192 1214 c 1,8,-1
 29 1235 l 1,9,10
 22 1264 22 1264 17 1288 c 128,-1,11
 12 1312 12 1312 9 1334.5 c 128,-1,12
 6 1357 6 1357 5 1380 c 128,-1,13
 4 1403 4 1403 5 1430 c 1,14,15
 20 1448 20 1448 54.5 1469 c 128,-1,16
 89 1490 89 1490 135 1508 c 128,-1,17
 181 1526 181 1526 234 1538 c 128,-1,18
 287 1550 287 1550 338 1550 c 0,19,20
 393 1550 393 1550 441 1537.5 c 128,-1,21
 489 1525 489 1525 524.5 1499.5 c 128,-1,22
 560 1474 560 1474 581.5 1436.5 c 128,-1,23
 603 1399 603 1399 605 1348 c 0,24,25
 606 1326 606 1326 606.5 1301 c 128,-1,26
 607 1276 607 1276 607 1249 c 0,27,28
 607 1164 607 1164 603 1057.5 c 128,-1,29
 599 951 599 951 593 836 c 128,-1,30
 587 721 587 721 579.5 603.5 c 128,-1,31
 572 486 572 486 564 378 c 128,-1,32
 556 270 556 270 549 178.5 c 128,-1,33
 542 87 542 87 538 23 c 1,34,35
 497 0 497 0 451 -10.5 c 128,-1,36
 405 -21 405 -21 358 -21 c 0,37,38
 272 -21 272 -21 196 10 c 1,39,-1
 196 49 l 2,0,1
EndSplineSet
EndChar

StartChar: E
Encoding: 69 69 13
Width: 1202
Flags: W
LayerCount: 2
Fore
SplineSet
187 -20 m 1,0,1
 155 -15 155 -15 126.5 7.5 c 128,-1,2
 98 30 98 30 76.5 65.5 c 128,-1,3
 55 101 55 101 42.5 147 c 128,-1,4
 30 193 30 193 30 245 c 0,5,6
 30 287 30 287 38.5 330 c 128,-1,7
 47 373 47 373 67 418 c 1,8,9
 84 418 84 418 119.5 412 c 128,-1,10
 155 406 155 406 197 395 c 1,11,12
 195 497 195 497 193 610 c 128,-1,13
 191 723 191 723 191 838 c 0,14,15
 191 934 191 934 192.5 1026.5 c 128,-1,16
 194 1119 194 1119 199 1205 c 1,17,-1
 45 1226 l 1,18,19
 31 1264 31 1264 24.5 1308.5 c 128,-1,20
 18 1353 18 1353 18 1394 c 0,21,22
 18 1411 18 1411 19.5 1429 c 128,-1,23
 21 1447 21 1447 23 1464 c 1,24,25
 88 1489 88 1489 174.5 1505.5 c 128,-1,26
 261 1522 261 1522 356.5 1532 c 128,-1,27
 452 1542 452 1542 548.5 1546 c 128,-1,28
 645 1550 645 1550 729 1550 c 0,29,30
 758 1550 758 1550 793.5 1549.5 c 128,-1,31
 829 1549 829 1549 865.5 1547 c 128,-1,32
 902 1545 902 1545 937 1542 c 128,-1,33
 972 1539 972 1539 1000 1533 c 1,34,35
 1048 1504 1048 1504 1090 1471 c 128,-1,36
 1132 1438 1132 1438 1172 1384 c 1,37,38
 1172 1331 1172 1331 1164 1271 c 128,-1,39
 1156 1211 1156 1211 1142.5 1155.5 c 128,-1,40
 1129 1100 1129 1100 1110.5 1054.5 c 128,-1,41
 1092 1009 1092 1009 1071 985 c 1,42,43
 1048 974 1048 974 1020.5 968.5 c 128,-1,44
 993 963 993 963 951 963 c 0,45,46
 914 963 914 963 888.5 969.5 c 128,-1,47
 863 976 863 976 841 989 c 1,48,-1
 807 1207 l 1,49,50
 778 1212 778 1212 740.5 1214.5 c 128,-1,51
 703 1217 703 1217 657 1217 c 0,52,53
 633 1217 633 1217 609 1214 c 1,54,55
 607 1127 607 1127 595.5 1026 c 128,-1,56
 584 925 584 925 568 819 c 1,57,58
 671 836 671 836 763 849.5 c 128,-1,59
 855 863 855 863 947 873 c 1,60,61
 969 840 969 840 978 801.5 c 128,-1,62
 987 763 987 763 987 724 c 0,63,64
 987 693 987 693 982.5 663.5 c 128,-1,65
 978 634 978 634 970.5 609 c 128,-1,66
 963 584 963 584 954 565 c 128,-1,67
 945 546 945 546 936 537 c 1,68,69
 913 533 913 533 888 531.5 c 128,-1,70
 863 530 863 530 836 530 c 0,71,72
 762 530 762 530 682 542.5 c 128,-1,73
 602 555 602 555 530 581 c 1,74,75
 521 521 521 521 512 464.5 c 128,-1,76
 503 408 503 408 496 356 c 1,77,-1
 1129 393 l 1,78,79
 1144 379 1144 379 1154.5 337.5 c 128,-1,80
 1165 296 1165 296 1165 245 c 0,81,82
 1165 183 1165 183 1146 134 c 128,-1,83
 1127 85 1127 85 1095 50.5 c 128,-1,84
 1063 16 1063 16 1021.5 -2 c 128,-1,85
 980 -20 980 -20 936 -20 c 0,86,87
 905 -20 905 -20 862 -13 c 128,-1,88
 819 -6 819 -6 771 6.5 c 128,-1,89
 723 19 723 19 672 35.5 c 128,-1,90
 621 52 621 52 575 71 c 128,-1,91
 529 90 529 90 490.5 110 c 128,-1,92
 452 130 452 130 428 150 c 1,93,94
 407 114 407 114 384 84 c 128,-1,95
 361 54 361 54 332.5 32 c 128,-1,96
 304 10 304 10 268.5 -3.5 c 128,-1,97
 233 -17 233 -17 187 -20 c 1,0,1
EndSplineSet
EndChar

StartChar: S
Encoding: 83 83 14
Width: 1110
Flags: W
LayerCount: 2
Fore
SplineSet
60 173 m 1,0,1
 58 184 58 184 57 195.5 c 128,-1,2
 56 207 56 207 56 219 c 0,3,4
 56 267 56 267 74 319.5 c 128,-1,5
 92 372 92 372 134 420 c 1,6,7
 190 395 190 395 248 371.5 c 128,-1,8
 306 348 306 348 365.5 329.5 c 128,-1,9
 425 311 425 311 486.5 299.5 c 128,-1,10
 548 288 548 288 612 288 c 0,11,12
 632 288 632 288 654.5 292 c 128,-1,13
 677 296 677 296 691 303 c 1,14,15
 696 314 696 314 698.5 330 c 128,-1,16
 701 346 701 346 702 356 c 0,17,18
 703 390 703 390 681 416.5 c 128,-1,19
 659 443 659 443 626.5 464 c 128,-1,20
 594 485 594 485 558 501 c 128,-1,21
 522 517 522 517 496 531 c 0,22,23
 411 574 411 574 329.5 621 c 128,-1,24
 248 668 248 668 183.5 730 c 128,-1,25
 119 792 119 792 79.5 876 c 128,-1,26
 40 960 40 960 40 1078 c 0,27,28
 40 1177 40 1177 66.5 1263 c 128,-1,29
 93 1349 93 1349 152 1413 c 128,-1,30
 211 1477 211 1477 306.5 1513.5 c 128,-1,31
 402 1550 402 1550 540 1550 c 0,32,33
 560 1550 560 1550 598.5 1549.5 c 128,-1,34
 637 1549 637 1549 685.5 1547 c 128,-1,35
 734 1545 734 1545 788 1539 c 128,-1,36
 842 1533 842 1533 893 1523 c 1,37,38
 941 1494 941 1494 983 1460.5 c 128,-1,39
 1025 1427 1025 1427 1065 1373 c 1,40,41
 1065 1320 1065 1320 1057 1260 c 128,-1,42
 1049 1200 1049 1200 1035.5 1144.5 c 128,-1,43
 1022 1089 1022 1089 1003.5 1043.5 c 128,-1,44
 985 998 985 998 964 974 c 1,45,46
 941 963 941 963 913.5 957.5 c 128,-1,47
 886 952 886 952 844 952 c 0,48,49
 799 952 799 952 772.5 958.5 c 128,-1,50
 746 965 746 965 724 978 c 1,51,-1
 693 1186 l 1,52,53
 660 1195 660 1195 625.5 1201 c 128,-1,54
 591 1207 591 1207 561.5 1210.5 c 128,-1,55
 532 1214 532 1214 510.5 1215 c 128,-1,56
 489 1216 489 1216 482 1216 c 1,57,58
 442 1197 442 1197 430 1164.5 c 128,-1,59
 418 1132 418 1132 418 1096 c 0,60,61
 418 1053 418 1053 440 1023 c 128,-1,62
 462 993 462 993 495 970.5 c 128,-1,63
 528 948 528 948 566 930.5 c 128,-1,64
 604 913 604 913 636 896 c 0,65,66
 717 853 717 853 792.5 809.5 c 128,-1,67
 868 766 868 766 926 711 c 128,-1,68
 984 656 984 656 1019 585 c 128,-1,69
 1054 514 1054 514 1054 417 c 0,70,71
 1054 343 1054 343 1033.5 281 c 128,-1,72
 1013 219 1013 219 977 170 c 128,-1,73
 941 121 941 121 893 85 c 128,-1,74
 845 49 845 49 790 28 c 0,75,76
 725 2 725 2 649.5 -8.5 c 128,-1,77
 574 -19 574 -19 475 -19 c 0,78,79
 432 -19 432 -19 375 -11 c 128,-1,80
 318 -3 318 -3 260 18.5 c 128,-1,81
 202 40 202 40 149 77.5 c 128,-1,82
 96 115 96 115 60 173 c 1,0,1
EndSplineSet
EndChar

StartChar: N
Encoding: 78 78 15
Width: 1430
Flags: W
LayerCount: 2
Fore
SplineSet
-3 92 m 1,0,1
 -3 126 -3 126 2.5 161 c 128,-1,2
 8 196 8 196 18.5 226.5 c 128,-1,3
 29 257 29 257 44 282 c 128,-1,4
 59 307 59 307 79 321 c 1,5,6
 107 311 107 311 129 303.5 c 128,-1,7
 151 296 151 296 183 290 c 1,8,-1
 183 1232 l 1,9,-1
 26 1285 l 1,10,11
 15 1311 15 1311 9 1343.5 c 128,-1,12
 3 1376 3 1376 3 1409 c 0,13,14
 3 1436 3 1436 7.5 1462 c 128,-1,15
 12 1488 12 1488 21 1511 c 1,16,17
 59 1521 59 1521 104.5 1528.5 c 128,-1,18
 150 1536 150 1536 199 1541 c 128,-1,19
 248 1546 248 1546 297 1548.5 c 128,-1,20
 346 1551 346 1551 391 1551 c 0,21,22
 453 1551 453 1551 517.5 1546 c 128,-1,23
 582 1541 582 1541 640 1530 c 1,24,25
 662 1488 662 1488 696.5 1404 c 128,-1,26
 731 1320 731 1320 779 1189.5 c 128,-1,27
 827 1059 827 1059 889 878.5 c 128,-1,28
 951 698 951 698 1026 462 c 1,29,-1
 1043 464 l 1,30,31
 1034 537 1034 537 1024.5 630 c 128,-1,32
 1015 723 1015 723 1005.5 823.5 c 128,-1,33
 996 924 996 924 987 1025.5 c 128,-1,34
 978 1127 978 1127 971.5 1217.5 c 128,-1,35
 965 1308 965 1308 961 1381.5 c 128,-1,36
 957 1455 957 1455 957 1499 c 1,37,38
 1011 1523 1011 1523 1074 1536.5 c 128,-1,39
 1137 1550 1137 1550 1191 1550 c 0,40,41
 1234 1550 1234 1550 1276 1541.5 c 128,-1,42
 1318 1533 1318 1533 1360 1514 c 1,43,-1
 1263 250 l 1,44,45
 1285 218 1285 218 1302.5 175 c 128,-1,46
 1320 132 1320 132 1328 74 c 1,47,48
 1307 50 1307 50 1273.5 32.5 c 128,-1,49
 1240 15 1240 15 1200 3.5 c 128,-1,50
 1160 -8 1160 -8 1115 -14 c 128,-1,51
 1070 -20 1070 -20 1026 -20 c 0,52,53
 957 -20 957 -20 896.5 -5.5 c 128,-1,54
 836 9 836 9 801 41 c 1,55,56
 802 83 802 83 805.5 116.5 c 128,-1,57
 809 150 809 150 814 178 c 1,58,59
 766 274 766 274 720.5 383.5 c 128,-1,60
 675 493 675 493 630 611.5 c 128,-1,61
 585 730 585 730 540 856 c 128,-1,62
 495 982 495 982 449 1110 c 1,63,-1
 443 1109 l 1,64,65
 449 1062 449 1062 456.5 990.5 c 128,-1,66
 464 919 464 919 472 835 c 128,-1,67
 480 751 480 751 487 661 c 128,-1,68
 494 571 494 571 499.5 486.5 c 128,-1,69
 505 402 505 402 508.5 329 c 128,-1,70
 512 256 512 256 512 206 c 0,71,72
 512 96 512 96 446.5 38 c 128,-1,73
 381 -20 381 -20 238 -20 c 0,74,75
 204 -20 204 -20 166.5 -9.5 c 128,-1,76
 129 1 129 1 95.5 17 c 128,-1,77
 62 33 62 33 35.5 53 c 128,-1,78
 9 73 9 73 -3 92 c 1,0,1
EndSplineSet
EndChar

StartChar: exclam
Encoding: 33 33 16
Width: 681
Flags: W
LayerCount: 2
Fore
SplineSet
97 1530 m 1,0,1
 122 1547 122 1547 160.5 1564 c 128,-1,2
 199 1581 199 1581 245 1594 c 128,-1,3
 291 1607 291 1607 340.5 1615 c 128,-1,4
 390 1623 390 1623 436 1623 c 0,5,6
 471 1623 471 1623 502 1617.5 c 128,-1,7
 533 1612 533 1612 558 1600 c 1,8,9
 558 1510 558 1510 551.5 1392.5 c 128,-1,10
 545 1275 545 1275 534.5 1144 c 128,-1,11
 524 1013 524 1013 511.5 875 c 128,-1,12
 499 737 499 737 486 606 c 1,13,14
 464 569 464 569 420 548 c 128,-1,15
 376 527 376 527 326 527 c 0,16,17
 289 527 289 527 254 539.5 c 128,-1,18
 219 552 219 552 192 579 c 1,19,-1
 97 1530 l 1,0,1
88 199 m 0,20,21
 88 238 88 238 101 274 c 128,-1,22
 114 310 114 310 143.5 338.5 c 128,-1,23
 173 367 173 367 221.5 384 c 128,-1,24
 270 401 270 401 341 401 c 256,25,26
 412 401 412 401 460.5 384 c 128,-1,27
 509 367 509 367 538.5 338.5 c 128,-1,28
 568 310 568 310 581 274 c 128,-1,29
 594 238 594 238 594 199 c 0,30,31
 594 154 594 154 572.5 114.5 c 128,-1,32
 551 75 551 75 515.5 45 c 128,-1,33
 480 15 480 15 434.5 -2.5 c 128,-1,34
 389 -20 389 -20 341 -20 c 256,35,36
 293 -20 293 -20 247.5 -2.5 c 128,-1,37
 202 15 202 15 166.5 45 c 128,-1,38
 131 75 131 75 109.5 114.5 c 128,-1,39
 88 154 88 154 88 199 c 0,20,21
EndSplineSet
EndChar

StartChar: period
Encoding: 46 46 17
Width: 682
Flags: W
LayerCount: 2
Fore
SplineSet
88 199 m 0,0,1
 88 238 88 238 101 274 c 128,-1,2
 114 310 114 310 143.5 338.5 c 128,-1,3
 173 367 173 367 221.5 384 c 128,-1,4
 270 401 270 401 341 401 c 256,5,6
 412 401 412 401 460.5 384 c 128,-1,7
 509 367 509 367 538.5 338.5 c 128,-1,8
 568 310 568 310 581 274 c 128,-1,9
 594 238 594 238 594 199 c 0,10,11
 594 154 594 154 572.5 114.5 c 128,-1,12
 551 75 551 75 515.5 45 c 128,-1,13
 480 15 480 15 434.5 -2.5 c 128,-1,14
 389 -20 389 -20 341 -20 c 256,15,16
 293 -20 293 -20 247.5 -2.5 c 128,-1,17
 202 15 202 15 166.5 45 c 128,-1,18
 131 75 131 75 109.5 114.5 c 128,-1,19
 88 154 88 154 88 199 c 0,0,1
EndSplineSet
EndChar

StartChar: comma
Encoding: 44 44 18
Width: 641
Flags: W
LayerCount: 2
Fore
SplineSet
189 389 m 1,0,1
 244 402 244 402 300 401 c 0,2,3
 349 400 349 400 395.5 387 c 128,-1,4
 442 374 442 374 479.5 348.5 c 128,-1,5
 517 323 517 323 542.5 285 c 128,-1,6
 568 247 568 247 576 197 c 1,7,8
 549 135 549 135 502 63 c 128,-1,9
 455 -9 455 -9 399 -78 c 128,-1,10
 343 -147 343 -147 282.5 -206 c 128,-1,11
 222 -265 222 -265 168 -301 c 1,12,-1
 18 -206 l 1,13,-1
 189 389 l 1,0,1
EndSplineSet
EndChar

StartChar: question
Encoding: 63 63 19
Width: 908
Flags: W
LayerCount: 2
Fore
SplineSet
263 561 m 1,0,1
 254 579 254 579 243 603.5 c 128,-1,2
 232 628 232 628 221.5 655 c 128,-1,3
 211 682 211 682 204 711 c 128,-1,4
 197 740 197 740 197 768 c 0,5,6
 197 803 197 803 211 830.5 c 128,-1,7
 225 858 225 858 248.5 878.5 c 128,-1,8
 272 899 272 899 303.5 914.5 c 128,-1,9
 335 930 335 930 370 941 c 0,10,11
 429 960 429 960 489 970.5 c 128,-1,12
 549 981 549 981 593 992 c 1,13,14
 600 1003 600 1003 600 1014.5 c 128,-1,15
 600 1026 600 1026 595 1034 c 1,16,17
 565 1058 565 1058 528 1080.5 c 128,-1,18
 491 1103 491 1103 434.5 1128 c 128,-1,19
 378 1153 378 1153 297.5 1182.5 c 128,-1,20
 217 1212 217 1212 100 1249 c 1,21,22
 99 1257 99 1257 98.5 1265 c 128,-1,23
 98 1273 98 1273 98 1281 c 0,24,25
 98 1341 98 1341 120.5 1400 c 128,-1,26
 143 1459 143 1459 177 1507 c 128,-1,27
 211 1555 211 1555 252 1586.5 c 128,-1,28
 293 1618 293 1618 330 1623 c 1,29,30
 354 1623 354 1623 394 1612.5 c 128,-1,31
 434 1602 434 1602 481 1582 c 128,-1,32
 528 1562 528 1562 579 1532.5 c 128,-1,33
 630 1503 630 1503 677.5 1465 c 128,-1,34
 725 1427 725 1427 765 1381.5 c 128,-1,35
 805 1336 805 1336 830 1283 c 0,36,37
 853 1234 853 1234 869.5 1167.5 c 128,-1,38
 886 1101 886 1101 886 1030 c 0,39,40
 886 966 886 966 869 906.5 c 128,-1,41
 852 847 852 847 811.5 800.5 c 128,-1,42
 771 754 771 754 704 726 c 128,-1,43
 637 698 637 698 536 698 c 0,44,45
 531 698 531 698 525.5 698.5 c 128,-1,46
 520 699 520 699 514 699 c 1,47,-1
 470 551 l 1,48,49
 422 536 422 536 378 536 c 0,50,51
 319 536 319 536 263 561 c 1,0,1
147 199 m 0,52,53
 147 238 147 238 160 274 c 128,-1,54
 173 310 173 310 202.5 338.5 c 128,-1,55
 232 367 232 367 280.5 384 c 128,-1,56
 329 401 329 401 400 401 c 256,57,58
 471 401 471 401 519.5 384 c 128,-1,59
 568 367 568 367 597.5 338.5 c 128,-1,60
 627 310 627 310 640 274 c 128,-1,61
 653 238 653 238 653 199 c 0,62,63
 653 154 653 154 631.5 114.5 c 128,-1,64
 610 75 610 75 574.5 45 c 128,-1,65
 539 15 539 15 493.5 -2.5 c 128,-1,66
 448 -20 448 -20 400 -20 c 256,67,68
 352 -20 352 -20 306.5 -2.5 c 128,-1,69
 261 15 261 15 225.5 45 c 128,-1,70
 190 75 190 75 168.5 114.5 c 128,-1,71
 147 154 147 154 147 199 c 0,52,53
EndSplineSet
EndChar

StartChar: acute.cap
Encoding: 65537 -1 20
Width: 661
Flags: W
LayerCount: 2
Fore
SplineSet
114 1629 m 1,0,1
 88 1657 88 1657 72.5 1702.5 c 128,-1,2
 57 1748 57 1748 50 1796 c 1,3,-1
 452 2020 l 1,4,5
 492 1996 492 1996 521.5 1963 c 128,-1,6
 551 1930 551 1930 570.5 1892.5 c 128,-1,7
 590 1855 590 1855 599.5 1815 c 128,-1,8
 609 1775 609 1775 611 1737 c 1,9,10
 570 1710 570 1710 516 1689 c 128,-1,11
 462 1668 462 1668 403.5 1653.5 c 128,-1,12
 345 1639 345 1639 286.5 1632 c 128,-1,13
 228 1625 228 1625 178 1625 c 0,14,15
 161 1625 161 1625 144.5 1626 c 128,-1,16
 128 1627 128 1627 114 1629 c 1,0,1
EndSplineSet
EndChar

StartChar: y
Encoding: 121 121 22
Width: 1205
Flags: W
LayerCount: 2
Fore
SplineSet
142 -145 m 0,0,1
 142 -92 142 -92 167.5 -52 c 128,-1,2
 193 -12 193 -12 233.5 19.5 c 128,-1,3
 274 51 274 51 323.5 76 c 128,-1,4
 373 101 373 101 422 125 c 1,5,6
 412 162 412 162 393.5 218.5 c 128,-1,7
 375 275 375 275 350.5 340.5 c 128,-1,8
 326 406 326 406 299 474.5 c 128,-1,9
 272 543 272 543 245 604.5 c 128,-1,10
 218 666 218 666 193.5 714.5 c 128,-1,11
 169 763 169 763 152 789 c 1,12,-1
 60 805 l 1,13,14
 45 848 45 848 38 898.5 c 128,-1,15
 31 949 31 949 26 1002 c 1,16,17
 38 1036 38 1036 60.5 1068.5 c 128,-1,18
 83 1101 83 1101 114.5 1127 c 128,-1,19
 146 1153 146 1153 185.5 1169 c 128,-1,20
 225 1185 225 1185 270 1185 c 0,21,22
 346 1185 346 1185 399 1151 c 128,-1,23
 452 1117 452 1117 488 1063 c 128,-1,24
 524 1009 524 1009 546.5 942 c 128,-1,25
 569 875 569 875 585 808 c 1,26,27
 614 694 614 694 630 561 c 128,-1,28
 646 428 646 428 653 285 c 1,29,-1
 675 289 l 1,30,31
 695 333 695 333 712 398 c 128,-1,32
 729 463 729 463 742 539 c 128,-1,33
 755 615 755 615 762.5 695 c 128,-1,34
 770 775 770 775 771 849 c 1,35,-1
 646 868 l 1,36,37
 635 911 635 911 629.5 957 c 128,-1,38
 624 1003 624 1003 624 1065 c 1,39,40
 639 1083 639 1083 665.5 1104 c 128,-1,41
 692 1125 692 1125 728.5 1143 c 128,-1,42
 765 1161 765 1161 810.5 1173 c 128,-1,43
 856 1185 856 1185 907 1185 c 0,44,45
 1165 1185 1165 1185 1165 926 c 0,46,47
 1165 776 1165 776 1124.5 629 c 128,-1,48
 1084 482 1084 482 1002.5 351.5 c 128,-1,49
 921 221 921 221 798.5 114.5 c 128,-1,50
 676 8 676 8 513 -61 c 1,51,-1
 521 -94 l 1,52,53
 548 -97 548 -97 574 -97 c 0,54,55
 624 -97 624 -97 674 -89.5 c 128,-1,56
 724 -82 724 -82 779 -69 c 1,57,58
 805 -98 805 -98 826 -139 c 128,-1,59
 847 -180 847 -180 847 -235 c 0,60,61
 847 -262 847 -262 841 -290 c 1,62,63
 816 -314 816 -314 781 -339 c 128,-1,64
 746 -364 746 -364 701.5 -385 c 128,-1,65
 657 -406 657 -406 604.5 -419 c 128,-1,66
 552 -432 552 -432 493 -432 c 0,67,68
 420 -432 420 -432 356 -415.5 c 128,-1,69
 292 -399 292 -399 244.5 -364.5 c 128,-1,70
 197 -330 197 -330 169.5 -275.5 c 128,-1,71
 142 -221 142 -221 142 -145 c 0,0,1
EndSplineSet
EndChar

StartChar: g
Encoding: 103 103 23
Width: 1160
Flags: W
LayerCount: 2
Fore
SplineSet
206 -20 m 1,0,1
 274 -61 274 -61 337.5 -88 c 128,-1,2
 401 -115 401 -115 457.5 -130.5 c 128,-1,3
 514 -146 514 -146 563.5 -152.5 c 128,-1,4
 613 -159 613 -159 653 -159 c 0,5,6
 691 -159 691 -159 720 -154.5 c 128,-1,7
 749 -150 749 -150 769 -144 c 1,8,9
 786 -127 786 -127 791 -107 c 128,-1,10
 796 -87 796 -87 796 -73 c 0,11,12
 796 -53 796 -53 792.5 -45 c 128,-1,13
 789 -37 789 -37 783 -31 c 1,14,15
 731 -22 731 -22 666.5 -20 c 128,-1,16
 602 -18 602 -18 535 -14 c 128,-1,17
 468 -10 468 -10 404 0 c 128,-1,18
 340 10 340 10 290.5 35 c 128,-1,19
 241 60 241 60 210.5 103 c 128,-1,20
 180 146 180 146 180 216 c 0,21,22
 180 245 180 245 190 271.5 c 128,-1,23
 200 298 200 298 217.5 321 c 128,-1,24
 235 344 235 344 257.5 364 c 128,-1,25
 280 384 280 384 306 401 c 1,26,27
 254 422 254 422 208.5 455 c 128,-1,28
 163 488 163 488 129 535 c 128,-1,29
 95 582 95 582 75 644.5 c 128,-1,30
 55 707 55 707 55 787 c 256,31,32
 55 867 55 867 77.5 928.5 c 128,-1,33
 100 990 100 990 138 1034.5 c 128,-1,34
 176 1079 176 1079 226 1109 c 128,-1,35
 276 1139 276 1139 331 1157.5 c 128,-1,36
 386 1176 386 1176 442 1183.5 c 128,-1,37
 498 1191 498 1191 548 1191 c 0,38,39
 621 1191 621 1191 691 1177 c 128,-1,40
 761 1163 761 1163 821 1137 c 1,41,-1
 778 1391 l 1,42,43
 809 1410 809 1410 848.5 1419 c 128,-1,44
 888 1428 888 1428 930 1428 c 0,45,46
 961 1428 961 1428 992 1422.5 c 128,-1,47
 1023 1417 1023 1417 1051 1406.5 c 128,-1,48
 1079 1396 1079 1396 1102 1380 c 128,-1,49
 1125 1364 1125 1364 1140 1343 c 1,50,51
 1142 1333 1142 1333 1142 1311 c 0,52,53
 1142 1283 1142 1283 1137 1238.5 c 128,-1,54
 1132 1194 1132 1194 1117.5 1145.5 c 128,-1,55
 1103 1097 1103 1097 1077.5 1049.5 c 128,-1,56
 1052 1002 1052 1002 1011 967 c 1,57,58
 1028 932 1028 932 1037.5 893 c 128,-1,59
 1047 854 1047 854 1047 812 c 0,60,61
 1047 756 1047 756 1036.5 700 c 128,-1,62
 1026 644 1026 644 1003 593.5 c 128,-1,63
 980 543 980 543 943 499.5 c 128,-1,64
 906 456 906 456 852.5 423.5 c 128,-1,65
 799 391 799 391 727.5 373 c 128,-1,66
 656 355 656 355 565 355 c 0,67,68
 515 355 515 355 461 361 c 1,69,70
 459 335 459 335 466 309.5 c 128,-1,71
 473 284 473 284 485 261 c 1,72,73
 536 271 536 271 591 279 c 128,-1,74
 646 287 646 287 703 288 c 0,75,76
 720 288 720 288 737 288.5 c 128,-1,77
 754 289 754 289 771 289 c 0,78,79
 831 289 831 289 885 285.5 c 128,-1,80
 939 282 939 282 980 272 c 256,81,82
 1021 262 1021 262 1050.5 239 c 128,-1,83
 1080 216 1080 216 1098.5 183 c 128,-1,84
 1117 150 1117 150 1126 109 c 128,-1,85
 1135 68 1135 68 1135 23 c 0,86,87
 1135 -56 1135 -56 1109.5 -120 c 128,-1,88
 1084 -184 1084 -184 1038.5 -235 c 128,-1,89
 993 -286 993 -286 932 -323 c 128,-1,90
 871 -360 871 -360 800.5 -384 c 128,-1,91
 730 -408 730 -408 652.5 -420 c 128,-1,92
 575 -432 575 -432 498 -432 c 0,93,94
 439 -432 439 -432 373 -423.5 c 128,-1,95
 307 -415 307 -415 247.5 -389.5 c 128,-1,96
 188 -364 188 -364 142.5 -317 c 128,-1,97
 97 -270 97 -270 80 -194 c 1,98,99
 113 -79 113 -79 206 -20 c 1,0,1
433 629 m 1,100,101
 445 621 445 621 463.5 616 c 128,-1,102
 482 611 482 611 503.5 608 c 128,-1,103
 525 605 525 605 548 603.5 c 128,-1,104
 571 602 571 602 592 602 c 0,105,106
 624 602 624 602 647 604 c 128,-1,107
 670 606 670 606 676 611 c 1,108,109
 690 640 690 640 696.5 668 c 128,-1,110
 703 696 703 696 703 722 c 0,111,112
 703 755 703 755 695 783 c 128,-1,113
 687 811 687 811 676 833 c 1,114,115
 669 839 669 839 652.5 843.5 c 128,-1,116
 636 848 636 848 615 850.5 c 128,-1,117
 594 853 594 853 569.5 854.5 c 128,-1,118
 545 856 545 856 522 856 c 0,119,120
 493 856 493 856 469.5 854 c 128,-1,121
 446 852 446 852 435 848 c 1,122,123
 418 819 418 819 411 791 c 128,-1,124
 404 763 404 763 404 737 c 0,125,126
 404 705 404 705 412.5 677.5 c 128,-1,127
 421 650 421 650 433 629 c 1,100,101
EndSplineSet
EndChar

StartChar: p
Encoding: 112 112 24
Width: 1249
Flags: W
LayerCount: 2
Fore
SplineSet
134 -134 m 2,0,1
 134 -23 134 -23 134.5 102.5 c 128,-1,2
 135 228 135 228 137.5 355.5 c 128,-1,3
 140 483 140 483 144.5 607 c 128,-1,4
 149 731 149 731 158 840 c 1,5,-1
 49 858 l 1,6,7
 38 892 38 892 31 921 c 128,-1,8
 24 950 24 950 20.5 978.5 c 128,-1,9
 17 1007 17 1007 16 1037.5 c 128,-1,10
 15 1068 15 1068 15 1106 c 1,11,12
 24 1114 24 1114 46.5 1127.5 c 128,-1,13
 69 1141 69 1141 101 1153.5 c 128,-1,14
 133 1166 133 1166 172.5 1175.5 c 128,-1,15
 212 1185 212 1185 256 1185 c 0,16,17
 319 1185 319 1185 361.5 1171 c 128,-1,18
 404 1157 404 1157 430 1130 c 128,-1,19
 456 1103 456 1103 467 1064.5 c 128,-1,20
 478 1026 478 1026 478 977 c 0,21,22
 478 942 478 942 473.5 903 c 128,-1,23
 469 864 469 864 461 820 c 0,24,25
 451 764 451 764 445.5 731.5 c 128,-1,26
 440 699 440 699 437 681.5 c 128,-1,27
 434 664 434 664 433.5 658.5 c 128,-1,28
 433 653 433 653 433 653 c 2,29,30
 433 648 433 648 440 643.5 c 128,-1,31
 447 639 447 639 455 639 c 0,32,33
 464 639 464 639 467 646 c 1,34,35
 475 675 475 675 482.5 706.5 c 128,-1,36
 490 738 490 738 499 771 c 0,37,38
 521 855 521 855 555.5 930.5 c 128,-1,39
 590 1006 590 1006 638 1062.5 c 128,-1,40
 686 1119 686 1119 748.5 1152 c 128,-1,41
 811 1185 811 1185 889 1185 c 0,42,43
 976 1185 976 1185 1035 1155.5 c 128,-1,44
 1094 1126 1094 1126 1131 1078 c 128,-1,45
 1168 1030 1168 1030 1184 968.5 c 128,-1,46
 1200 907 1200 907 1200 842 c 0,47,48
 1200 779 1200 779 1193.5 706.5 c 128,-1,49
 1187 634 1187 634 1175.5 559 c 128,-1,50
 1164 484 1164 484 1148 409.5 c 128,-1,51
 1132 335 1132 335 1112 267 c 0,52,53
 1093 203 1093 203 1061.5 150 c 128,-1,54
 1030 97 1030 97 985.5 59 c 128,-1,55
 941 21 941 21 884 0 c 128,-1,56
 827 -21 827 -21 757 -21 c 0,57,58
 734 -21 734 -21 707.5 -18 c 128,-1,59
 681 -15 681 -15 647.5 -7 c 128,-1,60
 614 1 614 1 572 14.5 c 128,-1,61
 530 28 530 28 477 48 c 1,62,-1
 437 -141 l 1,63,-1
 439 -143 l 1,64,-1
 630 -130 l 1,65,66
 643 -148 643 -148 651 -173 c 128,-1,67
 659 -198 659 -198 664.5 -222.5 c 128,-1,68
 670 -247 670 -247 673 -269 c 128,-1,69
 676 -291 676 -291 678 -304 c 1,70,71
 642 -340 642 -340 593 -368 c 0,72,73
 551 -392 551 -392 490 -412 c 128,-1,74
 429 -432 429 -432 349 -432 c 0,75,76
 307 -432 307 -432 268 -422 c 128,-1,77
 229 -412 229 -412 199.5 -386 c 128,-1,78
 170 -360 170 -360 152 -315.5 c 128,-1,79
 134 -271 134 -271 134 -203 c 2,80,-1
 134 -134 l 2,0,1
501 331 m 1,81,82
 535 307 535 307 575.5 289.5 c 128,-1,83
 616 272 616 272 652 261 c 128,-1,84
 688 250 688 250 716 246 c 128,-1,85
 744 242 744 242 753 246 c 1,86,87
 765 289 765 289 772 342 c 128,-1,88
 779 395 779 395 782.5 449.5 c 128,-1,89
 786 504 786 504 787.5 557.5 c 128,-1,90
 789 611 789 611 789 655 c 0,91,92
 789 675 789 675 788 694.5 c 128,-1,93
 787 714 787 714 784 731 c 1,94,95
 761 760 761 760 718 760 c 1,96,97
 713 756 713 756 698 732.5 c 128,-1,98
 683 709 683 709 663 674.5 c 128,-1,99
 643 640 643 640 619.5 598.5 c 128,-1,100
 596 557 596 557 573.5 516 c 128,-1,101
 551 475 551 475 532 439 c 128,-1,102
 513 403 513 403 501 379 c 1,103,-1
 501 331 l 1,81,82
EndSplineSet
EndChar

StartChar: l
Encoding: 108 108 25
Width: 701
Flags: W
LayerCount: 2
Fore
SplineSet
137 223 m 0,0,1
 138 268 138 268 138.5 333.5 c 128,-1,2
 139 399 139 399 139.5 480.5 c 128,-1,3
 140 562 140 562 141 656.5 c 128,-1,4
 142 751 142 751 144.5 854 c 128,-1,5
 147 957 147 957 151.5 1066.5 c 128,-1,6
 156 1176 156 1176 164 1287 c 1,7,-1
 41 1308 l 1,8,9
 34 1337 34 1337 29 1361 c 128,-1,10
 24 1385 24 1385 21 1407.5 c 128,-1,11
 18 1430 18 1430 17 1453 c 128,-1,12
 16 1476 16 1476 17 1503 c 1,13,14
 32 1521 32 1521 60 1542 c 128,-1,15
 88 1563 88 1563 126.5 1581 c 128,-1,16
 165 1599 165 1599 212 1611 c 128,-1,17
 259 1623 259 1623 310 1623 c 0,18,19
 436 1623 436 1623 504 1558.5 c 128,-1,20
 572 1494 572 1494 569 1364 c 0,21,22
 568 1321 568 1321 564 1249 c 128,-1,23
 560 1177 560 1177 553 1087 c 128,-1,24
 546 997 546 997 535.5 894.5 c 128,-1,25
 525 792 525 792 511.5 687 c 128,-1,26
 498 582 498 582 482 481 c 128,-1,27
 466 380 466 380 447 293 c 1,28,-1
 449 291 l 1,29,-1
 597 353 l 1,30,31
 638 318 638 318 660 273.5 c 128,-1,32
 682 229 682 229 688 175 c 1,33,34
 651 120 651 120 602 77 c 0,35,36
 581 59 581 59 555 41.5 c 128,-1,37
 529 24 529 24 498 10.5 c 128,-1,38
 467 -3 467 -3 431.5 -11.5 c 128,-1,39
 396 -20 396 -20 356 -20 c 0,40,41
 313 -20 313 -20 273 -9 c 128,-1,42
 233 2 233 2 202 29.5 c 128,-1,43
 171 57 171 57 153 104 c 128,-1,44
 135 151 135 151 137 223 c 0,0,1
EndSplineSet
EndChar

StartChar: k
Encoding: 107 107 26
Width: 1202
Flags: W
LayerCount: 2
Fore
SplineSet
143 34 m 1,0,1
 137 109 137 109 133.5 181.5 c 128,-1,2
 130 254 130 254 128 328 c 128,-1,3
 126 402 126 402 125.5 480.5 c 128,-1,4
 125 559 125 559 125 646 c 0,5,6
 125 729 125 729 125.5 819.5 c 128,-1,7
 126 910 126 910 128 996 c 128,-1,8
 130 1082 130 1082 133.5 1158 c 128,-1,9
 137 1234 137 1234 143 1288 c 1,10,-1
 30 1308 l 1,11,12
 17 1357 17 1357 11.5 1406 c 128,-1,13
 6 1455 6 1455 6 1506 c 1,14,15
 15 1518 15 1518 40.5 1538 c 128,-1,16
 66 1558 66 1558 101.5 1577 c 128,-1,17
 137 1596 137 1596 179.5 1609.5 c 128,-1,18
 222 1623 222 1623 266 1623 c 0,19,20
 327 1623 327 1623 379 1611 c 128,-1,21
 431 1599 431 1599 469 1569.5 c 128,-1,22
 507 1540 507 1540 528 1491 c 128,-1,23
 549 1442 549 1442 549 1367 c 0,24,25
 549 1330 549 1330 544.5 1239.5 c 128,-1,26
 540 1149 540 1149 527 1018 c 128,-1,27
 514 887 514 887 490.5 722 c 128,-1,28
 467 557 467 557 430 372 c 1,29,-1
 447 362 l 1,30,31
 486 415 486 415 524.5 476 c 128,-1,32
 563 537 563 537 598 600.5 c 128,-1,33
 633 664 633 664 663 727 c 128,-1,34
 693 790 693 790 715 847 c 1,35,-1
 629 868 l 1,36,37
 621 911 621 911 619 949.5 c 128,-1,38
 617 988 617 988 617 1029 c 2,39,-1
 617 1065 l 1,40,41
 632 1083 632 1083 655 1104 c 128,-1,42
 678 1125 678 1125 711 1143 c 128,-1,43
 744 1161 744 1161 787.5 1173 c 128,-1,44
 831 1185 831 1185 887 1185 c 0,45,46
 941 1185 941 1185 984 1169.5 c 128,-1,47
 1027 1154 1027 1154 1056.5 1126.5 c 128,-1,48
 1086 1099 1086 1099 1102 1061 c 128,-1,49
 1118 1023 1118 1023 1118 977 c 0,50,51
 1118 929 1118 929 1103.5 888.5 c 128,-1,52
 1089 848 1089 848 1062 805 c 0,53,54
 1022 742 1022 742 955.5 657.5 c 128,-1,55
 889 573 889 573 811 481 c 1,56,57
 838 443 838 443 867.5 405.5 c 128,-1,58
 897 368 897 368 928 335 c 1,59,60
 958 350 958 350 985 378.5 c 128,-1,61
 1012 407 1012 407 1042 439 c 1,62,-1
 1165 346 l 1,63,64
 1162 254 1162 254 1141.5 186 c 128,-1,65
 1121 118 1121 118 1087 72 c 128,-1,66
 1053 26 1053 26 1006.5 3.5 c 128,-1,67
 960 -19 960 -19 905 -19 c 0,68,69
 837 -19 837 -19 790 3.5 c 128,-1,70
 743 26 743 26 710.5 65 c 128,-1,71
 678 104 678 104 658 157 c 128,-1,72
 638 210 638 210 625 272 c 1,73,74
 572 215 572 215 523 164.5 c 128,-1,75
 474 114 474 114 434 75 c 128,-1,76
 394 36 394 36 364.5 11 c 128,-1,77
 335 -14 335 -14 322 -20 c 1,78,79
 298 -20 298 -20 272 -17 c 128,-1,80
 246 -14 246 -14 221.5 -8 c 128,-1,81
 197 -2 197 -2 176.5 8.5 c 128,-1,82
 156 19 156 19 143 34 c 1,0,1
EndSplineSet
EndChar

StartChar: r
Encoding: 114 114 27
Width: 1002
Flags: W
LayerCount: 2
Fore
SplineSet
170 211 m 0,0,1
 169 222 169 222 169 236.5 c 128,-1,2
 169 251 169 251 169 268 c 0,3,4
 169 314 169 314 170 379 c 128,-1,5
 171 444 171 444 171.5 519.5 c 128,-1,6
 172 595 172 595 173 677 c 128,-1,7
 174 759 174 759 174 840 c 1,8,-1
 82 855 l 1,9,10
 62 915 62 915 54.5 964 c 128,-1,11
 47 1013 47 1013 47 1063 c 0,12,13
 47 1071 47 1071 47 1079 c 128,-1,14
 47 1087 47 1087 48 1095 c 1,15,16
 57 1103 57 1103 80 1118 c 128,-1,17
 103 1133 103 1133 134.5 1148 c 128,-1,18
 166 1163 166 1163 205 1174 c 128,-1,19
 244 1185 244 1185 286 1185 c 0,20,21
 347 1185 347 1185 390 1171 c 128,-1,22
 433 1157 433 1157 460 1130 c 128,-1,23
 487 1103 487 1103 499.5 1064.5 c 128,-1,24
 512 1026 512 1026 512 977 c 0,25,26
 512 945 512 945 507.5 902 c 128,-1,27
 503 859 503 859 496 816.5 c 128,-1,28
 489 774 489 774 480.5 737.5 c 128,-1,29
 472 701 472 701 465 681 c 1,30,-1
 501 675 l 1,31,-1
 561 901 l 2,32,33
 582 982 582 982 608.5 1036.5 c 128,-1,34
 635 1091 635 1091 665 1124 c 128,-1,35
 695 1157 695 1157 728 1171 c 128,-1,36
 761 1185 761 1185 796 1185 c 0,37,38
 821 1185 821 1185 846.5 1181 c 128,-1,39
 872 1177 872 1177 894.5 1169.5 c 128,-1,40
 917 1162 917 1162 936 1152.5 c 128,-1,41
 955 1143 955 1143 968 1133 c 1,42,43
 982 1101 982 1101 989 1058.5 c 128,-1,44
 996 1016 996 1016 996 968 c 0,45,46
 996 932 996 932 992.5 895.5 c 128,-1,47
 989 859 989 859 982.5 825.5 c 128,-1,48
 976 792 976 792 966.5 762.5 c 128,-1,49
 957 733 957 733 946 712 c 1,50,-1
 736 740 l 1,51,52
 702 704 702 704 666 652 c 128,-1,53
 630 600 630 600 596 544 c 128,-1,54
 562 488 562 488 533 431.5 c 128,-1,55
 504 375 504 375 485 330 c 1,56,-1
 484 278 l 1,57,-1
 678 324 l 1,58,59
 704 285 704 285 717.5 240 c 128,-1,60
 731 195 731 195 735 146 c 1,61,62
 698 99 698 99 649 63 c 0,63,64
 607 32 607 32 545 6.5 c 128,-1,65
 483 -19 483 -19 403 -19 c 0,66,67
 361 -19 361 -19 320 -8.5 c 128,-1,68
 279 2 279 2 246.5 28 c 128,-1,69
 214 54 214 54 193 98.5 c 128,-1,70
 172 143 172 143 170 211 c 0,0,1
EndSplineSet
EndChar

StartChar: u
Encoding: 117 117 28
Width: 1280
Flags: W
LayerCount: 2
Fore
SplineSet
144 351 m 0,0,1
 144 479 144 479 148 603 c 128,-1,2
 152 727 152 727 164 847 c 1,3,-1
 58 862 l 1,4,5
 50 894 50 894 45 916.5 c 128,-1,6
 40 939 40 939 37 961 c 128,-1,7
 34 983 34 983 32.5 1008.5 c 128,-1,8
 31 1034 31 1034 31 1072 c 1,9,10
 88 1126 88 1126 155.5 1155.5 c 128,-1,11
 223 1185 223 1185 311 1185 c 0,12,13
 569 1185 569 1185 569 926 c 0,14,15
 569 862 569 862 558.5 780.5 c 128,-1,16
 548 699 548 699 534 614 c 128,-1,17
 520 529 520 529 506.5 449 c 128,-1,18
 493 369 493 369 487 308 c 1,19,20
 504 290 504 290 529 283 c 1,21,22
 538 283 538 283 565.5 312.5 c 128,-1,23
 593 342 593 342 628 386.5 c 128,-1,24
 663 431 663 431 698.5 483.5 c 128,-1,25
 734 536 734 536 760 584 c 1,26,27
 764 650 764 650 769 715.5 c 128,-1,28
 774 781 774 781 782 847 c 1,29,-1
 677 868 l 1,30,31
 671 893 671 893 666.5 914.5 c 128,-1,32
 662 936 662 936 659 956 c 128,-1,33
 656 976 656 976 655 995.5 c 128,-1,34
 654 1015 654 1015 654 1037 c 0,35,36
 654 1044 654 1044 654.5 1050.5 c 128,-1,37
 655 1057 655 1057 655 1065 c 1,38,39
 670 1083 670 1083 695 1104 c 128,-1,40
 720 1125 720 1125 754.5 1143 c 128,-1,41
 789 1161 789 1161 833 1173 c 128,-1,42
 877 1185 877 1185 928 1185 c 0,43,44
 1186 1185 1186 1185 1186 926 c 0,45,46
 1186 867 1186 867 1174 786.5 c 128,-1,47
 1162 706 1162 706 1144.5 620 c 128,-1,48
 1127 534 1127 534 1106.5 451 c 128,-1,49
 1086 368 1086 368 1069 303 c 1,50,-1
 1184 353 l 1,51,52
 1208 327 1208 327 1232.5 283 c 128,-1,53
 1257 239 1257 239 1264 175 c 1,54,55
 1255 157 1255 157 1227.5 124.5 c 128,-1,56
 1200 92 1200 92 1157.5 59.5 c 128,-1,57
 1115 27 1115 27 1061 3.5 c 128,-1,58
 1007 -20 1007 -20 946 -20 c 0,59,60
 903 -20 903 -20 870.5 -6.5 c 128,-1,61
 838 7 838 7 816.5 31 c 128,-1,62
 795 55 795 55 784.5 87 c 128,-1,63
 774 119 774 119 774 156 c 0,64,65
 774 166 774 166 777 189.5 c 128,-1,66
 780 213 780 213 784.5 239 c 128,-1,67
 789 265 789 265 794 288.5 c 128,-1,68
 799 312 799 312 802 324 c 1,69,-1
 774 333 l 1,70,71
 748 243 748 243 713 177 c 128,-1,72
 678 111 678 111 635 67 c 128,-1,73
 592 23 592 23 542 1.5 c 128,-1,74
 492 -20 492 -20 437 -20 c 0,75,76
 349 -20 349 -20 292 13 c 128,-1,77
 235 46 235 46 202 99 c 128,-1,78
 169 152 169 152 156.5 218 c 128,-1,79
 144 284 144 284 144 351 c 0,0,1
EndSplineSet
EndChar

StartChar: q
Encoding: 113 113 29
Width: 1261
Flags: W
LayerCount: 2
Fore
SplineSet
428 -20 m 0,0,1
 357 -20 357 -20 303 5.5 c 128,-1,2
 249 31 249 31 209.5 75 c 128,-1,3
 170 119 170 119 143.5 178 c 128,-1,4
 117 237 117 237 101 303 c 128,-1,5
 85 369 85 369 78.5 439.5 c 128,-1,6
 72 510 72 510 72 577 c 0,7,8
 72 647 72 647 81.5 719.5 c 128,-1,9
 91 792 91 792 112 860 c 128,-1,10
 133 928 133 928 165.5 987 c 128,-1,11
 198 1046 198 1046 243 1090 c 128,-1,12
 288 1134 288 1134 346.5 1159.5 c 128,-1,13
 405 1185 405 1185 479 1185 c 0,14,15
 515 1185 515 1185 561 1178 c 128,-1,16
 607 1171 607 1171 655 1154.5 c 128,-1,17
 703 1138 703 1138 749 1111.5 c 128,-1,18
 795 1085 795 1085 833 1046 c 1,19,-1
 853 1048 l 1,20,21
 860 1063 860 1063 870 1081 c 128,-1,22
 880 1099 880 1099 891.5 1117.5 c 128,-1,23
 903 1136 903 1136 915.5 1153.5 c 128,-1,24
 928 1171 928 1171 942 1185 c 1,25,26
 1005 1185 1005 1185 1046.5 1179.5 c 128,-1,27
 1088 1174 1088 1174 1113.5 1167.5 c 128,-1,28
 1139 1161 1139 1161 1150 1155.5 c 128,-1,29
 1161 1150 1161 1150 1163 1150 c 1,30,31
 1170 1123 1170 1123 1175.5 1071 c 128,-1,32
 1181 1019 1181 1019 1181 957 c 0,33,34
 1181 913 1181 913 1178 840.5 c 128,-1,35
 1175 768 1175 768 1168.5 678 c 128,-1,36
 1162 588 1162 588 1153 486 c 128,-1,37
 1144 384 1144 384 1131.5 279 c 128,-1,38
 1119 174 1119 174 1103 72.5 c 128,-1,39
 1087 -29 1087 -29 1068 -117 c 1,40,-1
 1070 -119 l 1,41,-1
 1258 -62 l 1,42,43
 1290 -94 1290 -94 1300.5 -132.5 c 128,-1,44
 1311 -171 1311 -171 1311 -206 c 0,45,46
 1311 -214 1311 -214 1310.5 -222 c 128,-1,47
 1310 -230 1310 -230 1309 -238 c 1,48,49
 1272 -292 1272 -292 1223 -334 c 0,50,51
 1202 -352 1202 -352 1176 -369.5 c 128,-1,52
 1150 -387 1150 -387 1119 -400.5 c 128,-1,53
 1088 -414 1088 -414 1052.5 -422 c 128,-1,54
 1017 -430 1017 -430 977 -430 c 0,55,56
 934 -430 934 -430 894 -419 c 128,-1,57
 854 -408 854 -408 823.5 -380.5 c 128,-1,58
 793 -353 793 -353 775 -306 c 128,-1,59
 757 -259 757 -259 758 -187 c 0,60,61
 759 -126 759 -126 761 -72.5 c 128,-1,62
 763 -19 763 -19 768 38.5 c 128,-1,63
 773 96 773 96 781 164.5 c 128,-1,64
 789 233 789 233 801 324 c 1,65,-1
 771 333 l 1,66,67
 720 153 720 153 636.5 66.5 c 128,-1,68
 553 -20 553 -20 428 -20 c 0,0,1
521 287 m 1,69,70
 533 286 533 286 563 315 c 128,-1,71
 593 344 593 344 629 389.5 c 128,-1,72
 665 435 665 435 700.5 489.5 c 128,-1,73
 736 544 736 544 758 595 c 1,74,75
 761 613 761 613 762.5 635 c 128,-1,76
 764 657 764 657 764 679 c 0,77,78
 764 711 764 711 761.5 739 c 128,-1,79
 759 767 759 767 756 778 c 1,80,81
 727 794 727 794 699 804.5 c 128,-1,82
 671 815 671 815 647 821 c 128,-1,83
 623 827 623 827 604 829 c 128,-1,84
 585 831 585 831 573 831 c 0,85,86
 554 831 554 831 540 829.5 c 128,-1,87
 526 828 526 828 517 826 c 1,88,89
 506 816 506 816 498 792.5 c 128,-1,90
 490 769 490 769 484.5 737.5 c 128,-1,91
 479 706 479 706 476 668 c 128,-1,92
 473 630 473 630 473 590 c 0,93,94
 473 548 473 548 476 504.5 c 128,-1,95
 479 461 479 461 485 421 c 128,-1,96
 491 381 491 381 500 346 c 128,-1,97
 509 311 509 311 521 287 c 1,69,70
EndSplineSet
EndChar

StartChar: t
Encoding: 116 116 30
Width: 805
Flags: W
LayerCount: 2
Fore
SplineSet
156 223 m 0,0,1
 153 276 153 276 151 360.5 c 128,-1,2
 149 445 149 445 149 552 c 0,3,4
 149 620 149 620 150 694 c 128,-1,5
 151 768 151 768 154 849 c 1,6,-1
 45 868 l 1,7,8
 39 893 39 893 34.5 914.5 c 128,-1,9
 30 936 30 936 27 956 c 128,-1,10
 24 976 24 976 23 995.5 c 128,-1,11
 22 1015 22 1015 22 1037 c 0,12,13
 22 1044 22 1044 24.5 1058 c 128,-1,14
 27 1072 27 1072 27 1080 c 1,15,-1
 172 1112 l 1,16,17
 174 1141 174 1141 180 1177.5 c 128,-1,18
 186 1214 186 1214 194 1249.5 c 128,-1,19
 202 1285 202 1285 212 1316.5 c 128,-1,20
 222 1348 222 1348 233 1367 c 1,21,22
 266 1393 266 1393 312 1404 c 128,-1,23
 358 1415 358 1415 407 1415 c 0,24,25
 452 1415 452 1415 493 1406.5 c 128,-1,26
 534 1398 534 1398 565 1384 c 1,27,28
 568 1349 568 1349 568 1306 c 0,29,30
 568 1266 568 1266 566 1224 c 128,-1,31
 564 1182 564 1182 561 1143 c 1,32,-1
 737 1175 l 1,33,34
 757 1140 757 1140 765.5 1105 c 128,-1,35
 774 1070 774 1070 774 1036 c 0,36,37
 774 1006 774 1006 769 977.5 c 128,-1,38
 764 949 764 949 756.5 925 c 128,-1,39
 749 901 749 901 741 881 c 128,-1,40
 733 861 733 861 727 847 c 1,41,42
 705 843 705 843 658.5 839 c 128,-1,43
 612 835 612 835 546 833 c 1,44,45
 540 764 540 764 530.5 687 c 128,-1,46
 521 610 521 610 511.5 539.5 c 128,-1,47
 502 469 502 469 493 411 c 128,-1,48
 484 353 484 353 479 320 c 1,49,-1
 481 318 l 1,50,-1
 716 391 l 1,51,52
 758 356 758 356 778 306.5 c 128,-1,53
 798 257 798 257 805 203 c 1,54,55
 751 140 751 140 683 91 c 0,56,57
 654 70 654 70 619 50 c 128,-1,58
 584 30 584 30 544.5 14.5 c 128,-1,59
 505 -1 505 -1 460.5 -10.5 c 128,-1,60
 416 -20 416 -20 368 -20 c 0,61,62
 329 -20 329 -20 292.5 -9 c 128,-1,63
 256 2 256 2 227 29.5 c 128,-1,64
 198 57 198 57 179 104 c 128,-1,65
 160 151 160 151 156 223 c 0,0,1
EndSplineSet
EndChar

StartChar: f
Encoding: 102 102 31
Width: 888
Flags: W
LayerCount: 2
Fore
SplineSet
229 -145 m 1,0,1
 237 -123 237 -123 240 -90.5 c 128,-1,2
 243 -58 243 -58 241 -28 c 0,3,4
 238 35 238 35 233 118 c 128,-1,5
 228 201 228 201 223 292.5 c 128,-1,6
 218 384 218 384 214 477.5 c 128,-1,7
 210 571 210 571 210 654 c 0,8,9
 210 678 210 678 210.5 701 c 128,-1,10
 211 724 211 724 212 746 c 2,11,-1
 213 770 l 1,12,-1
 80 788 l 1,13,14
 65 837 65 837 61 882.5 c 128,-1,15
 57 928 57 928 58 985 c 1,16,17
 95 1005 95 1005 141 1020 c 128,-1,18
 187 1035 187 1035 234 1046 c 1,19,-1
 238 1062 l 1,20,21
 206 1091 206 1091 178.5 1124.5 c 128,-1,22
 151 1158 151 1158 131.5 1194.5 c 128,-1,23
 112 1231 112 1231 101.5 1271 c 128,-1,24
 91 1311 91 1311 93 1354 c 0,25,26
 96 1420 96 1420 126 1470.5 c 128,-1,27
 156 1521 156 1521 208.5 1554.5 c 128,-1,28
 261 1588 261 1588 334 1605.5 c 128,-1,29
 407 1623 407 1623 496 1623 c 0,30,31
 519 1623 519 1623 550 1622.5 c 128,-1,32
 581 1622 581 1622 620 1617.5 c 128,-1,33
 659 1613 659 1613 708 1604 c 128,-1,34
 757 1595 757 1595 816 1579 c 1,35,36
 830 1537 830 1537 830 1481 c 0,37,38
 830 1418 830 1418 814.5 1351 c 128,-1,39
 799 1284 799 1284 772 1234 c 1,40,41
 729 1248 729 1248 693.5 1259 c 128,-1,42
 658 1270 658 1270 625 1279 c 128,-1,43
 592 1288 592 1288 559 1294.5 c 128,-1,44
 526 1301 526 1301 488 1307 c 1,45,46
 472 1304 472 1304 460 1291.5 c 128,-1,47
 448 1279 448 1279 446 1268 c 1,48,49
 450 1245 450 1245 460 1217.5 c 128,-1,50
 470 1190 470 1190 484 1161 c 128,-1,51
 498 1132 498 1132 515 1103.5 c 128,-1,52
 532 1075 532 1075 551 1050 c 1,53,-1
 829 1101 l 1,54,55
 848 1073 848 1073 856 1033.5 c 128,-1,56
 864 994 864 994 864 952 c 0,57,58
 864 922 864 922 860.5 892.5 c 128,-1,59
 857 863 857 863 851 838 c 128,-1,60
 845 813 845 813 837.5 794 c 128,-1,61
 830 775 830 775 821 765 c 1,62,63
 811 764 811 764 802 764 c 128,-1,64
 793 764 793 764 783 764 c 0,65,66
 737 764 737 764 693 769.5 c 128,-1,67
 649 775 649 775 606 788 c 1,68,69
 604 719 604 719 600.5 644.5 c 128,-1,70
 597 570 597 570 594 492 c 0,71,72
 587 342 587 342 582.5 193.5 c 128,-1,73
 578 45 578 45 563 -87 c 0,74,75
 555 -156 555 -156 540.5 -217 c 128,-1,76
 526 -278 526 -278 491 -326 c 0,77,78
 448 -383 448 -383 380.5 -407.5 c 128,-1,79
 313 -432 313 -432 231 -432 c 0,80,81
 201 -432 201 -432 165.5 -426.5 c 128,-1,82
 130 -421 130 -421 95.5 -407.5 c 128,-1,83
 61 -394 61 -394 29.5 -372 c 128,-1,84
 -2 -350 -2 -350 -23 -316 c 1,85,86
 -25 -258 -25 -258 -6 -197.5 c 128,-1,87
 13 -137 13 -137 53 -92 c 1,88,-1
 229 -145 l 1,0,1
EndSplineSet
EndChar

StartChar: m
Encoding: 109 109 32
Width: 1911
Flags: W
LayerCount: 2
Fore
SplineSet
179 34 m 1,0,1
 174 68 174 68 170 116 c 0,2,3
 167 156 167 156 164.5 214.5 c 128,-1,4
 162 273 162 273 162 348 c 0,5,6
 162 424 162 424 162.5 479 c 128,-1,7
 163 534 163 534 165.5 585.5 c 128,-1,8
 168 637 168 637 173 696 c 128,-1,9
 178 755 178 755 187 840 c 1,10,-1
 72 855 l 1,11,12
 61 889 61 889 54 918 c 128,-1,13
 47 947 47 947 43.5 975.5 c 128,-1,14
 40 1004 40 1004 39 1034.5 c 128,-1,15
 38 1065 38 1065 38 1103 c 1,16,17
 47 1111 47 1111 70.5 1125 c 128,-1,18
 94 1139 94 1139 127 1152.5 c 128,-1,19
 160 1166 160 1166 200.5 1175.5 c 128,-1,20
 241 1185 241 1185 285 1185 c 0,21,22
 348 1185 348 1185 390.5 1171 c 128,-1,23
 433 1157 433 1157 459 1130 c 128,-1,24
 485 1103 485 1103 496 1064.5 c 128,-1,25
 507 1026 507 1026 507 977 c 0,26,27
 507 942 507 942 502.5 903 c 128,-1,28
 498 864 498 864 490 820 c 0,29,30
 480 764 480 764 474.5 731.5 c 128,-1,31
 469 699 469 699 466 681.5 c 128,-1,32
 463 664 463 664 462.5 658.5 c 128,-1,33
 462 653 462 653 462 653 c 2,34,35
 462 648 462 648 469 643.5 c 128,-1,36
 476 639 476 639 484 639 c 0,37,38
 493 639 493 639 496 646 c 1,39,40
 510 700 510 700 521.5 760.5 c 128,-1,41
 533 821 533 821 549 880.5 c 128,-1,42
 565 940 565 940 588 995 c 128,-1,43
 611 1050 611 1050 647 1091.5 c 128,-1,44
 683 1133 683 1133 734 1158 c 128,-1,45
 785 1183 785 1183 858 1183 c 0,46,47
 933 1183 933 1183 984.5 1159.5 c 128,-1,48
 1036 1136 1036 1136 1067.5 1095.5 c 128,-1,49
 1099 1055 1099 1055 1112.5 1001 c 128,-1,50
 1126 947 1126 947 1126 885 c 0,51,52
 1126 828 1126 828 1116.5 767.5 c 128,-1,53
 1107 707 1107 707 1090 647 c 1,54,55
 1090 642 1090 642 1097 637.5 c 128,-1,56
 1104 633 1104 633 1112 633 c 0,57,58
 1121 633 1121 633 1124 640 c 1,59,60
 1138 694 1138 694 1152.5 755 c 128,-1,61
 1167 816 1167 816 1186.5 876.5 c 128,-1,62
 1206 937 1206 937 1232.5 992.5 c 128,-1,63
 1259 1048 1259 1048 1296.5 1090 c 128,-1,64
 1334 1132 1334 1132 1384.5 1157.5 c 128,-1,65
 1435 1183 1435 1183 1503 1183 c 0,66,67
 1584 1183 1584 1183 1638.5 1154 c 128,-1,68
 1693 1125 1693 1125 1726 1077.5 c 128,-1,69
 1759 1030 1759 1030 1773 968.5 c 128,-1,70
 1787 907 1787 907 1787 842 c 0,71,72
 1787 756 1787 756 1774 673 c 128,-1,73
 1761 590 1761 590 1742.5 517.5 c 128,-1,74
 1724 445 1724 445 1705 387 c 128,-1,75
 1686 329 1686 329 1674 293 c 1,76,-1
 1676 291 l 1,77,-1
 1824 353 l 1,78,79
 1865 318 1865 318 1887 273.5 c 128,-1,80
 1909 229 1909 229 1915 175 c 1,81,82
 1878 120 1878 120 1829 77 c 0,83,84
 1808 59 1808 59 1782 41.5 c 128,-1,85
 1756 24 1756 24 1725 10.5 c 128,-1,86
 1694 -3 1694 -3 1658.5 -11.5 c 128,-1,87
 1623 -20 1623 -20 1583 -20 c 0,88,89
 1541 -20 1541 -20 1502.5 -10 c 128,-1,90
 1464 0 1464 0 1434 25.5 c 128,-1,91
 1404 51 1404 51 1386 94.5 c 128,-1,92
 1368 138 1368 138 1368 205 c 0,93,94
 1368 270 1368 270 1369.5 340 c 128,-1,95
 1371 410 1371 410 1373.5 480.5 c 128,-1,96
 1376 551 1376 551 1380 618.5 c 128,-1,97
 1384 686 1384 686 1390 746 c 1,98,99
 1382 753 1382 753 1371 756.5 c 128,-1,100
 1360 760 1360 760 1343 761 c 1,101,102
 1327 745 1327 745 1307 710.5 c 128,-1,103
 1287 676 1287 676 1265.5 630 c 128,-1,104
 1244 584 1244 584 1223.5 531 c 128,-1,105
 1203 478 1203 478 1185.5 427 c 128,-1,106
 1168 376 1168 376 1155 330.5 c 128,-1,107
 1142 285 1142 285 1137 254 c 1,108,109
 1144 207 1144 207 1155 156 c 128,-1,110
 1166 105 1166 105 1180 60 c 1,111,112
 1163 28 1163 28 1108.5 4 c 128,-1,113
 1054 -20 1054 -20 968 -20 c 0,114,115
 905 -20 905 -20 868 -12 c 128,-1,116
 831 -4 831 -4 811 7 c 1,117,118
 788 18 788 18 779 34 c 1,119,120
 774 68 774 68 770 116 c 0,121,122
 767 156 767 156 764.5 214.5 c 128,-1,123
 762 273 762 273 762 348 c 0,124,125
 762 400 762 400 765.5 451.5 c 128,-1,126
 769 503 769 503 773.5 553.5 c 128,-1,127
 778 604 778 604 782 652.5 c 128,-1,128
 786 701 786 701 786 746 c 1,129,130
 778 753 778 753 767 756.5 c 128,-1,131
 756 760 756 760 739 761 c 1,132,133
 733 756 733 756 717.5 731 c 128,-1,134
 702 706 702 706 682.5 669.5 c 128,-1,135
 663 633 663 633 641 589.5 c 128,-1,136
 619 546 619 546 599 505.5 c 128,-1,137
 579 465 579 465 563 431 c 128,-1,138
 547 397 547 397 540 379 c 0,139,140
 539 374 539 374 538.5 367 c 128,-1,141
 538 360 538 360 538 352 c 0,142,143
 538 327 538 327 542 292 c 128,-1,144
 546 257 546 257 553 217.5 c 128,-1,145
 560 178 560 178 569.5 137 c 128,-1,146
 579 96 579 96 590 60 c 1,147,148
 573 28 573 28 518.5 4 c 128,-1,149
 464 -20 464 -20 378 -20 c 0,150,151
 315 -20 315 -20 276.5 -12 c 128,-1,152
 238 -4 238 -4 216 7 c 1,153,154
 190 18 190 18 179 34 c 1,0,1
EndSplineSet
EndChar

StartChar: b
Encoding: 98 98 33
Width: 1233
Flags: W
LayerCount: 2
Fore
SplineSet
129 34 m 1,0,1
 124 87 124 87 120.5 151.5 c 128,-1,2
 117 216 117 216 114.5 289 c 128,-1,3
 112 362 112 362 111 442 c 128,-1,4
 110 522 110 522 110 605 c 0,5,6
 110 693 110 693 111.5 783 c 128,-1,7
 113 873 113 873 115 960.5 c 128,-1,8
 117 1048 117 1048 120.5 1131 c 128,-1,9
 124 1214 124 1214 129 1288 c 1,10,-1
 16 1308 l 1,11,12
 3 1357 3 1357 -2.5 1406 c 128,-1,13
 -8 1455 -8 1455 -8 1506 c 1,14,15
 1 1518 1 1518 26.5 1538 c 128,-1,16
 52 1558 52 1558 87.5 1577 c 128,-1,17
 123 1596 123 1596 165.5 1609.5 c 128,-1,18
 208 1623 208 1623 252 1623 c 0,19,20
 376 1623 376 1623 435.5 1560.5 c 128,-1,21
 495 1498 495 1498 495 1367 c 0,22,23
 495 1337 495 1337 492 1279 c 128,-1,24
 489 1221 489 1221 483 1146.5 c 128,-1,25
 477 1072 477 1072 467 987.5 c 128,-1,26
 457 903 457 903 443 820 c 2,27,-1
 415 650 l 1,28,-1
 447 639 l 1,29,-1
 481 771 l 2,30,31
 503 855 503 855 537 930.5 c 128,-1,32
 571 1006 571 1006 619 1062.5 c 128,-1,33
 667 1119 667 1119 730 1152 c 128,-1,34
 793 1185 793 1185 871 1185 c 0,35,36
 958 1185 958 1185 1017 1155.5 c 128,-1,37
 1076 1126 1076 1126 1113 1078 c 128,-1,38
 1150 1030 1150 1030 1166 968.5 c 128,-1,39
 1182 907 1182 907 1182 842 c 0,40,41
 1182 779 1182 779 1175.5 706.5 c 128,-1,42
 1169 634 1169 634 1157.5 559 c 128,-1,43
 1146 484 1146 484 1130 409.5 c 128,-1,44
 1114 335 1114 335 1094 267 c 0,45,46
 1075 203 1075 203 1043.5 150.5 c 128,-1,47
 1012 98 1012 98 967.5 60 c 128,-1,48
 923 22 923 22 866 1 c 128,-1,49
 809 -20 809 -20 739 -20 c 0,50,51
 694 -20 694 -20 612 -2 c 128,-1,52
 530 16 530 16 419 65 c 1,53,54
 405 43 405 43 386.5 18 c 128,-1,55
 368 -7 368 -7 353 -20 c 1,56,57
 290 -20 290 -20 247 -12 c 128,-1,58
 204 -4 204 -4 178 7 c 1,59,60
 147 18 147 18 129 34 c 1,0,1
483 331 m 1,61,62
 513 310 513 310 547.5 294 c 128,-1,63
 582 278 582 278 615 267 c 128,-1,64
 648 256 648 256 675.5 250 c 128,-1,65
 703 244 703 244 720 244 c 0,66,67
 732 244 732 244 735 246 c 1,68,69
 747 289 747 289 754 342 c 128,-1,70
 761 395 761 395 764.5 449.5 c 128,-1,71
 768 504 768 504 769.5 557.5 c 128,-1,72
 771 611 771 611 771 655 c 0,73,74
 771 675 771 675 770 694.5 c 128,-1,75
 769 714 769 714 766 731 c 1,76,77
 743 760 743 760 700 760 c 1,78,79
 695 756 695 756 680 732.5 c 128,-1,80
 665 709 665 709 645 674.5 c 128,-1,81
 625 640 625 640 601.5 598.5 c 128,-1,82
 578 557 578 557 555.5 516 c 128,-1,83
 533 475 533 475 514 439 c 128,-1,84
 495 403 495 403 483 379 c 1,85,-1
 483 331 l 1,61,62
EndSplineSet
EndChar

StartChar: T
Encoding: 84 84 34
Width: 1127
Flags: W
LayerCount: 2
Fore
SplineSet
224 116 m 1,0,1
 224 144 224 144 227 170.5 c 128,-1,2
 230 197 230 197 238 224 c 128,-1,3
 246 251 246 251 260.5 279.5 c 128,-1,4
 275 308 275 308 300 340 c 1,5,6
 349 320 349 320 399.5 300.5 c 128,-1,7
 450 281 450 281 503 267 c 1,8,9
 510 284 510 284 513 308 c 128,-1,10
 516 332 516 332 516 357 c 0,11,12
 516 415 516 415 512 499 c 128,-1,13
 508 583 508 583 502.5 678 c 128,-1,14
 497 773 497 773 493 872 c 128,-1,15
 489 971 489 971 489 1059 c 0,16,17
 489 1159 489 1159 495 1233 c 1,18,-1
 330 1243 l 1,19,-1
 327 928 l 1,20,21
 289 915 289 915 245.5 909 c 128,-1,22
 202 903 202 903 158 903 c 0,23,24
 149 903 149 903 140 903 c 128,-1,25
 131 903 131 903 122 904 c 1,26,27
 98 923 98 923 71.5 959.5 c 128,-1,28
 45 996 45 996 23 1043 c 128,-1,29
 1 1090 1 1090 -13.5 1143 c 128,-1,30
 -28 1196 -28 1196 -28 1247 c 0,31,32
 -28 1334 -28 1334 -6 1387.5 c 128,-1,33
 16 1441 16 1441 57.5 1470.5 c 128,-1,34
 99 1500 99 1500 158.5 1512 c 128,-1,35
 218 1524 218 1524 292 1529 c 0,36,37
 383 1534 383 1534 490.5 1538 c 128,-1,38
 598 1542 598 1542 711 1544.5 c 128,-1,39
 824 1547 824 1547 937 1548.5 c 128,-1,40
 1050 1550 1050 1550 1152 1550 c 1,41,42
 1183 1511 1183 1511 1196.5 1464.5 c 128,-1,43
 1210 1418 1210 1418 1210 1375 c 0,44,45
 1210 1336 1210 1336 1200 1299.5 c 128,-1,46
 1190 1263 1190 1263 1169 1235 c 128,-1,47
 1148 1207 1148 1207 1115 1190 c 128,-1,48
 1082 1173 1082 1173 1036 1173 c 0,49,50
 1009 1173 1009 1173 976 1177.5 c 128,-1,51
 943 1182 943 1182 901 1193 c 1,52,53
 893 975 893 975 880 755.5 c 128,-1,54
 867 536 867 536 849 325 c 0,55,56
 843 256 843 256 827.5 195 c 128,-1,57
 812 134 812 134 777 86 c 0,58,59
 734 29 734 29 660.5 4.5 c 128,-1,60
 587 -20 587 -20 505 -20 c 0,61,62
 475 -20 475 -20 436 -15 c 128,-1,63
 397 -10 397 -10 357 4.5 c 128,-1,64
 317 19 317 19 281.5 45.5 c 128,-1,65
 246 72 246 72 224 116 c 1,0,1
EndSplineSet
EndChar

StartChar: F
Encoding: 70 70 35
Width: 1097
Flags: W
LayerCount: 2
Fore
SplineSet
13 116 m 1,0,1
 13 144 13 144 16 171 c 128,-1,2
 19 198 19 198 27 225.5 c 128,-1,3
 35 253 35 253 50 282 c 128,-1,4
 65 311 65 311 90 343 c 1,5,6
 108 334 108 334 124.5 326.5 c 128,-1,7
 141 319 141 319 157.5 312 c 128,-1,8
 174 305 174 305 192.5 297.5 c 128,-1,9
 211 290 211 290 235 281 c 1,10,11
 240 293 240 293 241 308.5 c 128,-1,12
 242 324 242 324 242 341 c 0,13,14
 242 352 242 352 242 362.5 c 128,-1,15
 242 373 242 373 241 384 c 0,16,17
 238 448 238 448 231.5 533.5 c 128,-1,18
 225 619 225 619 218.5 712.5 c 128,-1,19
 212 806 212 806 206.5 901.5 c 128,-1,20
 201 997 201 997 201 1080 c 0,21,22
 201 1100 201 1100 201.5 1119.5 c 128,-1,23
 202 1139 202 1139 203 1158 c 2,24,-1
 206 1205 l 1,25,-1
 57 1226 l 1,26,27
 43 1264 43 1264 36.5 1308.5 c 128,-1,28
 30 1353 30 1353 30 1394 c 0,29,30
 30 1411 30 1411 31.5 1429 c 128,-1,31
 33 1447 33 1447 35 1464 c 1,32,33
 100 1489 100 1489 182.5 1505.5 c 128,-1,34
 265 1522 265 1522 354.5 1532 c 128,-1,35
 444 1542 444 1542 536.5 1546 c 128,-1,36
 629 1550 629 1550 713 1550 c 0,37,38
 738 1550 738 1550 774.5 1549.5 c 128,-1,39
 811 1549 811 1549 849 1547 c 128,-1,40
 887 1545 887 1545 923 1542 c 128,-1,41
 959 1539 959 1539 983 1533 c 1,42,-1
 984 1534 l 1,43,44
 1032 1505 1032 1505 1074 1471.5 c 128,-1,45
 1116 1438 1116 1438 1156 1384 c 1,46,47
 1156 1331 1156 1331 1146.5 1266.5 c 128,-1,48
 1137 1202 1137 1202 1121 1140.5 c 128,-1,49
 1105 1079 1105 1079 1085.5 1029 c 128,-1,50
 1066 979 1066 979 1045 955 c 1,51,52
 1022 944 1022 944 994.5 938.5 c 128,-1,53
 967 933 967 933 925 933 c 0,54,55
 902 933 902 933 886 934.5 c 128,-1,56
 870 936 870 936 858 939.5 c 128,-1,57
 846 943 846 943 836 948 c 128,-1,58
 826 953 826 953 815 959 c 1,59,-1
 781 1210 l 1,60,61
 767 1213 767 1213 749 1215 c 128,-1,62
 731 1217 731 1217 701 1217 c 0,63,64
 680 1217 680 1217 656.5 1215.5 c 128,-1,65
 633 1214 633 1214 612 1212 c 1,66,67
 607 1143 607 1143 605.5 1062.5 c 128,-1,68
 604 982 604 982 599 904 c 1,69,-1
 591 730 l 1,70,71
 707 744 707 744 807.5 759.5 c 128,-1,72
 908 775 908 775 998 793 c 1,73,74
 1020 761 1020 761 1029 721 c 128,-1,75
 1038 681 1038 681 1038 641 c 0,76,77
 1038 608 1038 608 1033.5 577.5 c 128,-1,78
 1029 547 1029 547 1021.5 521 c 128,-1,79
 1014 495 1014 495 1005 475.5 c 128,-1,80
 996 456 996 456 987 447 c 1,81,82
 968 444 968 444 947.5 443 c 128,-1,83
 927 442 927 442 905 442 c 0,84,85
 829 442 829 442 743 456.5 c 128,-1,86
 657 471 657 471 578 497 c 1,87,88
 572 408 572 408 563 325 c 0,89,90
 555 256 555 256 540.5 195 c 128,-1,91
 526 134 526 134 491 86 c 0,92,93
 448 29 448 29 383 4.5 c 128,-1,94
 318 -20 318 -20 250 -20 c 0,95,96
 223 -20 223 -20 191 -14 c 128,-1,97
 159 -8 159 -8 127 7 c 128,-1,98
 95 22 95 22 65 48.5 c 128,-1,99
 35 75 35 75 13 116 c 1,0,1
EndSplineSet
EndChar

StartChar: j
Encoding: 106 106 37
Width: 686
Flags: W
LayerCount: 2
Fore
SplineSet
352 1252 m 0,0,1
 301 1252 301 1252 256.5 1269.5 c 128,-1,2
 212 1287 212 1287 180 1314 c 128,-1,3
 148 1341 148 1341 129.5 1373.5 c 128,-1,4
 111 1406 111 1406 111 1435 c 0,5,6
 111 1475 111 1475 123.5 1511 c 128,-1,7
 136 1547 136 1547 164 1574 c 128,-1,8
 192 1601 192 1601 238 1617 c 128,-1,9
 284 1633 284 1633 352 1633 c 0,10,11
 419 1633 419 1633 465.5 1617 c 128,-1,12
 512 1601 512 1601 540 1574 c 128,-1,13
 568 1547 568 1547 580.5 1511 c 128,-1,14
 593 1475 593 1475 593 1435 c 0,15,16
 593 1396 593 1396 572.5 1362.5 c 128,-1,17
 552 1329 552 1329 518 1304.5 c 128,-1,18
 484 1280 484 1280 440.5 1266 c 128,-1,19
 397 1252 397 1252 352 1252 c 0,0,1
229 -145 m 1,20,21
 231 -135 231 -135 231 -124.5 c 128,-1,22
 231 -114 231 -114 231 -100 c 0,23,24
 231 -69 231 -69 228.5 -21 c 128,-1,25
 226 27 226 27 222 107 c 0,26,27
 220 149 220 149 218 206 c 128,-1,28
 216 263 216 263 214 324 c 128,-1,29
 212 385 212 385 210.5 446.5 c 128,-1,30
 209 508 209 508 208 559 c 128,-1,31
 207 610 207 610 206.5 646.5 c 128,-1,32
 206 683 206 683 206 696 c 0,33,34
 206 770 206 770 209 842 c 1,35,-1
 62 863 l 1,36,37
 51 903 51 903 46 949.5 c 128,-1,38
 41 996 41 996 40 1065 c 1,39,40
 55 1083 55 1083 88 1104 c 128,-1,41
 121 1125 121 1125 165 1143 c 128,-1,42
 209 1161 209 1161 261 1173 c 128,-1,43
 313 1185 313 1185 364 1185 c 0,44,45
 432 1185 432 1185 478 1169 c 128,-1,46
 524 1153 524 1153 552.5 1120.5 c 128,-1,47
 581 1088 581 1088 593 1039.5 c 128,-1,48
 605 991 605 991 605 926 c 0,49,50
 605 856 605 856 600.5 781.5 c 128,-1,51
 596 707 596 707 590 624 c 128,-1,52
 584 541 584 541 577.5 446.5 c 128,-1,53
 571 352 571 352 567 242 c 0,54,55
 564 155 564 155 559.5 72 c 128,-1,56
 555 -11 555 -11 547.5 -82 c 128,-1,57
 540 -153 540 -153 527.5 -209 c 128,-1,58
 515 -265 515 -265 495 -298 c 0,59,60
 451 -371 451 -371 385.5 -401.5 c 128,-1,61
 320 -432 320 -432 225 -432 c 0,62,63
 180 -432 180 -432 136 -424 c 128,-1,64
 92 -416 92 -416 54.5 -399.5 c 128,-1,65
 17 -383 17 -383 -12 -357.5 c 128,-1,66
 -41 -332 -41 -332 -57 -297 c 1,67,68
 -57 -269 -57 -269 -53 -239 c 128,-1,69
 -49 -209 -49 -209 -40 -179.5 c 128,-1,70
 -31 -150 -31 -150 -16.5 -123 c 128,-1,71
 -2 -96 -2 -96 19 -75 c 1,72,-1
 229 -145 l 1,20,21
EndSplineSet
EndChar

StartChar: x
Encoding: 120 120 38
Width: 1151
Flags: W
LayerCount: 2
Fore
SplineSet
261 -20 m 0,0,1
 224 -20 224 -20 192 -0.5 c 128,-1,2
 160 19 160 19 134 51 c 128,-1,3
 108 83 108 83 87.5 124 c 128,-1,4
 67 165 67 165 53 208 c 128,-1,5
 39 251 39 251 31.5 292 c 128,-1,6
 24 333 24 333 24 366 c 1,7,8
 48 395 48 395 71 416 c 128,-1,9
 94 437 94 437 119 450.5 c 128,-1,10
 144 464 144 464 173.5 472 c 128,-1,11
 203 480 203 480 239 484 c 1,12,13
 246 478 246 478 258 462.5 c 128,-1,14
 270 447 270 447 282.5 429 c 128,-1,15
 295 411 295 411 307 393.5 c 128,-1,16
 319 376 319 376 327 365 c 1,17,-1
 411 573 l 1,18,-1
 277 775 l 1,19,-1
 157 710 l 1,20,-1
 32 846 l 1,21,22
 43 892 43 892 68.5 950.5 c 128,-1,23
 94 1009 94 1009 136 1060.5 c 128,-1,24
 178 1112 178 1112 236 1147.5 c 128,-1,25
 294 1183 294 1183 370 1183 c 0,26,27
 417 1183 417 1183 453 1163 c 128,-1,28
 489 1143 489 1143 514.5 1110 c 128,-1,29
 540 1077 540 1077 557.5 1034 c 128,-1,30
 575 991 575 991 586 944.5 c 128,-1,31
 597 898 597 898 603 852 c 128,-1,32
 609 806 609 806 612 767 c 1,33,-1
 628 767 l 1,34,35
 650 899 650 899 670.5 987.5 c 128,-1,36
 691 1076 691 1076 726 1118 c 0,37,38
 759 1158 759 1158 794.5 1171 c 128,-1,39
 830 1184 830 1184 863 1184 c 0,40,41
 919 1184 919 1184 972 1150 c 128,-1,42
 1025 1116 1025 1116 1063 1047 c 0,43,44
 1093 991 1093 991 1115 929.5 c 128,-1,45
 1137 868 1137 868 1139 797 c 1,46,47
 1095 743 1095 743 1040 713.5 c 128,-1,48
 985 684 985 684 922 676 c 1,49,50
 915 682 915 682 902.5 697 c 128,-1,51
 890 712 890 712 876 730.5 c 128,-1,52
 862 749 862 749 849.5 768 c 128,-1,53
 837 787 837 787 830 801 c 1,54,-1
 714 577 l 1,55,-1
 871 371 l 1,56,-1
 998 466 l 1,57,-1
 1133 358 l 1,58,59
 1127 296 1127 296 1104.5 229 c 128,-1,60
 1082 162 1082 162 1043 106.5 c 128,-1,61
 1004 51 1004 51 947.5 15.5 c 128,-1,62
 891 -20 891 -20 818 -20 c 0,63,64
 769 -20 769 -20 731 -1.5 c 128,-1,65
 693 17 693 17 664 47.5 c 128,-1,66
 635 78 635 78 614.5 118.5 c 128,-1,67
 594 159 594 159 578.5 203.5 c 128,-1,68
 563 248 563 248 551.5 292.5 c 128,-1,69
 540 337 540 337 531 377 c 1,70,-1
 509 377 l 1,71,72
 503 345 503 345 495.5 303.5 c 128,-1,73
 488 262 488 262 475.5 218 c 128,-1,74
 463 174 463 174 445 131 c 128,-1,75
 427 88 427 88 401.5 54.5 c 128,-1,76
 376 21 376 21 341 0.5 c 128,-1,77
 306 -20 306 -20 261 -20 c 0,0,1
EndSplineSet
EndChar

StartChar: z
Encoding: 122 122 39
Width: 1134
Flags: W
LayerCount: 2
Fore
SplineSet
225 -20 m 1,0,1
 191 -10 191 -10 159 17.5 c 128,-1,2
 127 45 127 45 102.5 83.5 c 128,-1,3
 78 122 78 122 63 169 c 128,-1,4
 48 216 48 216 48 265 c 0,5,6
 48 333 48 333 82 398 c 128,-1,7
 116 463 116 463 198 510 c 1,8,9
 228 510 228 510 267.5 490.5 c 128,-1,10
 307 471 307 471 356 439 c 1,11,-1
 541 789 l 1,12,-1
 140 724 l 1,13,14
 125 741 125 741 109.5 761 c 128,-1,15
 94 781 94 781 81.5 805 c 128,-1,16
 69 829 69 829 61 858 c 128,-1,17
 53 887 53 887 53 923 c 0,18,19
 53 962 53 962 63 1005 c 0,20,21
 84 1093 84 1093 138 1137.5 c 128,-1,22
 192 1182 192 1182 272 1182 c 0,23,24
 306 1182 306 1182 338 1175 c 0,25,26
 392 1164 392 1164 442 1150 c 128,-1,27
 492 1136 492 1136 535.5 1120 c 128,-1,28
 579 1104 579 1104 614.5 1087 c 128,-1,29
 650 1070 650 1070 674 1053 c 1,30,31
 688 1074 688 1074 713.5 1100 c 128,-1,32
 739 1126 739 1126 771.5 1148.5 c 128,-1,33
 804 1171 804 1171 841.5 1186.5 c 128,-1,34
 879 1202 879 1202 917 1204 c 1,35,36
 952 1191 952 1191 979.5 1159.5 c 128,-1,37
 1007 1128 1007 1128 1026 1085 c 128,-1,38
 1045 1042 1045 1042 1055 992.5 c 128,-1,39
 1065 943 1065 943 1065 894 c 0,40,41
 1065 831 1065 831 1048 777 c 1,42,43
 1031 763 1031 763 1006 757 c 128,-1,44
 981 751 981 751 955 751 c 0,45,46
 935 751 935 751 917 754 c 1,47,48
 901 730 901 730 875.5 696.5 c 128,-1,49
 850 663 850 663 819 626 c 128,-1,50
 788 589 788 589 753.5 549.5 c 128,-1,51
 719 510 719 510 686 473.5 c 128,-1,52
 653 437 653 437 623.5 405.5 c 128,-1,53
 594 374 594 374 573 352 c 1,54,-1
 795 327 l 1,55,-1
 895 561 l 1,56,-1
 1043 533 l 1,57,58
 1056 499 1056 499 1064.5 443 c 128,-1,59
 1073 387 1073 387 1073 323 c 0,60,61
 1073 253 1073 253 1059.5 185.5 c 128,-1,62
 1046 118 1046 118 1011 70 c 0,63,64
 973 19 973 19 925.5 -0.5 c 128,-1,65
 878 -20 878 -20 825 -20 c 0,66,67
 779 -20 779 -20 729 -4.5 c 128,-1,68
 679 11 679 11 630.5 35.5 c 128,-1,69
 582 60 582 60 537 90.5 c 128,-1,70
 492 121 492 121 456 150 c 1,71,72
 435 114 435 114 413.5 84 c 128,-1,73
 392 54 392 54 365.5 32 c 128,-1,74
 339 10 339 10 305 -3.5 c 128,-1,75
 271 -17 271 -17 225 -20 c 1,0,1
EndSplineSet
EndChar

StartChar: D
Encoding: 68 68 44
Width: 1335
Flags: W
LayerCount: 2
Fore
SplineSet
188 -20 m 1,0,1
 153 -7 153 -7 125.5 17 c 128,-1,2
 98 41 98 41 79 73 c 128,-1,3
 60 105 60 105 50 143 c 128,-1,4
 40 181 40 181 40 222 c 0,5,6
 40 273 40 273 57 327 c 1,7,8
 86 335 86 335 129.5 343 c 128,-1,9
 173 351 173 351 218 350 c 1,10,11
 208 451 208 451 200 562 c 128,-1,12
 192 673 192 673 185.5 784.5 c 128,-1,13
 179 896 179 896 174.5 1003.5 c 128,-1,14
 170 1111 170 1111 168 1204 c 1,15,-1
 167 1204 l 1,16,-1
 24 1225 l 1,17,18
 10 1263 10 1263 3.5 1308 c 128,-1,19
 -3 1353 -3 1353 -3 1394 c 0,20,21
 -3 1411 -3 1411 -1.5 1429 c 128,-1,22
 0 1447 0 1447 2 1464 c 1,23,24
 42 1482 42 1482 100.5 1495 c 128,-1,25
 159 1508 159 1508 228 1517.5 c 128,-1,26
 297 1527 297 1527 373 1533.5 c 128,-1,27
 449 1540 449 1540 523.5 1543.5 c 128,-1,28
 598 1547 598 1547 667.5 1548.5 c 128,-1,29
 737 1550 737 1550 793 1550 c 0,30,31
 853 1550 853 1550 914.5 1546.5 c 128,-1,32
 976 1543 976 1543 1032 1530 c 128,-1,33
 1088 1517 1088 1517 1137 1492.5 c 128,-1,34
 1186 1468 1186 1468 1222.5 1425 c 128,-1,35
 1259 1382 1259 1382 1279.5 1318.5 c 128,-1,36
 1300 1255 1300 1255 1300 1165 c 0,37,38
 1300 997 1300 997 1259.5 790 c 128,-1,39
 1219 583 1219 583 1150 349 c 0,40,41
 1140 316 1140 316 1128 281 c 128,-1,42
 1116 246 1116 246 1100 211.5 c 128,-1,43
 1084 177 1084 177 1063 145 c 128,-1,44
 1042 113 1042 113 1015 86 c 1,45,46
 996 65 996 65 976.5 48 c 128,-1,47
 957 31 957 31 934.5 18.5 c 128,-1,48
 912 6 912 6 885.5 -0.5 c 128,-1,49
 859 -7 859 -7 826 -7 c 0,50,51
 807 -7 807 -7 786.5 -4.5 c 128,-1,52
 766 -2 766 -2 742 3 c 0,53,54
 688 14 688 14 646.5 29 c 128,-1,55
 605 44 605 44 572 61 c 128,-1,56
 539 78 539 78 512 96 c 128,-1,57
 485 114 485 114 461 131 c 1,58,59
 447 110 447 110 416.5 84 c 128,-1,60
 386 58 386 58 348 35.5 c 128,-1,61
 310 13 310 13 268 -3 c 128,-1,62
 226 -19 226 -19 188 -20 c 1,0,1
558 339 m 1,63,64
 626 339 626 339 686.5 343.5 c 128,-1,65
 747 348 747 348 810 358 c 1,66,67
 822 418 822 418 832 488 c 128,-1,68
 842 558 842 558 849 631.5 c 128,-1,69
 856 705 856 705 862 778.5 c 128,-1,70
 868 852 868 852 872 919.5 c 128,-1,71
 876 987 876 987 879 1044.5 c 128,-1,72
 882 1102 882 1102 885 1144 c 1,73,74
 880 1152 880 1152 841.5 1164.5 c 128,-1,75
 803 1177 803 1177 725 1177 c 0,76,77
 711 1177 711 1177 690.5 1177.5 c 128,-1,78
 670 1178 670 1178 647 1178 c 256,79,80
 624 1178 624 1178 600.5 1177 c 128,-1,81
 577 1176 577 1176 557 1173 c 1,82,83
 557 1150 557 1150 557.5 1122.5 c 128,-1,84
 558 1095 558 1095 559 1052.5 c 128,-1,85
 560 1010 560 1010 560.5 947 c 128,-1,86
 561 884 561 884 561 791 c 0,87,88
 561 707 561 707 560.5 596.5 c 128,-1,89
 560 486 560 486 558 339 c 1,63,64
EndSplineSet
EndChar

StartChar: o
Encoding: 111 111 45
Width: 1190
Flags: W
LayerCount: 2
Fore
SplineSet
583 -20 m 0,0,1
 439 -20 439 -20 341 27.5 c 128,-1,2
 243 75 243 75 182.5 156.5 c 128,-1,3
 122 238 122 238 95 347.5 c 128,-1,4
 68 457 68 457 67 581 c 0,5,6
 66 716 66 716 97 827.5 c 128,-1,7
 128 939 128 939 194 1018.5 c 128,-1,8
 260 1098 260 1098 362 1141.5 c 128,-1,9
 464 1185 464 1185 604 1185 c 0,10,11
 760 1185 760 1185 860.5 1140.5 c 128,-1,12
 961 1096 961 1096 1019.5 1016 c 128,-1,13
 1078 936 1078 936 1100.5 825 c 128,-1,14
 1123 714 1123 714 1123 581 c 0,15,16
 1123 455 1123 455 1090 345 c 128,-1,17
 1057 235 1057 235 989.5 154 c 128,-1,18
 922 73 922 73 820.5 26.5 c 128,-1,19
 719 -20 719 -20 583 -20 c 0,0,1
498 299 m 1,20,21
 504 292 504 292 518 287 c 128,-1,22
 532 282 532 282 549.5 279 c 128,-1,23
 567 276 567 276 586.5 274.5 c 128,-1,24
 606 273 606 273 624 273 c 0,25,26
 647 273 647 273 664 275 c 128,-1,27
 681 277 681 277 686 281 c 1,28,29
 710 323 710 323 721.5 397 c 128,-1,30
 733 471 733 471 733 552 c 0,31,32
 733 628 733 628 723.5 697 c 128,-1,33
 714 766 714 766 695 806 c 1,34,35
 684 819 684 819 653.5 825 c 128,-1,36
 623 831 623 831 590 832 c 0,37,38
 564 833 564 833 541.5 830 c 128,-1,39
 519 827 519 827 509 821 c 1,40,41
 482 774 482 774 470.5 712 c 128,-1,42
 459 650 459 650 459 582 c 0,43,44
 459 505 459 505 470.5 430.5 c 128,-1,45
 482 356 482 356 498 299 c 1,20,21
EndSplineSet
Substitution2: "Single Substitution lookup 8 subtable" ordmasculine
Substitution2: "'aalt' Access All Alternates in Latin lookup 0 subtable" ordmasculine
EndChar

StartChar: d
Encoding: 100 100 46
Width: 1263
Flags: W
LayerCount: 2
Fore
SplineSet
428 -20 m 0,0,1
 357 -20 357 -20 303 5.5 c 128,-1,2
 249 31 249 31 209.5 75 c 128,-1,3
 170 119 170 119 143.5 178 c 128,-1,4
 117 237 117 237 101 303 c 128,-1,5
 85 369 85 369 78.5 439.5 c 128,-1,6
 72 510 72 510 72 577 c 0,7,8
 72 647 72 647 81.5 719.5 c 128,-1,9
 91 792 91 792 112 860 c 128,-1,10
 133 928 133 928 165.5 987 c 128,-1,11
 198 1046 198 1046 243 1090 c 128,-1,12
 288 1134 288 1134 346.5 1159.5 c 128,-1,13
 405 1185 405 1185 479 1185 c 0,14,15
 552 1185 552 1185 626 1162.5 c 128,-1,16
 700 1140 700 1140 777 1086 c 1,17,-1
 793 1096 l 1,18,19
 791 1149 791 1149 784 1204.5 c 128,-1,20
 777 1260 777 1260 764 1308 c 1,21,-1
 561 1321 l 1,22,23
 546 1340 546 1340 538.5 1376 c 128,-1,24
 531 1412 531 1412 531 1448 c 0,25,26
 531 1470 531 1470 533.5 1492.5 c 128,-1,27
 536 1515 536 1515 543 1536 c 1,28,29
 575 1558 575 1558 616 1574.5 c 128,-1,30
 657 1591 657 1591 702 1602 c 128,-1,31
 747 1613 747 1613 794 1618 c 128,-1,32
 841 1623 841 1623 885 1623 c 0,33,34
 965 1623 965 1623 1013.5 1598 c 128,-1,35
 1062 1573 1062 1573 1088.5 1521.5 c 128,-1,36
 1115 1470 1115 1470 1123.5 1391.5 c 128,-1,37
 1132 1313 1132 1313 1132 1206 c 0,38,39
 1132 1110 1132 1110 1128 992 c 128,-1,40
 1124 874 1124 874 1116 753 c 128,-1,41
 1108 632 1108 632 1096.5 519 c 128,-1,42
 1085 406 1085 406 1071 320 c 1,43,-1
 1067 303 l 1,44,-1
 1183 353 l 1,45,46
 1207 327 1207 327 1231.5 283 c 128,-1,47
 1256 239 1256 239 1263 175 c 1,48,49
 1254 157 1254 157 1226.5 124.5 c 128,-1,50
 1199 92 1199 92 1156.5 59.5 c 128,-1,51
 1114 27 1114 27 1060 3.5 c 128,-1,52
 1006 -20 1006 -20 945 -20 c 0,53,54
 902 -20 902 -20 869.5 -6.5 c 128,-1,55
 837 7 837 7 815.5 31 c 128,-1,56
 794 55 794 55 783.5 87 c 128,-1,57
 773 119 773 119 773 156 c 0,58,59
 773 166 773 166 776 189.5 c 128,-1,60
 779 213 779 213 783.5 239 c 128,-1,61
 788 265 788 265 793 288.5 c 128,-1,62
 798 312 798 312 801 324 c 1,63,-1
 771 333 l 1,64,65
 720 153 720 153 636.5 66.5 c 128,-1,66
 553 -20 553 -20 428 -20 c 0,0,1
521 287 m 1,67,68
 533 287 533 287 563 316 c 128,-1,69
 593 345 593 345 629 390 c 128,-1,70
 665 435 665 435 700 489.5 c 128,-1,71
 735 544 735 544 758 595 c 1,72,73
 761 613 761 613 762.5 635 c 128,-1,74
 764 657 764 657 764 679 c 0,75,76
 764 711 764 711 761.5 739 c 128,-1,77
 759 767 759 767 756 778 c 1,78,79
 733 794 733 794 708 804.5 c 128,-1,80
 683 815 683 815 658 821 c 128,-1,81
 633 827 633 827 611 829 c 128,-1,82
 589 831 589 831 573 831 c 0,83,84
 554 831 554 831 540 829.5 c 128,-1,85
 526 828 526 828 517 826 c 1,86,87
 506 816 506 816 498 792.5 c 128,-1,88
 490 769 490 769 484.5 737.5 c 128,-1,89
 479 706 479 706 476 668 c 128,-1,90
 473 630 473 630 473 590 c 0,91,92
 473 548 473 548 476 504.5 c 128,-1,93
 479 461 479 461 485 421 c 128,-1,94
 491 381 491 381 500 346 c 128,-1,95
 509 311 509 311 521 287 c 1,67,68
EndSplineSet
EndChar

StartChar: w
Encoding: 119 119 47
Width: 1716
Flags: W
LayerCount: 2
Fore
SplineSet
327 41 m 1,0,1
 320 86 320 86 306.5 150.5 c 128,-1,2
 293 215 293 215 275 288.5 c 128,-1,3
 257 362 257 362 235.5 438.5 c 128,-1,4
 214 515 214 515 192 583.5 c 128,-1,5
 170 652 170 652 148.5 707.5 c 128,-1,6
 127 763 127 763 108 794 c 1,7,-1
 42 807 l 1,8,9
 27 850 27 850 19.5 901.5 c 128,-1,10
 12 953 12 953 12 1010 c 1,11,12
 24 1044 24 1044 45 1075.5 c 128,-1,13
 66 1107 66 1107 96.5 1132 c 128,-1,14
 127 1157 127 1157 167 1172 c 128,-1,15
 207 1187 207 1187 257 1187 c 0,16,17
 318 1187 318 1187 362 1162.5 c 128,-1,18
 406 1138 406 1138 441 1088 c 0,19,20
 472 1044 472 1044 492.5 988 c 128,-1,21
 513 932 513 932 526 872 c 0,22,23
 538 815 538 815 549.5 744 c 128,-1,24
 561 673 561 673 569 595.5 c 128,-1,25
 577 518 577 518 582 438.5 c 128,-1,26
 587 359 587 359 587 285 c 1,27,-1
 626 284 l 1,28,29
 643 342 643 342 659 401.5 c 128,-1,30
 675 461 675 461 688 528 c 128,-1,31
 701 595 701 595 711.5 672.5 c 128,-1,32
 722 750 722 750 729 845 c 1,33,-1
 611 868 l 1,34,35
 604 894 604 894 599 916.5 c 128,-1,36
 594 939 594 939 590.5 960 c 128,-1,37
 587 981 587 981 585.5 1002 c 128,-1,38
 584 1023 584 1023 584 1046 c 0,39,40
 584 1065 584 1065 606.5 1089.5 c 128,-1,41
 629 1114 629 1114 667.5 1135 c 128,-1,42
 706 1156 706 1156 755.5 1170.5 c 128,-1,43
 805 1185 805 1185 859 1185 c 0,44,45
 1116 1185 1116 1185 1116 926 c 0,46,47
 1116 881 1116 881 1106 834.5 c 128,-1,48
 1096 788 1096 788 1080 744 c 1,49,50
 1107 650 1107 650 1129 536 c 128,-1,51
 1151 422 1151 422 1166 284 c 1,52,-1
 1184 283 l 1,53,54
 1203 327 1203 327 1222.5 393 c 128,-1,55
 1242 459 1242 459 1257.5 535.5 c 128,-1,56
 1273 612 1273 612 1282.5 693 c 128,-1,57
 1292 774 1292 774 1292 848 c 1,58,-1
 1194 867 l 1,59,60
 1187 893 1187 893 1182 915.5 c 128,-1,61
 1177 938 1177 938 1173.5 959 c 128,-1,62
 1170 980 1170 980 1168.5 1001 c 128,-1,63
 1167 1022 1167 1022 1167 1045 c 0,64,65
 1167 1064 1167 1064 1187 1088.5 c 128,-1,66
 1207 1113 1207 1113 1241.5 1134.5 c 128,-1,67
 1276 1156 1276 1156 1322.5 1170.5 c 128,-1,68
 1369 1185 1369 1185 1422 1185 c 0,69,70
 1685 1185 1685 1185 1685 910 c 0,71,72
 1685 819 1685 819 1666.5 726.5 c 128,-1,73
 1648 634 1648 634 1617 544.5 c 128,-1,74
 1586 455 1586 455 1546 372 c 128,-1,75
 1506 289 1506 289 1463 217.5 c 128,-1,76
 1420 146 1420 146 1377.5 88.5 c 128,-1,77
 1335 31 1335 31 1299 -6 c 1,78,79
 1249 -20 1249 -20 1191 -20 c 0,80,81
 1158 -20 1158 -20 1124.5 -15.5 c 128,-1,82
 1091 -11 1091 -11 1059.5 -2 c 128,-1,83
 1028 7 1028 7 1001 20.5 c 128,-1,84
 974 34 974 34 953 52 c 1,85,86
 948 70 948 70 941.5 107 c 128,-1,87
 935 144 935 144 927 191.5 c 128,-1,88
 919 239 919 239 909.5 294 c 128,-1,89
 900 349 900 349 888 403 c 1,90,-1
 868 403 l 1,91,92
 845 303 845 303 807.5 200.5 c 128,-1,93
 770 98 770 98 706 1 c 1,94,95
 680 -9 680 -9 643.5 -14.5 c 128,-1,96
 607 -20 607 -20 565 -20 c 0,97,98
 531 -20 531 -20 496.5 -16.5 c 128,-1,99
 462 -13 462 -13 430 -5.5 c 128,-1,100
 398 2 398 2 371.5 13.5 c 128,-1,101
 345 25 345 25 327 41 c 1,0,1
EndSplineSet
EndChar

StartChar: C
Encoding: 67 67 48
Width: 1220
Flags: W
LayerCount: 2
Fore
SplineSet
669 -20 m 0,0,1
 499 -20 499 -20 382 35.5 c 128,-1,2
 265 91 265 91 192.5 193 c 128,-1,3
 120 295 120 295 88 440 c 128,-1,4
 56 585 56 585 56 764 c 0,5,6
 56 873 56 873 72 974 c 128,-1,7
 88 1075 88 1075 121.5 1162.5 c 128,-1,8
 155 1250 155 1250 206.5 1321.5 c 128,-1,9
 258 1393 258 1393 329.5 1444.5 c 128,-1,10
 401 1496 401 1496 493 1524 c 128,-1,11
 585 1552 585 1552 699 1552 c 0,12,13
 770 1552 770 1552 846 1543.5 c 128,-1,14
 922 1535 922 1535 1016 1513 c 1,15,16
 1064 1484 1064 1484 1106 1450.5 c 128,-1,17
 1148 1417 1148 1417 1188 1363 c 1,18,19
 1188 1328 1188 1328 1183 1278.5 c 128,-1,20
 1178 1229 1178 1229 1169 1174.5 c 128,-1,21
 1160 1120 1160 1120 1148.5 1064.5 c 128,-1,22
 1137 1009 1137 1009 1123.5 960.5 c 128,-1,23
 1110 912 1110 912 1095.5 876 c 128,-1,24
 1081 840 1081 840 1067 824 c 1,25,26
 1056 818 1056 818 1046.5 814 c 128,-1,27
 1037 810 1037 810 1026.5 807.5 c 128,-1,28
 1016 805 1016 805 1002 803.5 c 128,-1,29
 988 802 988 802 967 802 c 0,30,31
 922 802 922 802 880.5 808.5 c 128,-1,32
 839 815 839 815 817 828 c 1,33,-1
 782 1165 l 1,34,35
 737 1178 737 1178 686.5 1181.5 c 128,-1,36
 636 1185 636 1185 585 1185 c 0,37,38
 572 1185 572 1185 559.5 1185 c 128,-1,39
 547 1185 547 1185 535 1184 c 1,40,41
 512 1112 512 1112 500.5 1015 c 128,-1,42
 489 918 489 918 487 813 c 0,43,44
 486 792 486 792 486 770.5 c 128,-1,45
 486 749 486 749 486 728 c 0,46,47
 486 670 486 670 489 615 c 128,-1,48
 492 560 492 560 500 511 c 256,49,50
 508 462 508 462 517.5 425 c 128,-1,51
 527 388 527 388 546.5 363 c 128,-1,52
 566 338 566 338 600 325.5 c 128,-1,53
 634 313 634 313 693 313 c 0,54,55
 748 313 748 313 797 322 c 128,-1,56
 846 331 846 331 891 346.5 c 128,-1,57
 936 362 936 362 979 383 c 128,-1,58
 1022 404 1022 404 1066 429 c 1,59,60
 1085 408 1085 408 1104.5 386 c 128,-1,61
 1124 364 1124 364 1140.5 338.5 c 128,-1,62
 1157 313 1157 313 1169 281.5 c 128,-1,63
 1181 250 1181 250 1186 211 c 1,64,65
 1180 199 1180 199 1160.5 177 c 128,-1,66
 1141 155 1141 155 1109 129.5 c 128,-1,67
 1077 104 1077 104 1033 77.5 c 128,-1,68
 989 51 989 51 933.5 29.5 c 128,-1,69
 878 8 878 8 811.5 -6 c 128,-1,70
 745 -20 745 -20 669 -20 c 0,0,1
EndSplineSet
EndChar

StartChar: B
Encoding: 66 66 49
Width: 1310
Flags: W
LayerCount: 2
Fore
SplineSet
202 1 m 1,0,1
 178 132 178 132 168.5 322 c 128,-1,2
 159 512 159 512 159 740 c 0,3,4
 159 855 159 855 160.5 975.5 c 128,-1,5
 162 1096 162 1096 168 1205 c 1,6,-1
 167 1205 l 1,7,-1
 14 1226 l 1,8,9
 0 1264 0 1264 -6.5 1308.5 c 128,-1,10
 -13 1353 -13 1353 -13 1394 c 0,11,12
 -13 1411 -13 1411 -11.5 1429 c 128,-1,13
 -10 1447 -10 1447 -8 1464 c 1,14,15
 56 1485 56 1485 141.5 1501.5 c 128,-1,16
 227 1518 227 1518 320.5 1528.5 c 128,-1,17
 414 1539 414 1539 509 1544.5 c 128,-1,18
 604 1550 604 1550 687 1550 c 0,19,20
 747 1550 747 1550 809.5 1546.5 c 128,-1,21
 872 1543 872 1543 930 1530.5 c 128,-1,22
 988 1518 988 1518 1039 1494 c 128,-1,23
 1090 1470 1090 1470 1127.5 1428.5 c 128,-1,24
 1165 1387 1165 1387 1187 1325 c 128,-1,25
 1209 1263 1209 1263 1209 1175 c 0,26,27
 1209 1125 1209 1125 1188.5 1067 c 128,-1,28
 1168 1009 1168 1009 1133.5 952.5 c 128,-1,29
 1099 896 1099 896 1055 848 c 128,-1,30
 1011 800 1011 800 965 771 c 1,31,32
 1018 762 1018 762 1070 738 c 128,-1,33
 1122 714 1122 714 1163 674.5 c 128,-1,34
 1204 635 1204 635 1229 579.5 c 128,-1,35
 1254 524 1254 524 1254 452 c 0,36,37
 1254 325 1254 325 1205 236.5 c 128,-1,38
 1156 148 1156 148 1073 93 c 0,39,40
 980 31 980 31 856.5 5.5 c 128,-1,41
 733 -20 733 -20 593 -20 c 0,42,43
 487 -20 487 -20 388.5 -16.5 c 128,-1,44
 290 -13 290 -13 202 1 c 1,0,1
524 787 m 1,45,46
 551 789 551 789 580.5 791.5 c 128,-1,47
 610 794 610 794 638 796 c 128,-1,48
 666 798 666 798 689.5 799.5 c 128,-1,49
 713 801 713 801 728 803 c 1,50,51
 742 843 742 843 754 895 c 128,-1,52
 766 947 766 947 774.5 998.5 c 128,-1,53
 783 1050 783 1050 788 1096.5 c 128,-1,54
 793 1143 793 1143 795 1172 c 1,55,56
 790 1180 790 1180 746.5 1187 c 128,-1,57
 703 1194 703 1194 625 1194 c 0,58,59
 608 1194 608 1194 585 1193 c 128,-1,60
 562 1192 562 1192 548 1191 c 1,61,62
 546 1150 546 1150 544 1101.5 c 128,-1,63
 542 1053 542 1053 539 1000 c 128,-1,64
 536 947 536 947 532 892.5 c 128,-1,65
 528 838 528 838 524 787 c 1,45,46
505 250 m 1,66,67
 530 247 530 247 570.5 244.5 c 128,-1,68
 611 242 611 242 649 242 c 2,69,-1
 678 242 l 2,70,71
 709 242 709 242 742 243 c 128,-1,72
 775 244 775 244 798 249 c 1,73,74
 818 261 818 261 834 287.5 c 128,-1,75
 850 314 850 314 860.5 346.5 c 128,-1,76
 871 379 871 379 876.5 412.5 c 128,-1,77
 882 446 882 446 882 472 c 1,78,79
 877 487 877 487 860 497 c 128,-1,80
 843 507 843 507 818.5 513 c 128,-1,81
 794 519 794 519 764 521.5 c 128,-1,82
 734 524 734 524 703 524 c 256,83,84
 672 524 672 524 642 522.5 c 128,-1,85
 612 521 612 521 586 518.5 c 128,-1,86
 560 516 560 516 540 514 c 128,-1,87
 520 512 520 512 511 512 c 1,88,89
 510 441 510 441 508 375.5 c 128,-1,90
 506 310 506 310 505 250 c 1,66,67
EndSplineSet
EndChar

StartChar: R
Encoding: 82 82 50
Width: 1409
Flags: W
LayerCount: 2
Fore
SplineSet
209 1 m 1,0,1
 197 48 197 48 189 133 c 128,-1,2
 181 218 181 218 176 325 c 128,-1,3
 171 432 171 432 168.5 553 c 128,-1,4
 166 674 166 674 166 794 c 0,5,6
 166 909 166 909 168 1014 c 128,-1,7
 170 1119 170 1119 174 1204 c 1,8,-1
 39 1225 l 1,9,10
 25 1263 25 1263 18.5 1308 c 128,-1,11
 12 1353 12 1353 12 1394 c 0,12,13
 12 1411 12 1411 13.5 1429 c 128,-1,14
 15 1447 15 1447 17 1464 c 1,15,16
 89 1489 89 1489 186.5 1505.5 c 128,-1,17
 284 1522 284 1522 388 1532 c 128,-1,18
 492 1542 492 1542 595.5 1546 c 128,-1,19
 699 1550 699 1550 783 1550 c 0,20,21
 843 1550 843 1550 905.5 1546.5 c 128,-1,22
 968 1543 968 1543 1026 1530 c 128,-1,23
 1084 1517 1084 1517 1135 1492.5 c 128,-1,24
 1186 1468 1186 1468 1223.5 1425 c 128,-1,25
 1261 1382 1261 1382 1283 1318.5 c 128,-1,26
 1305 1255 1305 1255 1305 1165 c 0,27,28
 1305 1094 1305 1094 1282.5 1011 c 128,-1,29
 1260 928 1260 928 1222 846 c 0,30,31
 1187 770 1187 770 1141.5 702 c 128,-1,32
 1096 634 1096 634 1046 584 c 1,33,34
 1055 560 1055 560 1067 530.5 c 128,-1,35
 1079 501 1079 501 1096.5 465.5 c 128,-1,36
 1114 430 1114 430 1139 387.5 c 128,-1,37
 1164 345 1164 345 1201 294 c 1,38,-1
 1341 353 l 1,39,40
 1382 318 1382 318 1404 273.5 c 128,-1,41
 1426 229 1426 229 1432 175 c 1,42,43
 1393 120 1393 120 1341 77 c 0,44,45
 1319 59 1319 59 1292 41.5 c 128,-1,46
 1265 24 1265 24 1233.5 10.5 c 128,-1,47
 1202 -3 1202 -3 1166 -11.5 c 128,-1,48
 1130 -20 1130 -20 1090 -20 c 0,49,50
 1057 -20 1057 -20 1024.5 -15 c 128,-1,51
 992 -10 992 -10 962.5 3.5 c 128,-1,52
 933 17 933 17 907 39.5 c 128,-1,53
 881 62 881 62 861 97 c 0,54,55
 840 133 840 133 825 175.5 c 128,-1,56
 810 218 810 218 799 261.5 c 128,-1,57
 788 305 788 305 781.5 347 c 128,-1,58
 775 389 775 389 771 423 c 1,59,-1
 543 433 l 1,60,61
 550 377 550 377 559 321 c 128,-1,62
 568 265 568 265 576.5 214 c 128,-1,63
 585 163 585 163 592.5 118 c 128,-1,64
 600 73 600 73 605 38 c 1,65,66
 557 9 557 9 492 -5.5 c 128,-1,67
 427 -20 427 -20 360 -20 c 0,68,69
 319 -20 319 -20 281 -14.5 c 128,-1,70
 243 -9 243 -9 209 1 c 1,0,1
788 674 m 1,71,72
 827 785 827 785 847 911 c 128,-1,73
 867 1037 867 1037 881 1172 c 1,74,75
 866 1178 866 1178 846 1182 c 128,-1,76
 826 1186 826 1186 803.5 1189 c 128,-1,77
 781 1192 781 1192 758 1193.5 c 128,-1,78
 735 1195 735 1195 714 1195 c 0,79,80
 675 1195 675 1195 634.5 1194 c 128,-1,81
 594 1193 594 1193 564 1190 c 1,82,83
 562 1138 562 1138 560 1068.5 c 128,-1,84
 558 999 558 999 555 925.5 c 128,-1,85
 552 852 552 852 548 781.5 c 128,-1,86
 544 711 544 711 540 657 c 1,87,-1
 788 674 l 1,71,72
EndSplineSet
EndChar

StartChar: L
Encoding: 76 76 51
Width: 1145
Flags: W
LayerCount: 2
Fore
SplineSet
197 -20 m 1,0,1
 165 -15 165 -15 136.5 8.5 c 128,-1,2
 108 32 108 32 86.5 68.5 c 128,-1,3
 65 105 65 105 52.5 152.5 c 128,-1,4
 40 200 40 200 40 253 c 0,5,6
 40 295 40 295 48.5 339 c 128,-1,7
 57 383 57 383 77 428 c 1,8,9
 94 428 94 428 129.5 422 c 128,-1,10
 165 416 165 416 206 405 c 1,11,12
 204 502 204 502 202.5 609 c 128,-1,13
 201 716 201 716 201 825 c 0,14,15
 201 923 201 923 202.5 1018.5 c 128,-1,16
 204 1114 204 1114 209 1202 c 1,17,-1
 208 1202 l 1,18,19
 208 1205 208 1205 208.5 1208 c 128,-1,20
 209 1211 209 1211 209 1214 c 1,21,-1
 46 1235 l 1,22,23
 39 1264 39 1264 34 1288 c 128,-1,24
 29 1312 29 1312 26 1334.5 c 128,-1,25
 23 1357 23 1357 22 1380 c 128,-1,26
 21 1403 21 1403 22 1430 c 1,27,28
 47 1458 47 1458 90.5 1480.5 c 128,-1,29
 134 1503 134 1503 184.5 1518.5 c 128,-1,30
 235 1534 235 1534 287.5 1542 c 128,-1,31
 340 1550 340 1550 384 1550 c 0,32,33
 495 1550 495 1550 561.5 1506 c 128,-1,34
 628 1462 628 1462 637 1360 c 0,35,36
 640 1321 640 1321 640 1275 c 0,37,38
 640 1183 640 1183 629.5 1069.5 c 128,-1,39
 619 956 619 956 603 836 c 128,-1,40
 587 716 587 716 568 597 c 128,-1,41
 549 478 549 478 533 377 c 1,42,-1
 788 363 l 1,43,-1
 892 695 l 1,44,45
 914 696 914 696 941.5 694 c 128,-1,46
 969 692 969 692 997.5 688 c 128,-1,47
 1026 684 1026 684 1053.5 677.5 c 128,-1,48
 1081 671 1081 671 1104 663 c 1,49,50
 1112 642 1112 642 1120.5 604.5 c 128,-1,51
 1129 567 1129 567 1136.5 519.5 c 128,-1,52
 1144 472 1144 472 1148.5 418.5 c 128,-1,53
 1153 365 1153 365 1153 313 c 0,54,55
 1153 242 1153 242 1142 181 c 128,-1,56
 1131 120 1131 120 1105 84 c 0,57,58
 1086 58 1086 58 1056 39 c 128,-1,59
 1026 20 1026 20 992.5 6.5 c 128,-1,60
 959 -7 959 -7 925.5 -13.5 c 128,-1,61
 892 -20 892 -20 866 -20 c 0,62,63
 820 -20 820 -20 762.5 -4.5 c 128,-1,64
 705 11 705 11 647 35.5 c 128,-1,65
 589 60 589 60 536.5 90.5 c 128,-1,66
 484 121 484 121 448 150 c 1,67,68
 406 77 406 77 347.5 32 c 128,-1,69
 289 -13 289 -13 197 -20 c 1,0,1
EndSplineSet
EndChar

StartChar: J
Encoding: 74 74 52
Width: 1117
Flags: W
LayerCount: 2
Fore
SplineSet
57 -45 m 0,0,1
 45 -7 45 -7 36 42.5 c 128,-1,2
 27 92 27 92 27 148 c 0,3,4
 27 215 27 215 45.5 283.5 c 128,-1,5
 64 352 64 352 112 409 c 1,6,7
 139 423 139 423 177 432 c 128,-1,8
 215 441 215 441 258 441 c 0,9,10
 291 441 291 441 325 435 c 128,-1,11
 359 429 359 429 391 415 c 1,12,13
 392 354 392 354 393 291 c 128,-1,14
 394 228 394 228 400 160 c 128,-1,15
 406 92 406 92 420 17.5 c 128,-1,16
 434 -57 434 -57 460 -140 c 1,17,18
 474 -144 474 -144 490 -145 c 128,-1,19
 506 -146 506 -146 522 -146 c 0,20,21
 545 -146 545 -146 565.5 -144.5 c 128,-1,22
 586 -143 586 -143 599 -145 c 1,23,24
 601 -105 601 -105 601.5 -54 c 128,-1,25
 602 -3 602 -3 602 57 c 0,26,27
 602 180 602 180 599.5 328.5 c 128,-1,28
 597 477 597 477 592 628 c 0,29,30
 589 728 589 728 587 826.5 c 128,-1,31
 585 925 585 925 585 1011 c 0,32,33
 585 1076 585 1076 586.5 1129 c 128,-1,34
 588 1182 588 1182 591 1219 c 1,35,36
 552 1217 552 1217 506 1215 c 128,-1,37
 460 1213 460 1213 416 1209 c 1,38,-1
 413 928 l 1,39,40
 384 921 384 921 358.5 916 c 128,-1,41
 333 911 333 911 308.5 908 c 128,-1,42
 284 905 284 905 259.5 904 c 128,-1,43
 235 903 235 903 208 904 c 1,44,45
 190 919 190 919 169 955 c 128,-1,46
 148 991 148 991 130 1039 c 128,-1,47
 112 1087 112 1087 100 1141.5 c 128,-1,48
 88 1196 88 1196 88 1247 c 0,49,50
 88 1337 88 1337 120 1397 c 128,-1,51
 152 1457 152 1457 218 1484 c 1,52,53
 255 1504 255 1504 302.5 1513 c 128,-1,54
 350 1522 350 1522 408 1529 c 0,55,56
 480 1538 480 1538 568 1538 c 0,57,58
 664 1538 664 1538 764 1529 c 128,-1,59
 864 1520 864 1520 949 1506 c 1,60,-1
 1002 1444 l 1,61,62
 1001 1410 1001 1410 999.5 1363 c 128,-1,63
 998 1316 998 1316 996.5 1264 c 128,-1,64
 995 1212 995 1212 993 1158.5 c 128,-1,65
 991 1105 991 1105 989.5 1056.5 c 128,-1,66
 988 1008 988 1008 986.5 968 c 128,-1,67
 985 928 985 928 984 904 c 0,68,69
 982 854 982 854 979 773.5 c 128,-1,70
 976 693 976 693 973 597.5 c 128,-1,71
 970 502 970 502 966 399.5 c 128,-1,72
 962 297 962 297 958 203.5 c 128,-1,73
 954 110 954 110 949.5 33.5 c 128,-1,74
 945 -43 945 -43 940 -87 c 0,75,76
 932 -156 932 -156 917.5 -217 c 128,-1,77
 903 -278 903 -278 868 -326 c 0,78,79
 825 -383 825 -383 754 -407.5 c 128,-1,80
 683 -432 683 -432 601 -432 c 0,81,82
 495 -432 495 -432 410.5 -413 c 128,-1,83
 326 -394 326 -394 259.5 -349.5 c 128,-1,84
 193 -305 193 -305 143 -230.5 c 128,-1,85
 93 -156 93 -156 57 -45 c 0,0,1
EndSplineSet
EndChar

StartChar: bullet
Encoding: 8226 8226 53
Width: 802
Flags: W
LayerCount: 2
Fore
SplineSet
401 303 m 256,0,1
 341 303 341 303 284 327 c 128,-1,2
 227 351 227 351 182.5 394 c 128,-1,3
 138 437 138 437 111 495 c 128,-1,4
 84 553 84 553 84 622 c 0,5,6
 84 675 84 675 100 728 c 128,-1,7
 116 781 116 781 153.5 823 c 128,-1,8
 191 865 191 865 251.5 891.5 c 128,-1,9
 312 918 312 918 401 918 c 256,10,11
 490 918 490 918 550.5 891.5 c 128,-1,12
 611 865 611 865 648.5 823 c 128,-1,13
 686 781 686 781 702 728 c 128,-1,14
 718 675 718 675 718 622 c 0,15,16
 718 553 718 553 691 495 c 128,-1,17
 664 437 664 437 619.5 394 c 128,-1,18
 575 351 575 351 518 327 c 128,-1,19
 461 303 461 303 401 303 c 256,0,1
EndSplineSet
EndChar

StartChar: P
Encoding: 80 80 54
Width: 1300
Flags: W
LayerCount: 2
Fore
SplineSet
193 211 m 1,0,1
 184 322 184 322 180 457.5 c 128,-1,2
 176 593 176 593 176 739 c 1,3,-1
 175 740 l 1,4,5
 175 855 175 855 176.5 975 c 128,-1,6
 178 1095 178 1095 184 1204 c 1,7,-1
 183 1204 l 1,8,-1
 40 1225 l 1,9,10
 26 1263 26 1263 19.5 1308 c 128,-1,11
 13 1353 13 1353 13 1394 c 0,12,13
 13 1411 13 1411 14.5 1429 c 128,-1,14
 16 1447 16 1447 18 1464 c 1,15,16
 63 1480 63 1480 121 1492.5 c 128,-1,17
 179 1505 179 1505 244 1514.5 c 128,-1,18
 309 1524 309 1524 378.5 1531 c 128,-1,19
 448 1538 448 1538 517 1542 c 128,-1,20
 586 1546 586 1546 651.5 1548 c 128,-1,21
 717 1550 717 1550 773 1550 c 0,22,23
 833 1550 833 1550 895.5 1546.5 c 128,-1,24
 958 1543 958 1543 1016 1530 c 128,-1,25
 1074 1517 1074 1517 1125 1492.5 c 128,-1,26
 1176 1468 1176 1468 1213.5 1425 c 128,-1,27
 1251 1382 1251 1382 1273 1318.5 c 128,-1,28
 1295 1255 1295 1255 1295 1165 c 0,29,30
 1295 1121 1295 1121 1285 1069.5 c 128,-1,31
 1275 1018 1275 1018 1258 964 c 128,-1,32
 1241 910 1241 910 1218 855.5 c 128,-1,33
 1195 801 1195 801 1169 751 c 128,-1,34
 1143 701 1143 701 1115 657.5 c 128,-1,35
 1087 614 1087 614 1060 582 c 0,36,37
 1024 538 1024 538 979 507.5 c 128,-1,38
 934 477 934 477 880 468 c 0,39,40
 823 459 823 459 770 454 c 128,-1,41
 717 449 717 449 671.5 446 c 128,-1,42
 626 443 626 443 590.5 442.5 c 128,-1,43
 555 442 555 442 533 442 c 1,44,45
 531 403 531 403 530 366 c 128,-1,46
 529 329 529 329 530 294 c 1,47,-1
 679 304 l 1,48,49
 703 265 703 265 715.5 220 c 128,-1,50
 728 175 728 175 730 126 c 1,51,52
 693 85 693 85 644 53 c 0,53,54
 602 26 602 26 540 3.5 c 128,-1,55
 478 -19 478 -19 398 -19 c 0,56,57
 356 -19 356 -19 318.5 -8.5 c 128,-1,58
 281 2 281 2 253.5 28 c 128,-1,59
 226 54 226 54 209.5 98.5 c 128,-1,60
 193 143 193 143 193 211 c 1,0,1
808 723 m 1,61,62
 821 777 821 777 832 836.5 c 128,-1,63
 843 896 843 896 851 955 c 128,-1,64
 859 1014 859 1014 864.5 1069.5 c 128,-1,65
 870 1125 870 1125 871 1172 c 1,66,67
 866 1180 866 1180 822.5 1187.5 c 128,-1,68
 779 1195 779 1195 701 1195 c 0,69,70
 672 1195 672 1195 637.5 1194 c 128,-1,71
 603 1193 603 1193 574 1191 c 1,72,73
 572 1139 572 1139 570 1077 c 128,-1,74
 568 1015 568 1015 565 950.5 c 128,-1,75
 562 886 562 886 558 823 c 128,-1,76
 554 760 554 760 550 706 c 1,77,-1
 808 723 l 1,61,62
EndSplineSet
EndChar

StartChar: K
Encoding: 75 75 55
Width: 1313
Flags: W
LayerCount: 2
Fore
SplineSet
136 10 m 1,0,1
 136 33 136 33 136.5 56.5 c 128,-1,2
 137 80 137 80 137 103 c 0,3,4
 137 299 137 299 129.5 493 c 128,-1,5
 122 687 122 687 122 884 c 0,6,7
 122 967 122 967 124 1049 c 128,-1,8
 126 1131 126 1131 132 1214 c 1,9,-1
 -1 1235 l 1,10,11
 -7 1261 -7 1261 -11.5 1282.5 c 128,-1,12
 -16 1304 -16 1304 -19 1324.5 c 128,-1,13
 -22 1345 -22 1345 -23.5 1364.5 c 128,-1,14
 -25 1384 -25 1384 -25 1407 c 2,15,-1
 -25 1430 l 1,16,17
 -10 1448 -10 1448 19.5 1469 c 128,-1,18
 49 1490 49 1490 89.5 1508 c 128,-1,19
 130 1526 130 1526 178.5 1538 c 128,-1,20
 227 1550 227 1550 278 1550 c 0,21,22
 333 1550 333 1550 380.5 1539 c 128,-1,23
 428 1528 428 1528 462.5 1503.5 c 128,-1,24
 497 1479 497 1479 516.5 1440.5 c 128,-1,25
 536 1402 536 1402 536 1348 c 0,26,27
 536 1287 536 1287 534 1204.5 c 128,-1,28
 532 1122 532 1122 529 1026.5 c 128,-1,29
 526 931 526 931 521.5 827 c 128,-1,30
 517 723 517 723 512 620 c 1,31,-1
 574 634 l 1,32,33
 594 670 594 670 617.5 717.5 c 128,-1,34
 641 765 641 765 665.5 818 c 128,-1,35
 690 871 690 871 713 926.5 c 128,-1,36
 736 982 736 982 756.5 1035 c 128,-1,37
 777 1088 777 1088 792.5 1134.5 c 128,-1,38
 808 1181 808 1181 816 1216 c 1,39,-1
 692 1237 l 1,40,41
 686 1263 686 1263 681.5 1284.5 c 128,-1,42
 677 1306 677 1306 674 1326.5 c 128,-1,43
 671 1347 671 1347 669.5 1366.5 c 128,-1,44
 668 1386 668 1386 668 1409 c 2,45,-1
 668 1432 l 1,46,47
 683 1450 683 1450 715.5 1471 c 128,-1,48
 748 1492 748 1492 792 1510 c 128,-1,49
 836 1528 836 1528 887.5 1540 c 128,-1,50
 939 1552 939 1552 990 1552 c 256,51,52
 1041 1552 1041 1552 1087.5 1539 c 128,-1,53
 1134 1526 1134 1526 1169.5 1499 c 128,-1,54
 1205 1472 1205 1472 1225.5 1430 c 128,-1,55
 1246 1388 1246 1388 1246 1331 c 0,56,57
 1246 1261 1246 1261 1211.5 1176 c 128,-1,58
 1177 1091 1177 1091 1124 1003 c 128,-1,59
 1071 915 1071 915 1007 829.5 c 128,-1,60
 943 744 943 744 884 673 c 1,61,62
 908 623 908 623 935 574 c 128,-1,63
 962 525 962 525 988.5 482 c 128,-1,64
 1015 439 1015 439 1040.5 403.5 c 128,-1,65
 1066 368 1066 368 1088 345 c 1,66,67
 1118 360 1118 360 1145 388.5 c 128,-1,68
 1172 417 1172 417 1202 449 c 1,69,-1
 1325 356 l 1,70,-1
 1325 334 l 2,71,72
 1325 259 1325 259 1306.5 194.5 c 128,-1,73
 1288 130 1288 130 1249 82.5 c 128,-1,74
 1210 35 1210 35 1149.5 8 c 128,-1,75
 1089 -19 1089 -19 1005 -19 c 0,76,77
 945 -19 945 -19 891 -2 c 0,78,79
 831 16 831 16 786.5 61.5 c 128,-1,80
 742 107 742 107 710.5 167.5 c 128,-1,81
 679 228 679 228 659.5 297 c 128,-1,82
 640 366 640 366 632 431 c 1,83,84
 600 423 600 423 567.5 419.5 c 128,-1,85
 535 416 535 416 501 414 c 1,86,87
 495 295 495 295 489 193.5 c 128,-1,88
 483 92 483 92 478 23 c 1,89,90
 436 0 436 0 390.5 -10.5 c 128,-1,91
 345 -21 345 -21 298 -21 c 0,92,93
 212 -21 212 -21 136 10 c 1,0,1
EndSplineSet
EndChar

StartChar: v
Encoding: 118 118 57
Width: 1180
Flags: W
LayerCount: 2
Fore
SplineSet
371 40 m 1,0,1
 357 87 357 87 338.5 151 c 128,-1,2
 320 215 320 215 298 286 c 128,-1,3
 276 357 276 357 252.5 431.5 c 128,-1,4
 229 506 229 506 205 574 c 128,-1,5
 181 642 181 642 158 699 c 128,-1,6
 135 756 135 756 114 793 c 1,7,-1
 41 807 l 1,8,9
 26 850 26 850 17 905.5 c 128,-1,10
 8 961 8 961 8 1015 c 1,11,12
 20 1049 20 1049 41.5 1080 c 128,-1,13
 63 1111 63 1111 94 1135 c 128,-1,14
 125 1159 125 1159 166 1173 c 128,-1,15
 207 1187 207 1187 257 1187 c 0,16,17
 303 1187 303 1187 339.5 1172 c 128,-1,18
 376 1157 376 1157 405 1128 c 128,-1,19
 434 1099 434 1099 457 1055 c 128,-1,20
 480 1011 480 1011 501 954 c 0,21,22
 524 889 524 889 542.5 812.5 c 128,-1,23
 561 736 561 736 575 650.5 c 128,-1,24
 589 565 589 565 598.5 473 c 128,-1,25
 608 381 608 381 613 285 c 1,26,-1
 642 284 l 1,27,28
 664 328 664 328 683.5 393.5 c 128,-1,29
 703 459 703 459 717.5 535 c 128,-1,30
 732 611 732 611 741 691.5 c 128,-1,31
 750 772 750 772 751 846 c 1,32,-1
 626 868 l 1,33,34
 619 893 619 893 614.5 914.5 c 128,-1,35
 610 936 610 936 607.5 956 c 128,-1,36
 605 976 605 976 604 995.5 c 128,-1,37
 603 1015 603 1015 603 1037 c 0,38,39
 603 1044 603 1044 603.5 1050.5 c 128,-1,40
 604 1057 604 1057 604 1065 c 1,41,42
 617 1083 617 1083 643.5 1104 c 128,-1,43
 670 1125 670 1125 707 1143 c 128,-1,44
 744 1161 744 1161 790 1173 c 128,-1,45
 836 1185 836 1185 887 1185 c 0,46,47
 1145 1185 1145 1185 1145 926 c 0,48,49
 1145 812 1145 812 1114.5 683.5 c 128,-1,50
 1084 555 1084 555 1025.5 430 c 128,-1,51
 967 305 967 305 882 193 c 128,-1,52
 797 81 797 81 688 0 c 1,53,54
 662 -11 662 -11 630.5 -15.5 c 128,-1,55
 599 -20 599 -20 555 -20 c 0,56,57
 531 -20 531 -20 504 -14.5 c 128,-1,58
 477 -9 477 -9 451.5 0 c 128,-1,59
 426 9 426 9 404.5 19.5 c 128,-1,60
 383 30 383 30 371 40 c 1,0,1
EndSplineSet
EndChar

StartChar: G
Encoding: 71 71 58
Width: 1289
Flags: W
LayerCount: 2
Fore
SplineSet
489 -20 m 0,0,1
 391 -20 391 -20 312.5 35.5 c 128,-1,2
 234 91 234 91 179.5 193 c 128,-1,3
 125 295 125 295 96 440 c 128,-1,4
 67 585 67 585 67 764 c 0,5,6
 67 873 67 873 82.5 973.5 c 128,-1,7
 98 1074 98 1074 130.5 1161.5 c 128,-1,8
 163 1249 163 1249 214 1320.5 c 128,-1,9
 265 1392 265 1392 336 1443 c 128,-1,10
 407 1494 407 1494 498.5 1522 c 128,-1,11
 590 1550 590 1550 704 1550 c 0,12,13
 775 1550 775 1550 866 1541.5 c 128,-1,14
 957 1533 957 1533 1051 1511 c 1,15,16
 1099 1482 1099 1482 1141 1448.5 c 128,-1,17
 1183 1415 1183 1415 1223 1361 c 1,18,19
 1223 1326 1223 1326 1218 1277 c 128,-1,20
 1213 1228 1213 1228 1204 1173.5 c 128,-1,21
 1195 1119 1195 1119 1183.5 1063.5 c 128,-1,22
 1172 1008 1172 1008 1158.5 960 c 128,-1,23
 1145 912 1145 912 1130.5 876 c 128,-1,24
 1116 840 1116 840 1102 824 c 1,25,26
 1091 818 1091 818 1081.5 814 c 128,-1,27
 1072 810 1072 810 1061.5 807.5 c 128,-1,28
 1051 805 1051 805 1037 803.5 c 128,-1,29
 1023 802 1023 802 1002 802 c 0,30,31
 957 802 957 802 915.5 808.5 c 128,-1,32
 874 815 874 815 852 828 c 1,33,-1
 817 1165 l 1,34,35
 794 1171 794 1171 765.5 1175 c 128,-1,36
 737 1179 737 1179 706.5 1181.5 c 128,-1,37
 676 1184 676 1184 645.5 1184.5 c 128,-1,38
 615 1185 615 1185 590 1185 c 0,39,40
 577 1185 577 1185 564.5 1185 c 128,-1,41
 552 1185 552 1185 540 1184 c 1,42,43
 517 1112 517 1112 505.5 1015 c 128,-1,44
 494 918 494 918 492 813 c 1,45,-1
 492 774 l 2,46,47
 492 704 492 704 496.5 637 c 128,-1,48
 501 570 501 570 511 511 c 0,49,50
 519 462 519 462 526.5 425 c 128,-1,51
 534 388 534 388 543.5 363 c 128,-1,52
 553 338 553 338 565 325.5 c 128,-1,53
 577 313 577 313 594 313 c 0,54,55
 636 313 636 313 672.5 329 c 128,-1,56
 709 345 709 345 739.5 372 c 128,-1,57
 770 399 770 399 795 433.5 c 128,-1,58
 820 468 820 468 839 505 c 1,59,-1
 812 648 l 1,60,61
 873 668 873 668 938.5 680 c 128,-1,62
 1004 692 1004 692 1071 693 c 0,63,64
 1095 693 1095 693 1121 691 c 128,-1,65
 1147 689 1147 689 1170.5 682 c 128,-1,66
 1194 675 1194 675 1213 661 c 128,-1,67
 1232 647 1232 647 1241 624 c 1,68,69
 1235 577 1235 577 1225.5 517 c 128,-1,70
 1216 457 1216 457 1204.5 393 c 128,-1,71
 1193 329 1193 329 1180.5 265.5 c 128,-1,72
 1168 202 1168 202 1156.5 148.5 c 128,-1,73
 1145 95 1145 95 1134.5 55.5 c 128,-1,74
 1124 16 1124 16 1117 0 c 1,75,76
 1083 -11 1083 -11 1052.5 -15.5 c 128,-1,77
 1022 -20 1022 -20 993 -20 c 256,78,79
 964 -20 964 -20 929.5 -15.5 c 128,-1,80
 895 -11 895 -11 867 0 c 1,81,82
 867 42 867 42 864 102 c 128,-1,83
 861 162 861 162 858 231 c 1,84,-1
 831 239 l 1,85,86
 800 187 800 187 763 140 c 128,-1,87
 726 93 726 93 683 57.5 c 128,-1,88
 640 22 640 22 591.5 1 c 128,-1,89
 543 -20 543 -20 489 -20 c 0,0,1
EndSplineSet
EndChar

StartChar: M
Encoding: 77 77 59
Width: 1925
Flags: W
LayerCount: 2
Fore
SplineSet
21 138 m 1,0,1
 20 146 20 146 19.5 153.5 c 128,-1,2
 19 161 19 161 19 169 c 0,3,4
 19 192 19 192 22.5 216 c 128,-1,5
 26 240 26 240 32 263 c 128,-1,6
 38 286 38 286 47 307 c 128,-1,7
 56 328 56 328 67 344 c 1,8,-1
 163 326 l 1,9,-1
 271 1262 l 1,10,-1
 117 1284 l 1,11,12
 98 1334 98 1334 98 1386 c 256,13,14
 98 1438 98 1438 119 1494 c 1,15,16
 148 1508 148 1508 200 1518.5 c 128,-1,17
 252 1529 252 1529 311 1536 c 128,-1,18
 370 1543 370 1543 428.5 1546.5 c 128,-1,19
 487 1550 487 1550 529 1550 c 0,20,21
 590 1550 590 1550 648.5 1549 c 128,-1,22
 707 1548 707 1548 758 1546 c 1,23,-1
 793 1530 l 1,24,25
 806 1493 806 1493 824.5 1426.5 c 128,-1,26
 843 1360 843 1360 869.5 1255 c 128,-1,27
 896 1150 896 1150 932.5 1001.5 c 128,-1,28
 969 853 969 853 1018 653 c 1,29,30
 1040 734 1040 734 1062.5 825 c 128,-1,31
 1085 916 1085 916 1104 1000 c 128,-1,32
 1123 1084 1123 1084 1138 1151.5 c 128,-1,33
 1153 1219 1153 1219 1161 1254 c 1,34,-1
 1166 1254 l 1,35,-1
 1000 1282 l 1,36,37
 987 1312 987 1312 981.5 1342 c 128,-1,38
 976 1372 976 1372 976 1402 c 0,39,40
 976 1425 976 1425 979 1447.5 c 128,-1,41
 982 1470 982 1470 987 1493 c 1,42,43
 1089 1525 1089 1525 1195 1537.5 c 128,-1,44
 1301 1550 1301 1550 1420 1550 c 2,45,-1
 1453 1550 l 2,46,47
 1491 1550 1491 1550 1529 1549 c 128,-1,48
 1567 1548 1567 1548 1604 1546 c 1,49,-1
 1639 1530 l 1,50,51
 1661 1450 1661 1450 1682.5 1357 c 128,-1,52
 1704 1264 1704 1264 1724.5 1163.5 c 128,-1,53
 1745 1063 1745 1063 1763.5 958.5 c 128,-1,54
 1782 854 1782 854 1798 750.5 c 128,-1,55
 1814 647 1814 647 1827 548 c 128,-1,56
 1840 449 1840 449 1850 361 c 0,57,58
 1854 326 1854 326 1858 287.5 c 128,-1,59
 1862 249 1862 249 1862 211 c 0,60,61
 1862 165 1862 165 1853 122 c 0,62,63
 1846 93 1846 93 1833.5 65 c 128,-1,64
 1821 37 1821 37 1799 13 c 1,65,66
 1764 -1 1764 -1 1723 -10 c 128,-1,67
 1682 -19 1682 -19 1625 -20 c 0,68,69
 1602 -20 1602 -20 1573.5 -17.5 c 128,-1,70
 1545 -15 1545 -15 1518 -9 c 128,-1,71
 1491 -3 1491 -3 1469 6 c 128,-1,72
 1447 15 1447 15 1437 29 c 1,73,-1
 1473 258 l 1,74,-1
 1413 887 l 1,75,-1
 1418 1222 l 1,76,-1
 1387 1222 l 1,77,-1
 1338 879 l 1,78,79
 1318 807 1318 807 1296.5 730.5 c 128,-1,80
 1275 654 1275 654 1251.5 580.5 c 128,-1,81
 1228 507 1228 507 1204.5 439.5 c 128,-1,82
 1181 372 1181 372 1159 317 c 1,83,84
 1171 292 1171 292 1183.5 262.5 c 128,-1,85
 1196 233 1196 233 1206 200.5 c 128,-1,86
 1216 168 1216 168 1223 133 c 128,-1,87
 1230 98 1230 98 1233 64 c 1,88,89
 1211 43 1211 43 1180.5 27 c 128,-1,90
 1150 11 1150 11 1114 0.5 c 128,-1,91
 1078 -10 1078 -10 1038.5 -15 c 128,-1,92
 999 -20 999 -20 960 -20 c 256,93,94
 921 -20 921 -20 883 -14 c 128,-1,95
 845 -8 845 -8 813 3 c 128,-1,96
 781 14 781 14 755 30 c 128,-1,97
 729 46 729 46 714 67 c 1,98,99
 717 128 717 128 731 175.5 c 128,-1,100
 745 223 745 223 764 262 c 1,101,-1
 586 905 l 1,102,-1
 512 1208 l 1,103,-1
 478 1203 l 1,104,-1
 527 864 l 1,105,106
 525 775 525 775 521.5 682 c 128,-1,107
 518 589 518 589 513.5 502.5 c 128,-1,108
 509 416 509 416 504 341.5 c 128,-1,109
 499 267 499 267 494 214 c 1,110,-1
 495 214 l 1,111,112
 489 166 489 166 467.5 126.5 c 128,-1,113
 446 87 446 87 413.5 59 c 128,-1,114
 381 31 381 31 339.5 15.5 c 128,-1,115
 298 0 298 0 252 0 c 0,116,117
 205 0 205 0 169 11 c 128,-1,118
 133 22 133 22 105 40.5 c 128,-1,119
 77 59 77 59 56.5 84 c 128,-1,120
 36 109 36 109 21 138 c 1,0,1
EndSplineSet
EndChar

StartChar: V
Encoding: 86 86 60
Width: 1281
Flags: W
LayerCount: 2
Fore
SplineSet
375 226 m 1,0,1
 360 276 360 276 333 359.5 c 128,-1,2
 306 443 306 443 273.5 540.5 c 128,-1,3
 241 638 241 638 205 740.5 c 128,-1,4
 169 843 169 843 135.5 932 c 128,-1,5
 102 1021 102 1021 73.5 1087 c 128,-1,6
 45 1153 45 1153 27 1177 c 1,7,-1
 -60 1184 l 1,8,9
 -77 1236 -77 1236 -87 1282.5 c 128,-1,10
 -97 1329 -97 1329 -97 1371 c 1,11,12
 -63 1456 -63 1456 3.5 1501.5 c 128,-1,13
 70 1547 70 1547 167 1549 c 0,14,15
 201 1550 201 1550 235 1544 c 128,-1,16
 269 1538 269 1538 300.5 1522 c 128,-1,17
 332 1506 332 1506 359.5 1480 c 128,-1,18
 387 1454 387 1454 410 1415 c 0,19,20
 437 1369 437 1369 458.5 1311 c 128,-1,21
 480 1253 480 1253 498 1187 c 128,-1,22
 516 1121 516 1121 531.5 1048 c 128,-1,23
 547 975 547 975 561 900 c 0,24,25
 589 755 589 755 611 609.5 c 128,-1,26
 633 464 633 464 641 337 c 1,27,-1
 664 341 l 1,28,29
 677 370 677 370 694.5 432.5 c 128,-1,30
 712 495 712 495 730.5 576 c 128,-1,31
 749 657 749 657 766.5 748 c 128,-1,32
 784 839 784 839 798 926.5 c 128,-1,33
 812 1014 812 1014 820 1090 c 128,-1,34
 828 1166 828 1166 828 1215 c 1,35,-1
 696 1234 l 1,36,37
 689 1259 689 1259 684 1280.5 c 128,-1,38
 679 1302 679 1302 676 1322 c 128,-1,39
 673 1342 673 1342 671 1361.5 c 128,-1,40
 669 1381 669 1381 669 1403 c 0,41,42
 669 1410 669 1410 669.5 1416.5 c 128,-1,43
 670 1423 670 1423 669 1431 c 1,44,45
 684 1449 684 1449 717 1470 c 128,-1,46
 750 1491 750 1491 794 1509 c 128,-1,47
 838 1527 838 1527 890 1539 c 128,-1,48
 942 1551 942 1551 996 1551 c 0,49,50
 1131 1551 1131 1551 1195 1487 c 128,-1,51
 1259 1423 1259 1423 1261 1292 c 0,52,53
 1263 1195 1263 1195 1237 1059.5 c 128,-1,54
 1211 924 1211 924 1162 776 c 0,55,56
 1146 728 1146 728 1120 663.5 c 128,-1,57
 1094 599 1094 599 1062 527.5 c 128,-1,58
 1030 456 1030 456 994 381.5 c 128,-1,59
 958 307 958 307 920 239 c 128,-1,60
 882 171 882 171 845 113.5 c 128,-1,61
 808 56 808 56 775 18 c 1,62,63
 744 -2 744 -2 702.5 -11 c 128,-1,64
 661 -20 661 -20 623 -20 c 0,65,66
 580 -20 580 -20 535.5 -11 c 128,-1,67
 491 -2 491 -2 452 14 c 128,-1,68
 413 30 413 30 382.5 52.5 c 128,-1,69
 352 75 352 75 338 103 c 1,70,-1
 375 226 l 1,0,1
EndSplineSet
EndChar

StartChar: W
Encoding: 87 87 61
Width: 1968
Flags: W
LayerCount: 2
Fore
SplineSet
333 243 m 1,0,1
 322 284 322 284 308 342.5 c 128,-1,2
 294 401 294 401 277.5 469 c 128,-1,3
 261 537 261 537 242.5 611 c 128,-1,4
 224 685 224 685 205 757.5 c 128,-1,5
 186 830 186 830 167.5 898 c 128,-1,6
 149 966 149 966 132 1022.5 c 128,-1,7
 115 1079 115 1079 99.5 1119 c 128,-1,8
 84 1159 84 1159 72 1177 c 1,9,-1
 -28 1184 l 1,10,11
 -45 1227 -45 1227 -54.5 1273.5 c 128,-1,12
 -64 1320 -64 1320 -69 1371 c 1,13,14
 -56 1414 -56 1414 -24.5 1447.5 c 128,-1,15
 7 1481 7 1481 48 1503.5 c 128,-1,16
 89 1526 89 1526 137 1537.5 c 128,-1,17
 185 1549 185 1549 232 1549 c 0,18,19
 295 1549 295 1549 352 1519.5 c 128,-1,20
 409 1490 409 1490 450 1415 c 0,21,22
 485 1349 485 1349 508 1259.5 c 128,-1,23
 531 1170 531 1170 549 1066 c 0,24,25
 571 932 571 932 584 817.5 c 128,-1,26
 597 703 597 703 603.5 607 c 128,-1,27
 610 511 610 511 613.5 432 c 128,-1,28
 617 353 617 353 620 290 c 1,29,-1
 635 290 l 1,30,31
 648 319 648 319 663 385.5 c 128,-1,32
 678 452 678 452 692 538 c 128,-1,33
 706 624 706 624 719 722.5 c 128,-1,34
 732 821 732 821 742.5 914 c 128,-1,35
 753 1007 753 1007 759 1086.5 c 128,-1,36
 765 1166 765 1166 766 1215 c 1,37,-1
 640 1234 l 1,38,39
 632 1263 632 1263 628 1287.5 c 128,-1,40
 624 1312 624 1312 621.5 1335 c 128,-1,41
 619 1358 619 1358 618.5 1381.5 c 128,-1,42
 618 1405 618 1405 618 1431 c 1,43,44
 633 1449 633 1449 664.5 1470 c 128,-1,45
 696 1491 696 1491 738 1509 c 128,-1,46
 780 1527 780 1527 830 1539 c 128,-1,47
 880 1551 880 1551 931 1551 c 0,48,49
 994 1551 994 1551 1049.5 1535.5 c 128,-1,50
 1105 1520 1105 1520 1147 1488.5 c 128,-1,51
 1189 1457 1189 1457 1214 1410.5 c 128,-1,52
 1239 1364 1239 1364 1240 1301 c 1,53,-1
 1240 1147 l 1,54,55
 1264 1053 1264 1053 1284.5 943 c 128,-1,56
 1305 833 1305 833 1321 720 c 128,-1,57
 1337 607 1337 607 1349 496.5 c 128,-1,58
 1361 386 1361 386 1368 291 c 1,59,-1
 1379 291 l 1,60,61
 1392 321 1392 321 1406.5 387 c 128,-1,62
 1421 453 1421 453 1435.5 539.5 c 128,-1,63
 1450 626 1450 626 1463 724 c 128,-1,64
 1476 822 1476 822 1486.5 914.5 c 128,-1,65
 1497 1007 1497 1007 1503.5 1086.5 c 128,-1,66
 1510 1166 1510 1166 1511 1215 c 1,67,-1
 1393 1234 l 1,68,69
 1385 1263 1385 1263 1381 1287.5 c 128,-1,70
 1377 1312 1377 1312 1374.5 1335 c 128,-1,71
 1372 1358 1372 1358 1371.5 1381.5 c 128,-1,72
 1371 1405 1371 1405 1371 1431 c 1,73,74
 1386 1449 1386 1449 1417.5 1470 c 128,-1,75
 1449 1491 1449 1491 1491.5 1509 c 128,-1,76
 1534 1527 1534 1527 1584.5 1539 c 128,-1,77
 1635 1551 1635 1551 1686 1551 c 0,78,79
 1817 1551 1817 1551 1882 1484 c 128,-1,80
 1947 1417 1947 1417 1947 1276 c 0,81,82
 1947 1210 1947 1210 1935.5 1121.5 c 128,-1,83
 1924 1033 1924 1033 1903 935.5 c 128,-1,84
 1882 838 1882 838 1854 737 c 128,-1,85
 1826 636 1826 636 1793 545 c 0,86,87
 1769 477 1769 477 1743.5 412.5 c 128,-1,88
 1718 348 1718 348 1689 285.5 c 128,-1,89
 1660 223 1660 223 1624.5 162 c 128,-1,90
 1589 101 1589 101 1545 40 c 1,91,92
 1527 21 1527 21 1502 9 c 128,-1,93
 1477 -3 1477 -3 1450 -9.5 c 128,-1,94
 1423 -16 1423 -16 1396.5 -18 c 128,-1,95
 1370 -20 1370 -20 1348 -20 c 0,96,97
 1307 -20 1307 -20 1266.5 -16.5 c 128,-1,98
 1226 -13 1226 -13 1188.5 -4 c 128,-1,99
 1151 5 1151 5 1117.5 19.5 c 128,-1,100
 1084 34 1084 34 1057 56 c 1,101,-1
 1084 261 l 1,102,-1
 1019 598 l 2,103,104
 1017 609 1017 609 1013 634 c 128,-1,105
 1009 659 1009 659 1004.5 689.5 c 128,-1,106
 1000 720 1000 720 995.5 752.5 c 128,-1,107
 991 785 991 785 989 810 c 1,108,-1
 976 811 l 1,109,-1
 973 684 l 1,110,111
 958 591 958 591 938.5 501 c 128,-1,112
 919 411 919 411 895 328.5 c 128,-1,113
 871 246 871 246 843.5 172.5 c 128,-1,114
 816 99 816 99 784 40 c 1,115,116
 768 22 768 22 745 10.5 c 128,-1,117
 722 -1 722 -1 697 -8 c 128,-1,118
 672 -15 672 -15 646.5 -17.5 c 128,-1,119
 621 -20 621 -20 600 -20 c 0,120,121
 559 -20 559 -20 517.5 -16.5 c 128,-1,122
 476 -13 476 -13 438.5 -4.5 c 128,-1,123
 401 4 401 4 368 18.5 c 128,-1,124
 335 33 335 33 311 55 c 1,125,-1
 333 243 l 1,0,1
EndSplineSet
EndChar

StartChar: Q
Encoding: 81 81 62
Width: 1387
Flags: W
LayerCount: 2
Fore
SplineSet
691 -20 m 0,0,1
 510 -20 510 -20 390 40 c 128,-1,2
 270 100 270 100 198 205 c 128,-1,3
 126 310 126 310 96.5 451.5 c 128,-1,4
 67 593 67 593 67 756 c 0,5,6
 67 865 67 865 80 966.5 c 128,-1,7
 93 1068 93 1068 122 1156.5 c 128,-1,8
 151 1245 151 1245 198.5 1317.5 c 128,-1,9
 246 1390 246 1390 315 1441.5 c 128,-1,10
 384 1493 384 1493 477 1521.5 c 128,-1,11
 570 1550 570 1550 691 1550 c 0,12,13
 821 1550 821 1550 918 1521.5 c 128,-1,14
 1015 1493 1015 1493 1085 1441.5 c 128,-1,15
 1155 1390 1155 1390 1200.5 1317.5 c 128,-1,16
 1246 1245 1246 1245 1272.5 1156.5 c 128,-1,17
 1299 1068 1299 1068 1309.5 966.5 c 128,-1,18
 1320 865 1320 865 1320 756 c 0,19,20
 1320 645 1320 645 1306 543 c 128,-1,21
 1292 441 1292 441 1259.5 353 c 128,-1,22
 1227 265 1227 265 1175.5 193.5 c 128,-1,23
 1124 122 1124 122 1049 73 c 1,24,25
 1067 32 1067 32 1095 -18.5 c 128,-1,26
 1123 -69 1123 -69 1170 -134 c 1,27,-1
 1182 -132 l 1,28,-1
 1184 -134 l 1,29,-1
 1332 -72 l 1,30,31
 1373 -107 1373 -107 1395 -151.5 c 128,-1,32
 1417 -196 1417 -196 1423 -250 c 1,33,34
 1384 -305 1384 -305 1332 -348 c 0,35,36
 1310 -366 1310 -366 1283 -383.5 c 128,-1,37
 1256 -401 1256 -401 1224.5 -414.5 c 128,-1,38
 1193 -428 1193 -428 1157 -436.5 c 128,-1,39
 1121 -445 1121 -445 1081 -445 c 0,40,41
 1038 -445 1038 -445 1001 -435 c 0,42,43
 992 -433 992 -433 983 -430.5 c 128,-1,44
 974 -428 974 -428 965 -426 c 0,45,46
 913 -410 913 -410 877.5 -363.5 c 128,-1,47
 842 -317 842 -317 819 -257 c 128,-1,48
 796 -197 796 -197 783 -133 c 128,-1,49
 770 -69 770 -69 764 -17 c 1,50,51
 728 -20 728 -20 691 -20 c 0,0,1
548 330 m 1,52,53
 555 322 555 322 575.5 316 c 128,-1,54
 596 310 596 310 623.5 306 c 128,-1,55
 651 302 651 302 681.5 300.5 c 128,-1,56
 712 299 712 299 741 299 c 0,57,58
 776 299 776 299 802.5 301 c 128,-1,59
 829 303 829 303 835 308 c 1,60,61
 848 331 848 331 857.5 372 c 128,-1,62
 867 413 867 413 873.5 466 c 128,-1,63
 880 519 880 519 883 581 c 128,-1,64
 886 643 886 643 886 707 c 0,65,66
 886 775 886 775 882.5 842.5 c 128,-1,67
 879 910 879 910 872.5 968.5 c 128,-1,68
 866 1027 866 1027 856.5 1072.5 c 128,-1,69
 847 1118 847 1118 835 1144 c 1,70,71
 822 1154 822 1154 802 1162 c 128,-1,72
 782 1170 782 1170 758 1175 c 128,-1,73
 734 1180 734 1180 707 1182.5 c 128,-1,74
 680 1185 680 1185 653 1185 c 0,75,76
 619 1185 619 1185 591.5 1181.5 c 128,-1,77
 564 1178 564 1178 552 1171 c 1,78,79
 537 1145 537 1145 526 1106.5 c 128,-1,80
 515 1068 515 1068 508.5 1021 c 128,-1,81
 502 974 502 974 499 920.5 c 128,-1,82
 496 867 496 867 496 811 c 0,83,84
 496 741 496 741 500 670 c 128,-1,85
 504 599 504 599 511.5 535 c 128,-1,86
 519 471 519 471 528 418 c 128,-1,87
 537 365 537 365 548 330 c 1,52,53
EndSplineSet
EndChar

StartChar: X
Encoding: 88 88 63
Width: 1371
Flags: W
LayerCount: 2
Fore
SplineSet
266 -19 m 0,0,1
 226 -18 226 -18 192.5 2.5 c 128,-1,2
 159 23 159 23 132 57 c 128,-1,3
 105 91 105 91 84 135.5 c 128,-1,4
 63 180 63 180 47.5 229 c 128,-1,5
 32 278 32 278 22.5 328.5 c 128,-1,6
 13 379 13 379 9 425 c 1,7,8
 54 484 54 484 112.5 523 c 128,-1,9
 171 562 171 562 256 575 c 1,10,-1
 339 448 l 1,11,-1
 498 741 l 1,12,-1
 292 1129 l 1,13,-1
 135 1035 l 1,14,-1
 -8 1169 l 1,15,16
 2 1242 2 1242 35.5 1311.5 c 128,-1,17
 69 1381 69 1381 122 1434 c 128,-1,18
 175 1487 175 1487 244.5 1519 c 128,-1,19
 314 1551 314 1551 396 1549 c 0,20,21
 474 1547 474 1547 532 1503 c 128,-1,22
 590 1459 590 1459 625 1374 c 0,23,24
 649 1314 649 1314 665 1257.5 c 128,-1,25
 681 1201 681 1201 690.5 1148.5 c 128,-1,26
 700 1096 700 1096 704 1049 c 128,-1,27
 708 1002 708 1002 709 962 c 1,28,29
 718 1023 718 1023 730 1097.5 c 128,-1,30
 742 1172 742 1172 761 1246 c 128,-1,31
 780 1320 780 1320 809 1386 c 128,-1,32
 838 1452 838 1452 883 1496 c 0,33,34
 913 1525 913 1525 956 1537 c 128,-1,35
 999 1549 999 1549 1047 1549 c 0,36,37
 1094 1549 1094 1549 1132.5 1526.5 c 128,-1,38
 1171 1504 1171 1504 1201.5 1466 c 128,-1,39
 1232 1428 1232 1428 1254.5 1378.5 c 128,-1,40
 1277 1329 1277 1329 1293 1275 c 128,-1,41
 1309 1221 1309 1221 1318.5 1166 c 128,-1,42
 1328 1111 1328 1111 1333 1062 c 1,43,44
 1303 1029 1303 1029 1276 1006.5 c 128,-1,45
 1249 984 1249 984 1220 969 c 128,-1,46
 1191 954 1191 954 1158 945 c 128,-1,47
 1125 936 1125 936 1083 930 c 1,48,-1
 978 1095 l 1,49,-1
 823 791 l 1,50,-1
 1056 404 l 1,51,-1
 1230 527 l 1,52,-1
 1352 404 l 1,53,54
 1348 360 1348 360 1336 312.5 c 128,-1,55
 1324 265 1324 265 1303.5 219 c 128,-1,56
 1283 173 1283 173 1254.5 131 c 128,-1,57
 1226 89 1226 89 1188.5 57 c 128,-1,58
 1151 25 1151 25 1105 4.5 c 128,-1,59
 1059 -16 1059 -16 1003 -19 c 0,60,61
 926 -24 926 -24 860.5 15 c 128,-1,62
 795 54 795 54 748 129 c 0,63,64
 717 179 717 179 695.5 239 c 128,-1,65
 674 299 674 299 660 360 c 128,-1,66
 646 421 646 421 638 479 c 128,-1,67
 630 537 630 537 627 585 c 0,68,69
 626 593 626 593 625.5 601 c 128,-1,70
 625 609 625 609 625 619 c 1,71,72
 618 580 618 580 611 530.5 c 128,-1,73
 604 481 604 481 595 426.5 c 128,-1,74
 586 372 586 372 573.5 316 c 128,-1,75
 561 260 561 260 543 208.5 c 128,-1,76
 525 157 525 157 500.5 111.5 c 128,-1,77
 476 66 476 66 443 34 c 0,78,79
 411 2 411 2 364 -9 c 128,-1,80
 317 -20 317 -20 266 -19 c 0,0,1
EndSplineSet
EndChar

StartChar: Y
Encoding: 89 89 64
Width: 1237
Flags: W
LayerCount: 2
Fore
SplineSet
406 472 m 1,0,1
 385 505 385 505 356 555 c 128,-1,2
 327 605 327 605 294 665.5 c 128,-1,3
 261 726 261 726 226.5 795 c 128,-1,4
 192 864 192 864 160 935.5 c 128,-1,5
 128 1007 128 1007 100 1078 c 128,-1,6
 72 1149 72 1149 52 1214 c 1,7,-1
 -100 1235 l 1,8,9
 -107 1264 -107 1264 -112 1288 c 128,-1,10
 -117 1312 -117 1312 -120 1334.5 c 128,-1,11
 -123 1357 -123 1357 -124 1380 c 128,-1,12
 -125 1403 -125 1403 -124 1430 c 1,13,14
 -109 1448 -109 1448 -76.5 1469 c 128,-1,15
 -44 1490 -44 1490 0 1508 c 128,-1,16
 44 1526 44 1526 95.5 1538 c 128,-1,17
 147 1550 147 1550 198 1550 c 0,18,19
 384 1550 384 1550 431 1410 c 1,20,21
 438 1393 438 1393 452.5 1354.5 c 128,-1,22
 467 1316 467 1316 485 1262.5 c 128,-1,23
 503 1209 503 1209 524 1143 c 128,-1,24
 545 1077 545 1077 565 1005 c 128,-1,25
 585 933 585 933 603 858 c 128,-1,26
 621 783 621 783 634 712 c 1,27,28
 663 770 663 770 694 839.5 c 128,-1,29
 725 909 725 909 753 977.5 c 128,-1,30
 781 1046 781 1046 802.5 1108.5 c 128,-1,31
 824 1171 824 1171 835 1216 c 1,32,-1
 833 1216 l 1,33,-1
 711 1237 l 1,34,35
 704 1266 704 1266 699 1290 c 128,-1,36
 694 1314 694 1314 691 1336.5 c 128,-1,37
 688 1359 688 1359 687 1382 c 128,-1,38
 686 1405 686 1405 687 1432 c 1,39,40
 702 1450 702 1450 734.5 1471 c 128,-1,41
 767 1492 767 1492 811 1510 c 128,-1,42
 855 1528 855 1528 906.5 1540 c 128,-1,43
 958 1552 958 1552 1009 1552 c 0,44,45
 1201 1552 1201 1552 1244 1404 c 0,46,47
 1250 1384 1250 1384 1252.5 1366 c 128,-1,48
 1255 1348 1255 1348 1255 1331 c 0,49,50
 1255 1272 1255 1272 1227.5 1197 c 128,-1,51
 1200 1122 1200 1122 1156 1041 c 128,-1,52
 1112 960 1112 960 1056.5 877.5 c 128,-1,53
 1001 795 1001 795 946.5 722 c 128,-1,54
 892 649 892 649 843 590 c 128,-1,55
 794 531 794 531 762 496 c 1,56,57
 753 442 753 442 744 391.5 c 128,-1,58
 735 341 735 341 724 294 c 1,59,-1
 726 292 l 1,60,-1
 874 354 l 1,61,62
 915 319 915 319 937 274.5 c 128,-1,63
 959 230 959 230 965 176 c 1,64,65
 926 121 926 121 874 78 c 0,66,67
 852 60 852 60 825 42.5 c 128,-1,68
 798 25 798 25 766.5 11.5 c 128,-1,69
 735 -2 735 -2 699 -10.5 c 128,-1,70
 663 -19 663 -19 623 -19 c 0,71,72
 580 -19 580 -19 540.5 -8 c 128,-1,73
 501 3 501 3 470 30.5 c 128,-1,74
 439 58 439 58 421 105 c 128,-1,75
 403 152 403 152 404 224 c 2,76,-1
 406 472 l 1,0,1
EndSplineSet
EndChar

StartChar: Z
Encoding: 90 90 65
Width: 1283
Flags: W
LayerCount: 2
Fore
SplineSet
231 -20 m 1,0,1
 206 -5 206 -5 181.5 22 c 128,-1,2
 157 49 157 49 135 84 c 128,-1,3
 113 119 113 119 94.5 160 c 128,-1,4
 76 201 76 201 63 243.5 c 128,-1,5
 50 286 50 286 43 328 c 128,-1,6
 36 370 36 370 38 408 c 1,7,8
 60 451 60 451 86.5 474.5 c 128,-1,9
 113 498 113 498 140.5 511 c 128,-1,10
 168 524 168 524 194.5 531 c 128,-1,11
 221 538 221 538 242 547 c 1,12,13
 271 538 271 538 309.5 524.5 c 128,-1,14
 348 511 348 511 391 482 c 1,15,-1
 675 1156 l 1,16,-1
 400 1169 l 1,17,-1
 394 830 l 1,18,-1
 209 790 l 1,19,20
 184 816 184 816 157 870.5 c 128,-1,21
 130 925 130 925 107 993.5 c 128,-1,22
 84 1062 84 1062 69 1136 c 128,-1,23
 54 1210 54 1210 54 1274 c 0,24,25
 54 1296 54 1296 55.5 1316 c 128,-1,26
 57 1336 57 1336 62 1353 c 0,27,28
 85 1449 85 1449 144 1498.5 c 128,-1,29
 203 1548 203 1548 290 1550 c 1,30,31
 351 1550 351 1550 419 1540 c 128,-1,32
 487 1530 487 1530 556 1511.5 c 128,-1,33
 625 1493 625 1493 691.5 1466.5 c 128,-1,34
 758 1440 758 1440 815 1407 c 1,35,36
 831 1431 831 1431 857 1456 c 128,-1,37
 883 1481 883 1481 918.5 1502 c 128,-1,38
 954 1523 954 1523 998 1536.5 c 128,-1,39
 1042 1550 1042 1550 1093 1550 c 1,40,41
 1128 1531 1128 1531 1155.5 1501 c 128,-1,42
 1183 1471 1183 1471 1201.5 1434 c 128,-1,43
 1220 1397 1220 1397 1229.5 1353.5 c 128,-1,44
 1239 1310 1239 1310 1239 1264 c 0,45,46
 1239 1227 1239 1227 1233 1189.5 c 128,-1,47
 1227 1152 1227 1152 1214 1115 c 1,48,49
 1182 1106 1182 1106 1154.5 1102 c 128,-1,50
 1127 1098 1127 1098 1104 1098 c 1,51,52
 1086 1061 1086 1061 1052.5 1007.5 c 128,-1,53
 1019 954 1019 954 977.5 890.5 c 128,-1,54
 936 827 936 827 890 758 c 128,-1,55
 844 689 844 689 799.5 622.5 c 128,-1,56
 755 556 755 556 716.5 494.5 c 128,-1,57
 678 433 678 433 652 386 c 1,58,-1
 656 385 l 1,59,-1
 932 366 l 1,60,-1
 1044 646 l 1,61,-1
 1208 615 l 1,62,63
 1222 577 1222 577 1232.5 512.5 c 128,-1,64
 1243 448 1243 448 1243 375 c 0,65,66
 1243 336 1243 336 1239 296 c 128,-1,67
 1235 256 1235 256 1227 219 c 128,-1,68
 1219 182 1219 182 1205.5 149 c 128,-1,69
 1192 116 1192 116 1173 90 c 0,70,71
 1131 33 1131 33 1078 6.5 c 128,-1,72
 1025 -20 1025 -20 966 -20 c 0,73,74
 911 -20 911 -20 843 -0.5 c 128,-1,75
 775 19 775 19 708 46.5 c 128,-1,76
 641 74 641 74 582 104 c 128,-1,77
 523 134 523 134 487 155 c 1,78,79
 464 116 464 116 440 85.5 c 128,-1,80
 416 55 416 55 386 32.5 c 128,-1,81
 356 10 356 10 318.5 -3.5 c 128,-1,82
 281 -17 281 -17 231 -20 c 1,0,1
EndSplineSet
EndChar

StartChar: U
Encoding: 85 85 66
Width: 1442
Flags: W
LayerCount: 2
Fore
SplineSet
165 378 m 0,0,1
 165 423 165 423 165.5 492 c 128,-1,2
 166 561 166 561 167 641 c 128,-1,3
 168 721 168 721 169.5 807 c 128,-1,4
 171 893 171 893 173 972.5 c 128,-1,5
 175 1052 175 1052 178.5 1118.5 c 128,-1,6
 182 1185 182 1185 186 1228 c 1,7,-1
 56 1244 l 1,8,9
 44 1281 44 1281 37 1304.5 c 128,-1,10
 30 1328 30 1328 26 1350 c 128,-1,11
 22 1372 22 1372 21 1397 c 128,-1,12
 20 1422 20 1422 20 1462 c 1,13,14
 61 1485 61 1485 99 1501.5 c 128,-1,15
 137 1518 137 1518 175.5 1529 c 128,-1,16
 214 1540 214 1540 255.5 1545 c 128,-1,17
 297 1550 297 1550 344 1550 c 0,18,19
 621 1550 621 1550 621 1273 c 0,20,21
 621 1227 621 1227 615.5 1155.5 c 128,-1,22
 610 1084 610 1084 602 999.5 c 128,-1,23
 594 915 594 915 583.5 824 c 128,-1,24
 573 733 573 733 563.5 649.5 c 128,-1,25
 554 566 554 566 545.5 495.5 c 128,-1,26
 537 425 537 425 533 382 c 1,27,28
 552 361 552 361 578 355 c 1,29,30
 585 352 585 352 607.5 365 c 128,-1,31
 630 378 630 378 661 401 c 128,-1,32
 692 424 692 424 728 455.5 c 128,-1,33
 764 487 764 487 798 522 c 128,-1,34
 832 557 832 557 861 592.5 c 128,-1,35
 890 628 890 628 907 660 c 1,36,37
 902 746 902 746 895 851 c 128,-1,38
 888 956 888 956 877.5 1063.5 c 128,-1,39
 867 1171 867 1171 853 1273.5 c 128,-1,40
 839 1376 839 1376 820 1458 c 1,41,42
 844 1482 844 1482 875.5 1499 c 128,-1,43
 907 1516 907 1516 941 1527.5 c 128,-1,44
 975 1539 975 1539 1010 1544.5 c 128,-1,45
 1045 1550 1045 1550 1077 1550 c 0,46,47
 1129 1550 1129 1550 1184 1538.5 c 128,-1,48
 1239 1527 1239 1527 1281 1496 c 1,49,50
 1299 1456 1299 1456 1305.5 1395.5 c 128,-1,51
 1312 1335 1312 1335 1312 1273 c 0,52,53
 1312 1241 1312 1241 1309.5 1191 c 128,-1,54
 1307 1141 1307 1141 1302.5 1079.5 c 128,-1,55
 1298 1018 1298 1018 1291.5 948 c 128,-1,56
 1285 878 1285 878 1277.5 805.5 c 128,-1,57
 1270 733 1270 733 1261.5 662.5 c 128,-1,58
 1253 592 1253 592 1244 528.5 c 128,-1,59
 1235 465 1235 465 1225.5 413 c 128,-1,60
 1216 361 1216 361 1207 326 c 1,61,-1
 1330 380 l 1,62,63
 1343 366 1343 366 1356.5 347.5 c 128,-1,64
 1370 329 1370 329 1382 305 c 128,-1,65
 1394 281 1394 281 1403 252 c 128,-1,66
 1412 223 1412 223 1416 189 c 1,67,68
 1407 170 1407 170 1377 135 c 128,-1,69
 1347 100 1347 100 1302 65.5 c 128,-1,70
 1257 31 1257 31 1199 5.5 c 128,-1,71
 1141 -20 1141 -20 1075 -20 c 0,72,73
 1029 -20 1029 -20 994.5 -5 c 128,-1,74
 960 10 960 10 937 35.5 c 128,-1,75
 914 61 914 61 902.5 95.5 c 128,-1,76
 891 130 891 130 891 169 c 0,77,78
 891 177 891 177 893.5 201 c 128,-1,79
 896 225 896 225 899.5 253 c 128,-1,80
 903 281 903 281 907 305.5 c 128,-1,81
 911 330 911 330 915 339 c 1,82,-1
 885 349 l 1,83,84
 850 281 850 281 809 214.5 c 128,-1,85
 768 148 768 148 715.5 96 c 128,-1,86
 663 44 663 44 598 12 c 128,-1,87
 533 -20 533 -20 452 -20 c 0,88,89
 365 -20 365 -20 309 15.5 c 128,-1,90
 253 51 253 51 221 107.5 c 128,-1,91
 189 164 189 164 177 235 c 128,-1,92
 165 306 165 306 165 378 c 0,0,1
EndSplineSet
EndChar

StartChar: one
Encoding: 49 49 67
Width: 785
Flags: W
LayerCount: 2
Fore
SplineSet
236 10 m 1,0,1
 228 145 228 145 226 276.5 c 128,-1,2
 224 408 224 408 224 530 c 0,3,4
 224 564 224 564 224.5 598.5 c 128,-1,5
 225 633 225 633 226.5 672 c 128,-1,6
 228 711 228 711 230 755.5 c 128,-1,7
 232 800 232 800 236 854 c 1,8,9
 168 868 168 868 115 891.5 c 128,-1,10
 62 915 62 915 43 939 c 1,11,12
 43 1005 43 1005 52 1060 c 128,-1,13
 61 1115 61 1115 81 1165 c 1,14,-1
 458 1165 l 2,15,16
 522 1165 522 1165 558 1142 c 128,-1,17
 594 1119 594 1119 612 1082.5 c 128,-1,18
 630 1046 630 1046 634 999.5 c 128,-1,19
 638 953 638 953 638 905 c 0,20,21
 638 797 638 797 631 682 c 128,-1,22
 624 567 624 567 614.5 453 c 128,-1,23
 605 339 605 339 595 229.5 c 128,-1,24
 585 120 585 120 578 23 c 1,25,26
 536 0 536 0 490.5 -10.5 c 128,-1,27
 445 -21 445 -21 398 -21 c 0,28,29
 312 -21 312 -21 236 10 c 1,0,1
EndSplineSet
Substitution2: "'sups' Superscript in Latin lookup 6 subtable" onesuperior
EndChar

StartChar: two
Encoding: 50 50 68
Width: 1102
Flags: W
LayerCount: 2
Fore
SplineSet
187 -10 m 1,0,1
 153 -1 153 -1 125 22 c 128,-1,2
 97 45 97 45 77 78 c 128,-1,3
 57 111 57 111 46 151 c 128,-1,4
 35 191 35 191 35 235 c 0,5,6
 35 304 35 304 69.5 368 c 128,-1,7
 104 432 104 432 186 480 c 1,8,9
 197 480 197 480 217.5 475.5 c 128,-1,10
 238 471 238 471 262 464.5 c 128,-1,11
 286 458 286 458 310.5 450.5 c 128,-1,12
 335 443 335 443 353 438 c 1,13,14
 381 462 381 462 416 499.5 c 128,-1,15
 451 537 451 537 483 580 c 128,-1,16
 515 623 515 623 540.5 667.5 c 128,-1,17
 566 712 566 712 576 750 c 1,18,19
 574 763 574 763 569 780.5 c 128,-1,20
 564 798 564 798 547 812 c 1,21,22
 525 817 525 817 505 818.5 c 128,-1,23
 485 820 485 820 463 820 c 0,24,25
 399 820 399 820 321 797 c 128,-1,26
 243 774 243 774 164 739 c 1,27,28
 144 762 144 762 126.5 792 c 128,-1,29
 109 822 109 822 96 857 c 128,-1,30
 83 892 83 892 75 931 c 128,-1,31
 67 970 67 970 67 1012 c 0,32,33
 67 1019 67 1019 67 1025.5 c 128,-1,34
 67 1032 67 1032 68 1039 c 1,35,36
 70 1041 70 1041 96 1064 c 128,-1,37
 122 1087 122 1087 173.5 1114 c 128,-1,38
 225 1141 225 1141 303 1163 c 128,-1,39
 381 1185 381 1185 486 1185 c 0,40,41
 579 1185 579 1185 669.5 1169.5 c 128,-1,42
 760 1154 760 1154 831.5 1116.5 c 128,-1,43
 903 1079 903 1079 946.5 1015.5 c 128,-1,44
 990 952 990 952 990 857 c 0,45,46
 990 788 990 788 965.5 729 c 128,-1,47
 941 670 941 670 902 621 c 128,-1,48
 863 572 863 572 814.5 531.5 c 128,-1,49
 766 491 766 491 718 460 c 128,-1,50
 670 429 670 429 627.5 406.5 c 128,-1,51
 585 384 585 384 558 370 c 1,52,-1
 558 355 l 1,53,-1
 803 327 l 1,54,-1
 863 439 l 1,55,-1
 1027 426 l 1,56,57
 1043 385 1043 385 1056.5 337.5 c 128,-1,58
 1070 290 1070 290 1070 238 c 0,59,60
 1070 185 1070 185 1052 138 c 128,-1,61
 1034 91 1034 91 1002 56 c 128,-1,62
 970 21 970 21 927 0.5 c 128,-1,63
 884 -20 884 -20 833 -20 c 0,64,65
 781 -20 781 -20 728.5 -5 c 128,-1,66
 676 10 676 10 625.5 35 c 128,-1,67
 575 60 575 60 527.5 92.5 c 128,-1,68
 480 125 480 125 438 160 c 1,69,70
 396 87 396 87 337.5 42 c 128,-1,71
 279 -3 279 -3 187 -10 c 1,0,1
EndSplineSet
Substitution2: "'sups' Superscript in Latin lookup 6 subtable" twosuperior
EndChar

StartChar: ring
Encoding: 730 730 69
Width: 692
Flags: W
LayerCount: 2
Fore
SplineSet
347 1259 m 0,0,1
 281 1259 281 1259 226.5 1278 c 128,-1,2
 172 1297 172 1297 133 1333 c 128,-1,3
 94 1369 94 1369 72 1421 c 128,-1,4
 50 1473 50 1473 50 1539 c 0,5,6
 50 1602 50 1602 72.5 1647 c 128,-1,7
 95 1692 95 1692 135.5 1721 c 128,-1,8
 176 1750 176 1750 231.5 1764 c 128,-1,9
 287 1778 287 1778 353 1778 c 0,10,11
 413 1778 413 1778 465.5 1765.5 c 128,-1,12
 518 1753 518 1753 557.5 1725 c 128,-1,13
 597 1697 597 1697 619.5 1652.5 c 128,-1,14
 642 1608 642 1608 642 1544 c 0,15,16
 642 1481 642 1481 621 1428.5 c 128,-1,17
 600 1376 600 1376 562 1338.5 c 128,-1,18
 524 1301 524 1301 469 1280 c 128,-1,19
 414 1259 414 1259 347 1259 c 0,0,1
339 1458 m 0,20,21
 364 1458 364 1458 385 1460.5 c 128,-1,22
 406 1463 406 1463 420 1468 c 1,23,24
 422 1477 422 1477 425.5 1488 c 128,-1,25
 429 1499 429 1499 428 1512 c 0,26,27
 427 1537 427 1537 407.5 1551.5 c 128,-1,28
 388 1566 388 1566 345 1566 c 0,29,30
 322 1566 322 1566 298 1564 c 128,-1,31
 274 1562 274 1562 263 1559 c 1,32,33
 258 1553 258 1553 257 1544 c 128,-1,34
 256 1535 256 1535 256 1527 c 0,35,36
 256 1492 256 1492 280 1475 c 128,-1,37
 304 1458 304 1458 339 1458 c 0,20,21
EndSplineSet
EndChar

StartChar: grave
Encoding: 96 96 70
Width: 681
Flags: W
LayerCount: 2
Fore
SplineSet
506 1268 m 1,0,1
 383 1306 383 1306 264 1372.5 c 128,-1,2
 145 1439 145 1439 50 1527 c 1,3,4
 59 1561 59 1561 77 1596.5 c 128,-1,5
 95 1632 95 1632 125 1666 c 128,-1,6
 155 1700 155 1700 198.5 1732.5 c 128,-1,7
 242 1765 242 1765 301 1793 c 1,8,-1
 631 1415 l 1,9,10
 625 1392 625 1392 611.5 1369.5 c 128,-1,11
 598 1347 598 1347 580.5 1327.5 c 128,-1,12
 563 1308 563 1308 543.5 1292.5 c 128,-1,13
 524 1277 524 1277 506 1268 c 1,0,1
EndSplineSet
EndChar

StartChar: tilde
Encoding: 732 732 71
Width: 933
Flags: W
LayerCount: 2
Fore
SplineSet
148 1256 m 1,0,1
 131 1269 131 1269 114.5 1284 c 128,-1,2
 98 1299 98 1299 84.5 1316 c 128,-1,3
 71 1333 71 1333 61.5 1352 c 128,-1,4
 52 1371 52 1371 50 1393 c 1,5,6
 56 1434 56 1434 83.5 1480.5 c 128,-1,7
 111 1527 111 1527 152 1566 c 128,-1,8
 193 1605 193 1605 243 1631 c 128,-1,9
 293 1657 293 1657 346 1657 c 0,10,11
 379 1657 379 1657 416.5 1646 c 128,-1,12
 454 1635 454 1635 491 1619 c 128,-1,13
 528 1603 528 1603 561.5 1585 c 128,-1,14
 595 1567 595 1567 621 1553 c 1,15,16
 640 1561 640 1561 671 1586.5 c 128,-1,17
 702 1612 702 1612 758 1656 c 1,18,19
 778 1646 778 1646 799 1633.5 c 128,-1,20
 820 1621 820 1621 838 1604 c 128,-1,21
 856 1587 856 1587 868 1566 c 128,-1,22
 880 1545 880 1545 883 1518 c 1,23,24
 874 1476 874 1476 849 1430 c 128,-1,25
 824 1384 824 1384 787 1345.5 c 128,-1,26
 750 1307 750 1307 701 1281.5 c 128,-1,27
 652 1256 652 1256 595 1256 c 0,28,29
 565 1256 565 1256 528.5 1268 c 128,-1,30
 492 1280 492 1280 456 1297.5 c 128,-1,31
 420 1315 420 1315 388 1336 c 128,-1,32
 356 1357 356 1357 334 1375 c 1,33,34
 278 1351 278 1351 234 1319.5 c 128,-1,35
 190 1288 190 1288 148 1256 c 1,0,1
EndSplineSet
EndChar

StartChar: dieresis
Encoding: 168 168 72
Width: 1051
Flags: W
LayerCount: 2
Fore
SplineSet
780 1252 m 0,0,1
 738 1252 738 1252 698.5 1268 c 128,-1,2
 659 1284 659 1284 628 1311.5 c 128,-1,3
 597 1339 597 1339 578.5 1375.5 c 128,-1,4
 560 1412 560 1412 560 1454 c 0,5,6
 560 1500 560 1500 576.5 1534 c 128,-1,7
 593 1568 593 1568 622.5 1590 c 128,-1,8
 652 1612 652 1612 692 1622.5 c 128,-1,9
 732 1633 732 1633 780 1633 c 0,10,11
 844 1633 844 1633 886.5 1618.5 c 128,-1,12
 929 1604 929 1604 954.5 1579.5 c 128,-1,13
 980 1555 980 1555 990.5 1522 c 128,-1,14
 1001 1489 1001 1489 1001 1452 c 0,15,16
 1001 1408 1001 1408 979 1371.5 c 128,-1,17
 957 1335 957 1335 924 1308.5 c 128,-1,18
 891 1282 891 1282 852 1267 c 128,-1,19
 813 1252 813 1252 780 1252 c 0,0,1
270 1252 m 0,20,21
 228 1252 228 1252 188.5 1268 c 128,-1,22
 149 1284 149 1284 118 1311.5 c 128,-1,23
 87 1339 87 1339 68.5 1375.5 c 128,-1,24
 50 1412 50 1412 50 1454 c 0,25,26
 50 1500 50 1500 66.5 1534 c 128,-1,27
 83 1568 83 1568 112.5 1590 c 128,-1,28
 142 1612 142 1612 182 1622.5 c 128,-1,29
 222 1633 222 1633 270 1633 c 0,30,31
 334 1633 334 1633 376.5 1618.5 c 128,-1,32
 419 1604 419 1604 444.5 1579.5 c 128,-1,33
 470 1555 470 1555 480.5 1522 c 128,-1,34
 491 1489 491 1489 491 1452 c 0,35,36
 491 1408 491 1408 469 1371.5 c 128,-1,37
 447 1335 447 1335 414 1308.5 c 128,-1,38
 381 1282 381 1282 342 1267 c 128,-1,39
 303 1252 303 1252 270 1252 c 0,20,21
EndSplineSet
EndChar

StartChar: c
Encoding: 99 99 73
Width: 1084
Flags: W
LayerCount: 2
Fore
SplineSet
577 -20 m 0,0,1
 450 -20 450 -20 353.5 27 c 128,-1,2
 257 74 257 74 192 156 c 128,-1,3
 127 238 127 238 94 347 c 128,-1,4
 61 456 61 456 61 581 c 256,5,6
 61 706 61 706 92.5 816 c 128,-1,7
 124 926 124 926 190 1008 c 128,-1,8
 256 1090 256 1090 358 1137.5 c 128,-1,9
 460 1185 460 1185 602 1185 c 0,10,11
 629 1185 629 1185 663.5 1183.5 c 128,-1,12
 698 1182 698 1182 737 1178.5 c 128,-1,13
 776 1175 776 1175 817.5 1169 c 128,-1,14
 859 1163 859 1163 899 1155 c 1,15,16
 923 1138 923 1138 940.5 1126 c 128,-1,17
 958 1114 958 1114 973 1101.5 c 128,-1,18
 988 1089 988 1089 1002 1075 c 128,-1,19
 1016 1061 1016 1061 1031 1040 c 1,20,21
 1031 1013 1031 1013 1027 974 c 128,-1,22
 1023 935 1023 935 1016.5 891.5 c 128,-1,23
 1010 848 1010 848 1001 803.5 c 128,-1,24
 992 759 992 759 981.5 720.5 c 128,-1,25
 971 682 971 682 960 653 c 128,-1,26
 949 624 949 624 938 612 c 1,27,28
 921 603 921 603 892 599 c 128,-1,29
 863 595 863 595 831 595 c 0,30,31
 796 595 796 595 764.5 600 c 128,-1,32
 733 605 733 605 716 615 c 1,33,-1
 695 800 l 1,34,35
 687 809 687 809 667 816.5 c 128,-1,36
 647 824 647 824 622.5 828.5 c 128,-1,37
 598 833 598 833 572.5 835.5 c 128,-1,38
 547 838 547 838 528 838 c 0,39,40
 520 838 520 838 513.5 837.5 c 128,-1,41
 507 837 507 837 502 836 c 1,42,43
 490 812 490 812 481.5 780.5 c 128,-1,44
 473 749 473 749 467 713.5 c 128,-1,45
 461 678 461 678 458 640.5 c 128,-1,46
 455 603 455 603 455 567 c 0,47,48
 455 528 455 528 460 482 c 128,-1,49
 465 436 465 436 483.5 396.5 c 128,-1,50
 502 357 502 357 538.5 330.5 c 128,-1,51
 575 304 575 304 638 304 c 0,52,53
 675 304 675 304 712 313 c 128,-1,54
 749 322 749 322 785.5 335.5 c 128,-1,55
 822 349 822 349 858.5 366 c 128,-1,56
 895 383 895 383 933 400 c 1,57,58
 951 382 951 382 966 363.5 c 128,-1,59
 981 345 981 345 993 321.5 c 128,-1,60
 1005 298 1005 298 1013.5 269 c 128,-1,61
 1022 240 1022 240 1026 203 c 1,62,63
 1015 190 1015 190 994.5 169 c 128,-1,64
 974 148 974 148 944 123 c 128,-1,65
 914 98 914 98 875.5 72.5 c 128,-1,66
 837 47 837 47 790.5 26.5 c 128,-1,67
 744 6 744 6 690.5 -7 c 128,-1,68
 637 -20 637 -20 577 -20 c 0,0,1
EndSplineSet
EndChar

StartChar: acute
Encoding: 180 180 74
Width: 684
Flags: W
LayerCount: 2
Fore
SplineSet
164 1264 m 1,0,1
 146 1275 146 1275 128.5 1293 c 128,-1,2
 111 1311 111 1311 95.5 1332 c 128,-1,3
 80 1353 80 1353 68 1376 c 128,-1,4
 56 1399 56 1399 50 1421 c 1,5,-1
 383 1793 l 1,6,7
 442 1765 442 1765 485.5 1732.5 c 128,-1,8
 529 1700 529 1700 559 1666 c 128,-1,9
 589 1632 589 1632 607 1596.5 c 128,-1,10
 625 1561 625 1561 634 1527 c 1,11,12
 587 1483 587 1483 530 1443 c 128,-1,13
 473 1403 473 1403 412 1369.5 c 128,-1,14
 351 1336 351 1336 287.5 1309 c 128,-1,15
 224 1282 224 1282 164 1264 c 1,0,1
EndSplineSet
EndChar

StartChar: three
Encoding: 51 51 76
Width: 1140
Flags: W
LayerCount: 2
Fore
SplineSet
43 -77 m 1,0,1
 52 -48 52 -48 65 -18 c 128,-1,2
 78 12 78 12 94.5 39.5 c 128,-1,3
 111 67 111 67 131 89.5 c 128,-1,4
 151 112 151 112 175 127 c 1,5,6
 242 86 242 86 301 59 c 128,-1,7
 360 32 360 32 411.5 16.5 c 128,-1,8
 463 1 463 1 507 -5.5 c 128,-1,9
 551 -12 551 -12 587 -12 c 0,10,11
 609 -12 609 -12 630.5 -8 c 128,-1,12
 652 -4 652 -4 672 8 c 1,13,14
 686 28 686 28 692 58 c 128,-1,15
 698 88 698 88 699 117 c 1,16,17
 699 149 699 149 696 170 c 1,18,19
 676 200 676 200 622.5 236.5 c 128,-1,20
 569 273 569 273 494 308 c 1,21,22
 462 282 462 282 423.5 264.5 c 128,-1,23
 385 247 385 247 348 239 c 1,24,25
 323 247 323 247 299 266 c 128,-1,26
 275 285 275 285 257 311.5 c 128,-1,27
 239 338 239 338 228 370 c 128,-1,28
 217 402 217 402 218 436 c 0,29,30
 220 483 220 483 247 528.5 c 128,-1,31
 274 574 274 574 337 609 c 1,32,33
 360 609 360 609 397.5 598 c 128,-1,34
 435 587 435 587 471 563 c 1,35,-1
 509 789 l 1,36,-1
 127 724 l 1,37,38
 112 741 112 741 96.5 761 c 128,-1,39
 81 781 81 781 69 806.5 c 128,-1,40
 57 832 57 832 50 863.5 c 128,-1,41
 43 895 43 895 44 935 c 0,42,43
 46 993 46 993 64 1039 c 128,-1,44
 82 1085 82 1085 112.5 1117.5 c 128,-1,45
 143 1150 143 1150 183.5 1167.5 c 128,-1,46
 224 1185 224 1185 271 1185 c 0,47,48
 316 1185 316 1185 363.5 1174 c 128,-1,49
 411 1163 411 1163 457.5 1145 c 128,-1,50
 504 1127 504 1127 548 1103 c 128,-1,51
 592 1079 592 1079 630 1053 c 1,52,53
 648 1073 648 1073 682.5 1095.5 c 128,-1,54
 717 1118 717 1118 759 1137.5 c 128,-1,55
 801 1157 801 1157 845 1170 c 128,-1,56
 889 1183 889 1183 927 1185 c 1,57,58
 960 1171 960 1171 984.5 1142.5 c 128,-1,59
 1009 1114 1009 1114 1025.5 1075 c 128,-1,60
 1042 1036 1042 1036 1049.5 989.5 c 128,-1,61
 1057 943 1057 943 1056 894 c 0,62,63
 1054 831 1054 831 1036 777 c 1,64,65
 1016 764 1016 764 989 759 c 128,-1,66
 962 754 962 754 934 754 c 0,67,68
 908 754 908 754 884 756.5 c 128,-1,69
 860 759 860 759 844 761 c 1,70,71
 818 716 818 716 769.5 648 c 128,-1,72
 721 580 721 580 654 502 c 1,73,74
 661 503 661 503 668 503 c 128,-1,75
 675 503 675 503 682 503 c 0,76,77
 756 503 756 503 826 480 c 128,-1,78
 896 457 896 457 950 416 c 128,-1,79
 1004 375 1004 375 1036 317 c 128,-1,80
 1068 259 1068 259 1066 190 c 0,81,82
 1063 72 1063 72 1013.5 -21.5 c 128,-1,83
 964 -115 964 -115 883 -180.5 c 128,-1,84
 802 -246 802 -246 696.5 -280.5 c 128,-1,85
 591 -315 591 -315 475 -315 c 0,86,87
 436 -315 436 -315 391.5 -311.5 c 128,-1,88
 347 -308 347 -308 302.5 -298.5 c 128,-1,89
 258 -289 258 -289 215.5 -272 c 128,-1,90
 173 -255 173 -255 138 -228.5 c 128,-1,91
 103 -202 103 -202 78 -165 c 128,-1,92
 53 -128 53 -128 43 -77 c 1,0,1
EndSplineSet
Substitution2: "'sups' Superscript in Latin lookup 6 subtable" threesuperior
EndChar

StartChar: circumflex
Encoding: 710 710 77
Width: 925
Flags: W
LayerCount: 2
Fore
SplineSet
189 1264 m 1,0,1
 141 1287 141 1287 107 1323.5 c 128,-1,2
 73 1360 73 1360 50 1399 c 1,3,-1
 288 1729 l 1,4,5
 320 1738 320 1738 367.5 1742 c 128,-1,6
 415 1746 415 1746 466 1746 c 0,7,8
 510 1746 510 1746 550 1743.5 c 128,-1,9
 590 1741 590 1741 619 1736 c 1,10,-1
 875 1397 l 1,11,12
 845 1357 845 1357 804.5 1321.5 c 128,-1,13
 764 1286 764 1286 715 1264 c 1,14,15
 640 1306 640 1306 578 1356 c 128,-1,16
 516 1406 516 1406 450 1469 c 1,17,18
 392 1404 392 1404 325 1351.5 c 128,-1,19
 258 1299 258 1299 189 1264 c 1,0,1
EndSplineSet
EndChar

StartChar: Aring
Encoding: 197 197 78
Width: 1405
Flags: W
LayerCount: 2
Fore
SplineSet
-21 92 m 1,0,1
 -21 126 -21 126 -15.5 161 c 128,-1,2
 -10 196 -10 196 0.5 226.5 c 128,-1,3
 11 257 11 257 26 282 c 128,-1,4
 41 307 41 307 61 321 c 1,5,6
 90 311 90 311 113.5 304 c 128,-1,7
 137 297 137 297 172 289 c 1,8,9
 192 369 192 369 217.5 474 c 128,-1,10
 243 579 243 579 272 699 c 128,-1,11
 301 819 301 819 332 949.5 c 128,-1,12
 363 1080 363 1080 393 1210 c 1,13,-1
 152 1236 l 1,14,15
 140 1269 140 1269 134.5 1305.5 c 128,-1,16
 129 1342 129 1342 129 1379 c 0,17,18
 129 1440 129 1440 143 1498 c 1,19,20
 228 1515 228 1515 325.5 1525 c 128,-1,21
 423 1535 423 1535 517 1541 c 1,22,23
 456 1575 456 1575 421.5 1635.5 c 128,-1,24
 387 1696 387 1696 387 1781 c 0,25,26
 387 1844 387 1844 409.5 1889 c 128,-1,27
 432 1934 432 1934 472.5 1963 c 128,-1,28
 513 1992 513 1992 568.5 2006 c 128,-1,29
 624 2020 624 2020 690 2020 c 0,30,31
 750 2020 750 2020 802.5 2007.5 c 128,-1,32
 855 1995 855 1995 894.5 1967 c 128,-1,33
 934 1939 934 1939 956.5 1894.5 c 128,-1,34
 979 1850 979 1850 979 1786 c 0,35,36
 979 1708 979 1708 948.5 1648 c 128,-1,37
 918 1588 918 1588 863 1551 c 1,38,39
 885 1551 885 1551 906.5 1550.5 c 128,-1,40
 928 1550 928 1550 950 1550 c 1,41,-1
 1013 1514 l 1,42,43
 1063 1376 1063 1376 1110.5 1219.5 c 128,-1,44
 1158 1063 1158 1063 1201 900.5 c 128,-1,45
 1244 738 1244 738 1282.5 576.5 c 128,-1,46
 1321 415 1321 415 1354 267 c 0,47,48
 1360 240 1360 240 1366.5 210 c 128,-1,49
 1373 180 1373 180 1373 149 c 0,50,51
 1373 113 1373 113 1360.5 78 c 128,-1,52
 1348 43 1348 43 1313 13 c 1,53,54
 1278 -1 1278 -1 1230 -10.5 c 128,-1,55
 1182 -20 1182 -20 1110 -20 c 0,56,57
 1087 -20 1087 -20 1059 -17.5 c 128,-1,58
 1031 -15 1031 -15 1003.5 -9.5 c 128,-1,59
 976 -4 976 -4 953.5 5.5 c 128,-1,60
 931 15 931 15 920 29 c 1,61,-1
 932 287 l 1,62,-1
 907 421 l 1,63,64
 870 419 870 419 831.5 418 c 128,-1,65
 793 417 793 417 754 417 c 0,66,67
 660 417 660 417 578 423 c 1,68,69
 550 297 550 297 529.5 212 c 128,-1,70
 509 127 509 127 481 75 c 128,-1,71
 453 23 453 23 409 1 c 128,-1,72
 365 -21 365 -21 289 -21 c 0,73,74
 242 -21 242 -21 195 -12 c 128,-1,75
 148 -3 148 -3 106.5 13 c 128,-1,76
 65 29 65 29 31.5 49 c 128,-1,77
 -2 69 -2 69 -21 92 c 1,0,1
676 1700 m 0,78,79
 701 1700 701 1700 722 1702.5 c 128,-1,80
 743 1705 743 1705 757 1710 c 1,81,82
 759 1719 759 1719 762.5 1730 c 128,-1,83
 766 1741 766 1741 765 1754 c 0,84,85
 764 1779 764 1779 744.5 1793.5 c 128,-1,86
 725 1808 725 1808 682 1808 c 0,87,88
 659 1808 659 1808 635 1806 c 128,-1,89
 611 1804 611 1804 600 1801 c 1,90,91
 595 1795 595 1795 594 1786 c 128,-1,92
 593 1777 593 1777 593 1769 c 0,93,94
 593 1734 593 1734 617 1717 c 128,-1,95
 641 1700 641 1700 676 1700 c 0,78,79
868 708 m 1,96,-1
 762 1201 l 1,97,-1
 716 1201 l 1,98,-1
 644 708 l 1,99,-1
 868 708 l 1,96,-1
EndSplineSet
EndChar

StartChar: lslash
Encoding: 322 322 80
Width: 845
Flags: W
LayerCount: 2
Fore
SplineSet
171 223 m 0,0,1
 172 277 172 277 172 359 c 128,-1,2
 172 441 172 441 173 545 c 1,3,4
 138 526 138 526 109.5 512 c 128,-1,5
 81 498 81 498 60 491 c 1,6,7
 44 500 44 500 29.5 524 c 128,-1,8
 15 548 15 548 3.5 578 c 128,-1,9
 -8 608 -8 608 -16 639 c 128,-1,10
 -24 670 -24 670 -26 693 c 1,11,-1
 178 824 l 1,12,13
 180 934 180 934 185 1050.5 c 128,-1,14
 190 1167 190 1167 198 1287 c 1,15,-1
 75 1308 l 1,16,17
 68 1337 68 1337 63 1361 c 128,-1,18
 58 1385 58 1385 55 1407.5 c 128,-1,19
 52 1430 52 1430 51 1453 c 128,-1,20
 50 1476 50 1476 51 1503 c 1,21,22
 66 1521 66 1521 94 1542 c 128,-1,23
 122 1563 122 1563 160.5 1581 c 128,-1,24
 199 1599 199 1599 246 1611 c 128,-1,25
 293 1623 293 1623 344 1623 c 0,26,27
 471 1623 471 1623 538 1559 c 128,-1,28
 605 1495 605 1495 603 1364 c 0,29,30
 602 1319 602 1319 596.5 1246 c 128,-1,31
 591 1173 591 1173 580 1080 c 1,32,33
 620 1106 620 1106 657.5 1128.5 c 128,-1,34
 695 1151 695 1151 730 1174 c 1,35,36
 753 1163 753 1163 777.5 1139 c 128,-1,37
 802 1115 802 1115 821.5 1083.5 c 128,-1,38
 841 1052 841 1052 853 1016 c 128,-1,39
 865 980 865 980 862 946 c 1,40,41
 803 909 803 909 731 860.5 c 128,-1,42
 659 812 659 812 555 760 c 1,43,44
 540 637 540 637 521.5 516.5 c 128,-1,45
 503 396 503 396 481 293 c 1,46,-1
 483 291 l 1,47,-1
 719 374 l 1,48,49
 760 339 760 339 782 294.5 c 128,-1,50
 804 250 804 250 810 196 c 1,51,52
 749 136 749 136 680 88 c 0,53,54
 651 68 651 68 617 48.5 c 128,-1,55
 583 29 583 29 545.5 14 c 128,-1,56
 508 -1 508 -1 469 -10.5 c 128,-1,57
 430 -20 430 -20 390 -20 c 0,58,59
 347 -20 347 -20 307 -9 c 128,-1,60
 267 2 267 2 236 29.5 c 128,-1,61
 205 57 205 57 187 104 c 128,-1,62
 169 151 169 151 171 223 c 0,0,1
EndSplineSet
EndChar

StartChar: h
Encoding: 104 104 82
Width: 1299
Flags: W
LayerCount: 2
Fore
SplineSet
146 34 m 1,0,1
 141 68 141 68 137 116 c 0,2,3
 134 156 134 156 131.5 214.5 c 128,-1,4
 129 273 129 273 129 348 c 0,5,6
 129 393 129 393 128.5 473 c 128,-1,7
 128 553 128 553 128 650 c 0,8,9
 128 733 128 733 128.5 823 c 128,-1,10
 129 913 129 913 131 998 c 128,-1,11
 133 1083 133 1083 136.5 1158.5 c 128,-1,12
 140 1234 140 1234 146 1288 c 1,13,-1
 33 1308 l 1,14,15
 20 1357 20 1357 14.5 1406 c 128,-1,16
 9 1455 9 1455 9 1506 c 1,17,18
 18 1518 18 1518 43.5 1538 c 128,-1,19
 69 1558 69 1558 104.5 1577 c 128,-1,20
 140 1596 140 1596 182.5 1609.5 c 128,-1,21
 225 1623 225 1623 269 1623 c 0,22,23
 393 1623 393 1623 452.5 1560.5 c 128,-1,24
 512 1498 512 1498 512 1367 c 0,25,26
 512 1342 512 1342 509.5 1296.5 c 128,-1,27
 507 1251 507 1251 502.5 1192 c 128,-1,28
 498 1133 498 1133 491 1065 c 128,-1,29
 484 997 484 997 475 926 c 128,-1,30
 466 855 466 855 454.5 785.5 c 128,-1,31
 443 716 443 716 429 655 c 1,32,33
 429 648 429 648 436 643.5 c 128,-1,34
 443 639 443 639 451 639 c 0,35,36
 460 639 460 639 463 646 c 1,37,38
 476 700 476 700 492.5 760.5 c 128,-1,39
 509 821 509 821 531.5 881 c 128,-1,40
 554 941 554 941 584 996 c 128,-1,41
 614 1051 614 1051 655 1093 c 128,-1,42
 696 1135 696 1135 750 1160 c 128,-1,43
 804 1185 804 1185 874 1185 c 0,44,45
 961 1185 961 1185 1018.5 1155.5 c 128,-1,46
 1076 1126 1076 1126 1110.5 1078 c 128,-1,47
 1145 1030 1145 1030 1159.5 968.5 c 128,-1,48
 1174 907 1174 907 1174 842 c 0,49,50
 1174 756 1174 756 1159.5 673 c 128,-1,51
 1145 590 1145 590 1125 517.5 c 128,-1,52
 1105 445 1105 445 1084.5 387 c 128,-1,53
 1064 329 1064 329 1052 293 c 1,54,-1
 1054 291 l 1,55,-1
 1202 353 l 1,56,57
 1243 318 1243 318 1265 273.5 c 128,-1,58
 1287 229 1287 229 1293 175 c 1,59,60
 1256 120 1256 120 1207 77 c 0,61,62
 1186 59 1186 59 1160 41.5 c 128,-1,63
 1134 24 1134 24 1103 10.5 c 128,-1,64
 1072 -3 1072 -3 1036.5 -11.5 c 128,-1,65
 1001 -20 1001 -20 961 -20 c 0,66,67
 919 -20 919 -20 880.5 -10 c 128,-1,68
 842 0 842 0 812 25.5 c 128,-1,69
 782 51 782 51 764 94.5 c 128,-1,70
 746 138 746 138 746 205 c 0,71,72
 746 257 746 257 748.5 328.5 c 128,-1,73
 751 400 751 400 754.5 474.5 c 128,-1,74
 758 549 758 549 762 617.5 c 128,-1,75
 766 686 766 686 770 731 c 1,76,77
 754 748 754 748 738 754 c 128,-1,78
 722 760 722 760 706 761 c 1,79,80
 693 744 693 744 675 714 c 128,-1,81
 657 684 657 684 637.5 647.5 c 128,-1,82
 618 611 618 611 598 571.5 c 128,-1,83
 578 532 578 532 560 495 c 128,-1,84
 542 458 542 458 528 427.5 c 128,-1,85
 514 397 514 397 507 379 c 0,86,87
 506 374 506 374 505.5 367 c 128,-1,88
 505 360 505 360 505 352 c 0,89,90
 505 327 505 327 509 292 c 128,-1,91
 513 257 513 257 520 217.5 c 128,-1,92
 527 178 527 178 536.5 137 c 128,-1,93
 546 96 546 96 557 60 c 1,94,95
 540 28 540 28 485.5 4 c 128,-1,96
 431 -20 431 -20 345 -20 c 0,97,98
 282 -20 282 -20 243.5 -12 c 128,-1,99
 205 -4 205 -4 183 7 c 1,100,101
 157 18 157 18 146 34 c 1,0,1
EndSplineSet
EndChar

StartChar: ellipsis
Encoding: 8230 8230 95
Width: 2044
Flags: W
LayerCount: 2
Fore
SplineSet
1450 183 m 0,0,1
 1450 225 1450 225 1463 264.5 c 128,-1,2
 1476 304 1476 304 1505.5 334 c 128,-1,3
 1535 364 1535 364 1583.5 382.5 c 128,-1,4
 1632 401 1632 401 1703 401 c 256,5,6
 1774 401 1774 401 1822.5 382.5 c 128,-1,7
 1871 364 1871 364 1900.5 334 c 128,-1,8
 1930 304 1930 304 1943 264.5 c 128,-1,9
 1956 225 1956 225 1956 183 c 0,10,11
 1956 142 1956 142 1934.5 105 c 128,-1,12
 1913 68 1913 68 1877.5 40 c 128,-1,13
 1842 12 1842 12 1796.5 -4 c 128,-1,14
 1751 -20 1751 -20 1703 -20 c 0,15,16
 1649 -20 1649 -20 1602.5 0 c 128,-1,17
 1556 20 1556 20 1522.5 50.5 c 128,-1,18
 1489 81 1489 81 1469.5 116.5 c 128,-1,19
 1450 152 1450 152 1450 183 c 0,0,1
769 183 m 0,20,21
 769 225 769 225 782 264.5 c 128,-1,22
 795 304 795 304 824.5 334 c 128,-1,23
 854 364 854 364 902.5 382.5 c 128,-1,24
 951 401 951 401 1022 401 c 256,25,26
 1093 401 1093 401 1141.5 382.5 c 128,-1,27
 1190 364 1190 364 1219.5 334 c 128,-1,28
 1249 304 1249 304 1262 264.5 c 128,-1,29
 1275 225 1275 225 1275 183 c 0,30,31
 1275 142 1275 142 1253.5 105 c 128,-1,32
 1232 68 1232 68 1196.5 40 c 128,-1,33
 1161 12 1161 12 1115.5 -4 c 128,-1,34
 1070 -20 1070 -20 1022 -20 c 0,35,36
 968 -20 968 -20 921.5 0 c 128,-1,37
 875 20 875 20 841.5 50.5 c 128,-1,38
 808 81 808 81 788.5 116.5 c 128,-1,39
 769 152 769 152 769 183 c 0,20,21
88 183 m 0,40,41
 88 225 88 225 101 264.5 c 128,-1,42
 114 304 114 304 143.5 334 c 128,-1,43
 173 364 173 364 221.5 382.5 c 128,-1,44
 270 401 270 401 341 401 c 256,45,46
 412 401 412 401 460.5 382.5 c 128,-1,47
 509 364 509 364 538.5 334 c 128,-1,48
 568 304 568 304 581 264.5 c 128,-1,49
 594 225 594 225 594 183 c 0,50,51
 594 142 594 142 572.5 105 c 128,-1,52
 551 68 551 68 515.5 40 c 128,-1,53
 480 12 480 12 434.5 -4 c 128,-1,54
 389 -20 389 -20 341 -20 c 0,55,56
 287 -20 287 -20 240.5 0 c 128,-1,57
 194 20 194 20 160.5 50.5 c 128,-1,58
 127 81 127 81 107.5 116.5 c 128,-1,59
 88 152 88 152 88 183 c 0,40,41
EndSplineSet
EndChar

StartChar: seven
Encoding: 55 55 96
Width: 1111
Flags: W
LayerCount: 2
Fore
SplineSet
136 -92 m 1,0,1
 233 10 233 10 313 114 c 128,-1,2
 393 218 393 218 458.5 328.5 c 128,-1,3
 524 439 524 439 575 558 c 128,-1,4
 626 677 626 677 665 809 c 1,5,-1
 408 840 l 1,6,-1
 365 545 l 1,7,-1
 180 505 l 1,8,9
 121 583 121 583 86.5 688.5 c 128,-1,10
 52 794 52 794 52 912 c 0,11,12
 52 979 52 979 76.5 1030 c 128,-1,13
 101 1081 101 1081 142.5 1115.5 c 128,-1,14
 184 1150 184 1150 237.5 1167.5 c 128,-1,15
 291 1185 291 1185 349 1185 c 0,16,17
 392 1185 392 1185 448 1176.5 c 128,-1,18
 504 1168 504 1168 564 1153.5 c 128,-1,19
 624 1139 624 1139 684.5 1119.5 c 128,-1,20
 745 1100 745 1100 798 1077 c 1,21,22
 814 1096 814 1096 836 1114.5 c 128,-1,23
 858 1133 858 1133 884 1148 c 128,-1,24
 910 1163 910 1163 939 1173 c 128,-1,25
 968 1183 968 1183 997 1185 c 1,26,27
 1064 1148 1064 1148 1094 1080.5 c 128,-1,28
 1124 1013 1124 1013 1124 932 c 0,29,30
 1124 902 1124 902 1119.5 873.5 c 128,-1,31
 1115 845 1115 845 1109 821 c 128,-1,32
 1103 797 1103 797 1096 779 c 128,-1,33
 1089 761 1089 761 1083 754 c 1,34,35
 1071 754 1071 754 1054 754.5 c 128,-1,36
 1037 755 1037 755 1017.5 756.5 c 128,-1,37
 998 758 998 758 977.5 760 c 128,-1,38
 957 762 957 762 939 765 c 1,39,40
 928 700 928 700 911 621.5 c 128,-1,41
 894 543 894 543 870.5 457 c 128,-1,42
 847 371 847 371 817.5 283 c 128,-1,43
 788 195 788 195 753 112 c 128,-1,44
 718 29 718 29 676 -45.5 c 128,-1,45
 634 -120 634 -120 586.5 -177 c 128,-1,46
 539 -234 539 -234 485.5 -270.5 c 128,-1,47
 432 -307 432 -307 372 -315 c 1,48,49
 343 -304 343 -304 304.5 -284 c 128,-1,50
 266 -264 266 -264 231 -235.5 c 128,-1,51
 196 -207 196 -207 169 -170.5 c 128,-1,52
 142 -134 142 -134 136 -92 c 1,0,1
EndSplineSet
EndChar

StartChar: zero
Encoding: 48 48 97
Width: 1266
Flags: W
LayerCount: 2
Fore
SplineSet
84 581 m 1,0,1
 87 712 87 712 120 823 c 128,-1,2
 153 934 153 934 221 1014.5 c 128,-1,3
 289 1095 289 1095 393 1140 c 128,-1,4
 497 1185 497 1185 642 1185 c 0,5,6
 790 1185 790 1185 894 1142 c 128,-1,7
 998 1099 998 1099 1062.5 1020 c 128,-1,8
 1127 941 1127 941 1155.5 829.5 c 128,-1,9
 1184 718 1184 718 1182 581 c 0,10,11
 1180 451 1180 451 1144.5 341 c 128,-1,12
 1109 231 1109 231 1039 150.5 c 128,-1,13
 969 70 969 70 864.5 25 c 128,-1,14
 760 -20 760 -20 621 -20 c 0,15,16
 479 -20 479 -20 376.5 23.5 c 128,-1,17
 274 67 274 67 208.5 146 c 128,-1,18
 143 225 143 225 112.5 336 c 128,-1,19
 82 447 82 447 84 581 c 1,0,1
515 289 m 1,20,21
 521 282 521 282 537.5 277 c 128,-1,22
 554 272 554 272 576 269 c 128,-1,23
 598 266 598 266 622 264.5 c 128,-1,24
 646 263 646 263 669 263 c 0,25,26
 698 263 698 263 719 265 c 128,-1,27
 740 267 740 267 745 271 c 1,28,29
 757 292 757 292 766 322.5 c 128,-1,30
 775 353 775 353 781 390 c 128,-1,31
 787 427 787 427 790 468.5 c 128,-1,32
 793 510 793 510 793 552 c 0,33,34
 793 592 793 592 790.5 630.5 c 128,-1,35
 788 669 788 669 783 703.5 c 128,-1,36
 778 738 778 738 770.5 767 c 128,-1,37
 763 796 763 796 754 816 c 1,38,39
 748 822 748 822 734 827 c 128,-1,40
 720 832 720 832 702 835 c 128,-1,41
 684 838 684 838 664 840 c 128,-1,42
 644 842 644 842 628 842 c 0,43,44
 615 842 615 842 599 841.5 c 128,-1,45
 583 841 583 841 568.5 839.5 c 128,-1,46
 554 838 554 838 542.5 836 c 128,-1,47
 531 834 531 834 526 831 c 1,48,49
 498 785 498 785 487 720 c 128,-1,50
 476 655 476 655 476 584 c 0,51,52
 476 543 476 543 479 502.5 c 128,-1,53
 482 462 482 462 487.5 424 c 128,-1,54
 493 386 493 386 500 351.5 c 128,-1,55
 507 317 507 317 515 289 c 1,20,21
EndSplineSet
EndChar

StartChar: five
Encoding: 53 53 98
Width: 1086
Flags: W
LayerCount: 2
Fore
SplineSet
14 -79 m 1,0,1
 22 -50 22 -50 34.5 -21.5 c 128,-1,2
 47 7 47 7 62.5 33 c 128,-1,3
 78 59 78 59 98 80.5 c 128,-1,4
 118 102 118 102 141 117 c 1,5,6
 211 75 211 75 269.5 47.5 c 128,-1,7
 328 20 328 20 376.5 3.5 c 128,-1,8
 425 -13 425 -13 464 -19.5 c 128,-1,9
 503 -26 503 -26 535 -26 c 0,10,11
 564 -26 564 -26 592.5 -22 c 128,-1,12
 621 -18 621 -18 640 -12 c 1,13,14
 645 3 645 3 648.5 25.5 c 128,-1,15
 652 48 652 48 654.5 72 c 128,-1,16
 657 96 657 96 658 118 c 128,-1,17
 659 140 659 140 659 154 c 0,18,19
 659 183 659 183 655.5 211 c 128,-1,20
 652 239 652 239 648 252 c 1,21,22
 607 284 607 284 553 303 c 128,-1,23
 499 322 499 322 436 332 c 1,24,25
 401 297 401 297 361.5 271.5 c 128,-1,26
 322 246 322 246 290 240 c 1,27,28
 260 249 260 249 234 267 c 128,-1,29
 208 285 208 285 189.5 308 c 128,-1,30
 171 331 171 331 160.5 357 c 128,-1,31
 150 383 150 383 150 409 c 0,32,33
 150 457 150 457 165.5 486.5 c 128,-1,34
 181 516 181 516 198 539 c 1,35,-1
 200 539 l 1,36,37
 178 596 178 596 157.5 656.5 c 128,-1,38
 137 717 137 717 121 777 c 128,-1,39
 105 837 105 837 95.5 895.5 c 128,-1,40
 86 954 86 954 86 1008 c 0,41,42
 86 1039 86 1039 90 1070 c 128,-1,43
 94 1101 94 1101 103 1132 c 1,44,45
 148 1150 148 1150 193 1157.5 c 128,-1,46
 238 1165 238 1165 279 1165 c 0,47,48
 326 1165 326 1165 386 1154.5 c 128,-1,49
 446 1144 446 1144 541 1120 c 1,50,-1
 902 1185 l 1,51,52
 922 1171 922 1171 937.5 1147.5 c 128,-1,53
 953 1124 953 1124 964 1094.5 c 128,-1,54
 975 1065 975 1065 980.5 1031 c 128,-1,55
 986 997 986 997 986 962 c 0,56,57
 986 904 986 904 970 856 c 128,-1,58
 954 808 954 808 919 776 c 1,59,60
 845 746 845 746 773 746 c 0,61,62
 683 746 683 746 606.5 774 c 128,-1,63
 530 802 530 802 455 870 c 1,64,-1
 438 581 l 1,65,66
 513 612 513 612 597 612 c 0,67,68
 676 612 676 612 753.5 587.5 c 128,-1,69
 831 563 831 563 892.5 511.5 c 128,-1,70
 954 460 954 460 991.5 379.5 c 128,-1,71
 1029 299 1029 299 1029 188 c 0,72,73
 1029 70 1029 70 979 -23.5 c 128,-1,74
 929 -117 929 -117 846 -181.5 c 128,-1,75
 763 -246 763 -246 655.5 -280.5 c 128,-1,76
 548 -315 548 -315 432 -315 c 0,77,78
 401 -315 401 -315 361 -311.5 c 128,-1,79
 321 -308 321 -308 278.5 -299 c 128,-1,80
 236 -290 236 -290 193.5 -273.5 c 128,-1,81
 151 -257 151 -257 115 -230.5 c 128,-1,82
 79 -204 79 -204 52 -167 c 128,-1,83
 25 -130 25 -130 14 -79 c 1,0,1
EndSplineSet
EndChar

StartChar: eight
Encoding: 56 56 99
Width: 1199
Flags: W
LayerCount: 2
Fore
SplineSet
78 416 m 0,0,1
 78 487 78 487 101 540.5 c 128,-1,2
 124 594 124 594 160.5 635.5 c 128,-1,3
 197 677 197 677 243 709 c 128,-1,4
 289 741 289 741 335 770 c 1,5,6
 301 791 301 791 262.5 825.5 c 128,-1,7
 224 860 224 860 192 904.5 c 128,-1,8
 160 949 160 949 138.5 1002.5 c 128,-1,9
 117 1056 117 1056 117 1116 c 0,10,11
 117 1231 117 1231 156.5 1313.5 c 128,-1,12
 196 1396 196 1396 263.5 1448.5 c 128,-1,13
 331 1501 331 1501 421 1525.5 c 128,-1,14
 511 1550 511 1550 611 1550 c 0,15,16
 725 1550 725 1550 816 1527 c 128,-1,17
 907 1504 907 1504 970 1456.5 c 128,-1,18
 1033 1409 1033 1409 1067 1337 c 128,-1,19
 1101 1265 1101 1265 1101 1167 c 0,20,21
 1101 1103 1101 1103 1078.5 1049.5 c 128,-1,22
 1056 996 1056 996 1021.5 952 c 128,-1,23
 987 908 987 908 946 874.5 c 128,-1,24
 905 841 905 841 868 818 c 1,25,26
 996 752 996 752 1067.5 652.5 c 128,-1,27
 1139 553 1139 553 1139 435 c 0,28,29
 1139 331 1139 331 1100.5 247 c 128,-1,30
 1062 163 1062 163 992 104 c 128,-1,31
 922 45 922 45 825.5 12.5 c 128,-1,32
 729 -20 729 -20 614 -20 c 0,33,34
 510 -20 510 -20 413.5 8 c 128,-1,35
 317 36 317 36 242.5 91 c 128,-1,36
 168 146 168 146 123 227.5 c 128,-1,37
 78 309 78 309 78 416 c 0,0,1
694 929 m 1,38,39
 708 948 708 948 721 979.5 c 128,-1,40
 734 1011 734 1011 743.5 1047 c 128,-1,41
 753 1083 753 1083 759 1119.5 c 128,-1,42
 765 1156 765 1156 765 1186 c 0,43,44
 765 1200 765 1200 764 1213 c 128,-1,45
 763 1226 763 1226 761 1238 c 1,46,47
 735 1258 735 1258 697.5 1268 c 128,-1,48
 660 1278 660 1278 618 1278 c 0,49,50
 583 1278 583 1278 550.5 1271.5 c 128,-1,51
 518 1265 518 1265 493 1253 c 1,52,53
 488 1245 488 1245 484 1227 c 128,-1,54
 480 1209 480 1209 477.5 1188 c 128,-1,55
 475 1167 475 1167 474 1146.5 c 128,-1,56
 473 1126 473 1126 473 1114 c 1,57,58
 486 1088 486 1088 510.5 1062.5 c 128,-1,59
 535 1037 535 1037 565 1013 c 128,-1,60
 595 989 595 989 628.5 968 c 128,-1,61
 662 947 662 947 694 929 c 1,38,39
478 261 m 1,62,63
 505 252 505 252 540 246 c 128,-1,64
 575 240 575 240 613 240 c 0,65,66
 655 240 655 240 695 250 c 128,-1,67
 735 260 735 260 764 283 c 1,68,69
 769 293 769 293 772.5 312.5 c 128,-1,70
 776 332 776 332 778.5 354 c 128,-1,71
 781 376 781 376 782 396.5 c 128,-1,72
 783 417 783 417 783 429 c 1,73,74
 766 453 766 453 738.5 478.5 c 128,-1,75
 711 504 711 504 676 529 c 128,-1,76
 641 554 641 554 600.5 578 c 128,-1,77
 560 602 560 602 517 622 c 1,78,79
 472 594 472 594 438.5 547 c 128,-1,80
 405 500 405 500 387 445 c 1,81,82
 389 421 389 421 396.5 394 c 128,-1,83
 404 367 404 367 416 342 c 128,-1,84
 428 317 428 317 444 295.5 c 128,-1,85
 460 274 460 274 478 261 c 1,62,63
EndSplineSet
EndChar

StartChar: four
Encoding: 52 52 100
Width: 1221
Flags: W
LayerCount: 2
Fore
SplineSet
155 5 m 1,0,1
 124 13 124 13 95 35.5 c 128,-1,2
 66 58 66 58 43.5 89 c 128,-1,3
 21 120 21 120 7.5 158 c 128,-1,4
 -6 196 -6 196 -6 235 c 0,5,6
 -6 266 -6 266 -3.5 297.5 c 128,-1,7
 -1 329 -1 329 7 358.5 c 128,-1,8
 15 388 15 388 28.5 414 c 128,-1,9
 42 440 42 440 65 460 c 1,10,11
 71 460 71 460 83.5 458 c 128,-1,12
 96 456 96 456 113.5 453 c 128,-1,13
 131 450 131 450 151 446 c 128,-1,14
 171 442 171 442 191 438 c 1,15,16
 199 489 199 489 205.5 541.5 c 128,-1,17
 212 594 212 594 216.5 651 c 128,-1,18
 221 708 221 708 223.5 770.5 c 128,-1,19
 226 833 226 833 226 904 c 0,20,21
 226 1007 226 1007 220 1135 c 1,22,23
 265 1204 265 1204 333.5 1241.5 c 128,-1,24
 402 1279 402 1279 477 1279 c 0,25,26
 548 1279 548 1279 602 1255.5 c 128,-1,27
 656 1232 656 1232 685 1187 c 1,28,29
 674 1059 674 1059 652.5 957.5 c 128,-1,30
 631 856 631 856 602 768 c 0,31,32
 566 657 566 657 525.5 557.5 c 128,-1,33
 485 458 485 458 441 366 c 1,34,-1
 742 344 l 1,35,36
 734 457 734 457 727 565.5 c 128,-1,37
 720 674 720 674 718 786 c 1,38,39
 765 815 765 815 821.5 831 c 128,-1,40
 878 847 878 847 937 847 c 0,41,42
 989 847 989 847 1038.5 834.5 c 128,-1,43
 1088 822 1088 822 1129 795 c 1,44,45
 1124 695 1124 695 1117.5 573 c 128,-1,46
 1111 451 1111 451 1100.5 318 c 128,-1,47
 1090 185 1090 185 1075.5 47 c 128,-1,48
 1061 -91 1061 -91 1040 -221 c 1,49,50
 999 -244 999 -244 962.5 -254.5 c 128,-1,51
 926 -265 926 -265 880 -265 c 0,52,53
 837 -265 837 -265 801 -257 c 128,-1,54
 765 -249 765 -249 728 -234 c 1,55,-1
 737 33 l 1,56,-1
 362 129 l 1,57,58
 325 75 325 75 274 41.5 c 128,-1,59
 223 8 223 8 155 5 c 1,0,1
EndSplineSet
EndChar

StartChar: six
Encoding: 54 54 101
Width: 1258
Flags: W
LayerCount: 2
Fore
SplineSet
652 -20 m 0,0,1
 493 -20 493 -20 387 33 c 128,-1,2
 281 86 281 86 216.5 182.5 c 128,-1,3
 152 279 152 279 125 415.5 c 128,-1,4
 98 552 98 552 98 719 c 0,5,6
 98 825 98 825 108.5 928 c 128,-1,7
 119 1031 119 1031 146 1123.5 c 128,-1,8
 173 1216 173 1216 218.5 1294 c 128,-1,9
 264 1372 264 1372 333.5 1429 c 128,-1,10
 403 1486 403 1486 499 1518 c 128,-1,11
 595 1550 595 1550 724 1550 c 0,12,13
 770 1550 770 1550 829 1546 c 128,-1,14
 888 1542 888 1542 944.5 1524 c 128,-1,15
 1001 1506 1001 1506 1049 1468.5 c 128,-1,16
 1097 1431 1097 1431 1122 1364 c 1,17,18
 1119 1336 1119 1336 1107 1301 c 128,-1,19
 1095 1266 1095 1266 1076 1232 c 128,-1,20
 1057 1198 1057 1198 1033 1169.5 c 128,-1,21
 1009 1141 1009 1141 982 1126 c 1,22,23
 911 1168 911 1168 826.5 1190.5 c 128,-1,24
 742 1213 742 1213 648 1213 c 0,25,26
 587 1213 587 1213 536 1197 c 1,27,28
 513 1138 513 1138 497.5 1084 c 128,-1,29
 482 1030 482 1030 472 976.5 c 128,-1,30
 462 923 462 923 457.5 866 c 128,-1,31
 453 809 453 809 451 744 c 1,32,-1
 466 744 l 1,33,34
 502 823 502 823 544.5 873.5 c 128,-1,35
 587 924 587 924 633 953 c 128,-1,36
 679 982 679 982 728 993 c 128,-1,37
 777 1004 777 1004 825 1004 c 0,38,39
 918 1004 918 1004 983.5 977 c 128,-1,40
 1049 950 1049 950 1090.5 897 c 128,-1,41
 1132 844 1132 844 1151.5 765.5 c 128,-1,42
 1171 687 1171 687 1171 583 c 0,43,44
 1171 457 1171 457 1139 347 c 128,-1,45
 1107 237 1107 237 1042 155.5 c 128,-1,46
 977 74 977 74 879.5 27 c 128,-1,47
 782 -20 782 -20 652 -20 c 0,0,1
541 303 m 1,48,49
 558 292 558 292 591 283 c 128,-1,50
 624 274 624 274 662 274 c 0,51,52
 697 274 697 274 726.5 280 c 128,-1,53
 756 286 756 286 770 297 c 1,54,55
 778 318 778 318 784.5 346 c 128,-1,56
 791 374 791 374 795.5 405.5 c 128,-1,57
 800 437 800 437 802 471 c 128,-1,58
 804 505 804 505 804 538 c 0,59,60
 804 580 804 580 800.5 618.5 c 128,-1,61
 797 657 797 657 789 686 c 1,62,63
 773 690 773 690 752 690 c 0,64,65
 713 690 713 690 672 676 c 128,-1,66
 631 662 631 662 593 639 c 128,-1,67
 555 616 555 616 521.5 586.5 c 128,-1,68
 488 557 488 557 466 525 c 1,69,70
 469 447 469 447 487.5 395.5 c 128,-1,71
 506 344 506 344 541 303 c 1,48,49
EndSplineSet
EndChar

StartChar: nine
Encoding: 57 57 102
Width: 1244
Flags: W
LayerCount: 2
Fore
SplineSet
135 -102 m 1,0,1
 143 -73 143 -73 155.5 -43 c 128,-1,2
 168 -13 168 -13 183.5 15 c 128,-1,3
 199 43 199 43 219 66 c 128,-1,4
 239 89 239 89 262 104 c 1,5,6
 310 73 310 73 351.5 51 c 128,-1,7
 393 29 393 29 431 15 c 128,-1,8
 469 1 469 1 506 -5.5 c 128,-1,9
 543 -12 543 -12 582 -12 c 0,10,11
 645 -12 645 -12 682 -2.5 c 128,-1,12
 719 7 719 7 735 26 c 1,13,14
 748 59 748 59 759 106 c 128,-1,15
 770 153 770 153 779 205.5 c 128,-1,16
 788 258 788 258 793.5 311.5 c 128,-1,17
 799 365 799 365 802 409 c 1,18,-1
 795 413 l 1,19,20
 758 354 758 354 714.5 314.5 c 128,-1,21
 671 275 671 275 624.5 251 c 128,-1,22
 578 227 578 227 530.5 218 c 128,-1,23
 483 209 483 209 440 211 c 0,24,25
 346 216 346 216 279 255 c 128,-1,26
 212 294 212 294 169.5 358 c 128,-1,27
 127 422 127 422 107 507.5 c 128,-1,28
 87 593 87 593 87 691 c 0,29,30
 87 932 87 932 218.5 1058.5 c 128,-1,31
 350 1185 350 1185 603 1185 c 0,32,33
 762 1185 762 1185 867.5 1135 c 128,-1,34
 973 1085 973 1085 1036 997.5 c 128,-1,35
 1099 910 1099 910 1125.5 791.5 c 128,-1,36
 1152 673 1152 673 1152 536 c 0,37,38
 1152 344 1152 344 1119.5 187 c 128,-1,39
 1087 30 1087 30 1015 -81.5 c 128,-1,40
 943 -193 943 -193 829 -254 c 128,-1,41
 715 -315 715 -315 553 -315 c 0,42,43
 494 -315 494 -315 429 -307.5 c 128,-1,44
 364 -300 364 -300 305.5 -277.5 c 128,-1,45
 247 -255 247 -255 201 -213 c 128,-1,46
 155 -171 155 -171 135 -102 c 1,0,1
466 529 m 1,47,48
 504 521 504 521 541 521 c 0,49,50
 576 521 576 521 612 527.5 c 128,-1,51
 648 534 648 534 680.5 547.5 c 128,-1,52
 713 561 713 561 741 581.5 c 128,-1,53
 769 602 769 602 789 630 c 1,54,55
 787 650 787 650 783.5 681 c 128,-1,56
 780 712 780 712 774 744 c 128,-1,57
 768 776 768 776 759 804 c 128,-1,58
 750 832 750 832 739 846 c 1,59,60
 731 852 731 852 715 856.5 c 128,-1,61
 699 861 699 861 679 864.5 c 128,-1,62
 659 868 659 868 637.5 870 c 128,-1,63
 616 872 616 872 597 872 c 0,64,65
 562 872 562 872 532.5 866 c 128,-1,66
 503 860 503 860 489 849 c 1,67,68
 472 804 472 804 462 751 c 128,-1,69
 452 698 452 698 452 644 c 0,70,71
 452 614 452 614 455 585 c 128,-1,72
 458 556 458 556 466 529 c 1,47,48
EndSplineSet
EndChar

StartChar: cent
Encoding: 162 162 103
Width: 1088
Flags: W
LayerCount: 2
Fore
SplineSet
440 -1 m 1,0,1
 348 23 348 23 279 77.5 c 128,-1,2
 210 132 210 132 163 209 c 128,-1,3
 116 286 116 286 92.5 381 c 128,-1,4
 69 476 69 476 69 581 c 0,5,6
 69 683 69 683 90 776 c 128,-1,7
 111 869 111 869 154.5 944.5 c 128,-1,8
 198 1020 198 1020 265 1075.5 c 128,-1,9
 332 1131 332 1131 425 1159 c 1,10,-1
 391 1535 l 1,11,12
 411 1549 411 1549 442.5 1563 c 128,-1,13
 474 1577 474 1577 511 1587.5 c 128,-1,14
 548 1598 548 1598 588 1604.5 c 128,-1,15
 628 1611 628 1611 665 1611 c 0,16,17
 694 1611 694 1611 719 1607 c 128,-1,18
 744 1603 744 1603 764 1592 c 1,19,20
 766 1515 766 1515 758 1409 c 128,-1,21
 750 1303 750 1303 739 1179 c 1,22,23
 779 1175 779 1175 822 1169 c 128,-1,24
 865 1163 865 1163 907 1155 c 1,25,26
 931 1138 931 1138 948.5 1126 c 128,-1,27
 966 1114 966 1114 981 1101.5 c 128,-1,28
 996 1089 996 1089 1010 1075 c 128,-1,29
 1024 1061 1024 1061 1039 1040 c 1,30,31
 1039 1013 1039 1013 1035 974 c 128,-1,32
 1031 935 1031 935 1024.5 891.5 c 128,-1,33
 1018 848 1018 848 1009 803.5 c 128,-1,34
 1000 759 1000 759 989.5 720.5 c 128,-1,35
 979 682 979 682 968 653 c 128,-1,36
 957 624 957 624 946 612 c 1,37,38
 929 604 929 604 900 599.5 c 128,-1,39
 871 595 871 595 839 595 c 0,40,41
 804 595 804 595 772.5 600 c 128,-1,42
 741 605 741 605 724 615 c 1,43,-1
 703 800 l 1,44,45
 693 811 693 811 666 819 c 128,-1,46
 639 827 639 827 608.5 831.5 c 128,-1,47
 578 836 578 836 550 837.5 c 128,-1,48
 522 839 522 839 510 836 c 1,49,50
 484 785 484 785 475 723 c 128,-1,51
 466 661 466 661 466 593 c 2,52,-1
 466 556 l 2,53,54
 466 522 466 522 470.5 478.5 c 128,-1,55
 475 435 475 435 493 396 c 128,-1,56
 511 357 511 357 547 330.5 c 128,-1,57
 583 304 583 304 646 304 c 0,58,59
 654 304 654 304 661 304.5 c 128,-1,60
 668 305 668 305 676 306 c 0,61,62
 709 309 709 309 742 319 c 128,-1,63
 775 329 775 329 808 342 c 128,-1,64
 841 355 841 355 874 370 c 128,-1,65
 907 385 907 385 941 400 c 1,66,67
 959 382 959 382 974 363.5 c 128,-1,68
 989 345 989 345 1001 321.5 c 128,-1,69
 1013 298 1013 298 1021.5 269 c 128,-1,70
 1030 240 1030 240 1034 203 c 1,71,72
 1021 188 1021 188 994.5 161 c 128,-1,73
 968 134 968 134 929 104.5 c 128,-1,74
 890 75 890 75 839.5 47 c 128,-1,75
 789 19 789 19 728 1 c 1,76,-1
 703 -246 l 1,77,78
 686 -275 686 -275 650 -292 c 128,-1,79
 614 -309 614 -309 573 -309 c 0,80,81
 544 -309 544 -309 515.5 -299 c 128,-1,82
 487 -289 487 -289 465 -267 c 1,83,-1
 440 -1 l 1,84,-1
 440 -1 l 1,0,1
EndSplineSet
EndChar

StartChar: dollar
Encoding: 36 36 104
Width: 1110
Flags: W
LayerCount: 2
Fore
SplineSet
60 173 m 1,0,1
 58 184 58 184 57 195.5 c 128,-1,2
 56 207 56 207 56 219 c 0,3,4
 56 267 56 267 74 319.5 c 128,-1,5
 92 372 92 372 134 420 c 1,6,7
 190 395 190 395 248 371.5 c 128,-1,8
 306 348 306 348 365.5 329.5 c 128,-1,9
 425 311 425 311 486.5 299.5 c 128,-1,10
 548 288 548 288 612 288 c 0,11,12
 632 288 632 288 654.5 292 c 128,-1,13
 677 296 677 296 691 303 c 1,14,15
 696 314 696 314 698.5 330 c 128,-1,16
 701 346 701 346 702 356 c 0,17,18
 703 390 703 390 681 416.5 c 128,-1,19
 659 443 659 443 626.5 464 c 128,-1,20
 594 485 594 485 558 501 c 128,-1,21
 522 517 522 517 496 531 c 0,22,23
 411 574 411 574 329.5 621 c 128,-1,24
 248 668 248 668 183.5 730 c 128,-1,25
 119 792 119 792 79.5 876 c 128,-1,26
 40 960 40 960 40 1078 c 0,27,28
 40 1161 40 1161 58.5 1235.5 c 128,-1,29
 77 1310 77 1310 117.5 1370 c 128,-1,30
 158 1430 158 1430 223.5 1472 c 128,-1,31
 289 1514 289 1514 382 1534 c 1,32,-1
 358 1799 l 1,33,34
 378 1813 378 1813 409.5 1827 c 128,-1,35
 441 1841 441 1841 478 1851.5 c 128,-1,36
 515 1862 515 1862 555 1868.5 c 128,-1,37
 595 1875 595 1875 632 1875 c 0,38,39
 661 1875 661 1875 686 1871 c 128,-1,40
 711 1867 711 1867 731 1856 c 1,41,42
 733 1796 733 1796 728 1717 c 128,-1,43
 723 1638 723 1638 715 1545 c 1,44,45
 758 1543 758 1543 803.5 1537.5 c 128,-1,46
 849 1532 849 1532 893 1523 c 1,47,48
 941 1494 941 1494 983 1460.5 c 128,-1,49
 1025 1427 1025 1427 1065 1373 c 1,50,51
 1065 1320 1065 1320 1057 1260 c 128,-1,52
 1049 1200 1049 1200 1035.5 1144.5 c 128,-1,53
 1022 1089 1022 1089 1003.5 1043.5 c 128,-1,54
 985 998 985 998 964 974 c 1,55,56
 941 963 941 963 913.5 957.5 c 128,-1,57
 886 952 886 952 844 952 c 0,58,59
 799 952 799 952 772.5 958.5 c 128,-1,60
 746 965 746 965 724 978 c 1,61,-1
 693 1178 l 1,62,63
 660 1187 660 1187 625.5 1193.5 c 128,-1,64
 591 1200 591 1200 561.5 1203.5 c 128,-1,65
 532 1207 532 1207 510.5 1208 c 128,-1,66
 489 1209 489 1209 482 1209 c 1,67,68
 442 1190 442 1190 430 1161 c 128,-1,69
 418 1132 418 1132 418 1096 c 0,70,71
 418 1053 418 1053 440 1023 c 128,-1,72
 462 993 462 993 495 970.5 c 128,-1,73
 528 948 528 948 566 930.5 c 128,-1,74
 604 913 604 913 636 896 c 0,75,76
 717 853 717 853 792.5 809.5 c 128,-1,77
 868 766 868 766 926 711 c 128,-1,78
 984 656 984 656 1019 585 c 128,-1,79
 1054 514 1054 514 1054 417 c 0,80,81
 1054 343 1054 343 1033.5 281 c 128,-1,82
 1013 219 1013 219 977 170 c 128,-1,83
 941 121 941 121 893 85 c 128,-1,84
 845 49 845 49 790 28 c 0,85,86
 776 22 776 22 761.5 17.5 c 128,-1,87
 747 13 747 13 731 8 c 1,88,89
 725 -55 725 -55 719 -119 c 128,-1,90
 713 -183 713 -183 706 -246 c 1,91,92
 689 -275 689 -275 653 -292 c 128,-1,93
 617 -309 617 -309 576 -309 c 0,94,95
 547 -309 547 -309 518.5 -299 c 128,-1,96
 490 -289 490 -289 468 -267 c 1,97,-1
 445 -18 l 1,98,99
 401 -16 401 -16 347.5 -6 c 128,-1,100
 294 4 294 4 241 26 c 128,-1,101
 188 48 188 48 140.5 83.5 c 128,-1,102
 93 119 93 119 60 173 c 1,0,1
EndSplineSet
EndChar

StartChar: Euro
Encoding: 8364 8364 105
Width: 1340
Flags: W
LayerCount: 2
Fore
SplineSet
33 476 m 1,0,1
 31 487 31 487 31 497 c 128,-1,2
 31 507 31 507 31 517 c 0,3,4
 31 559 31 559 41.5 589 c 128,-1,5
 52 619 52 619 72 653 c 1,6,-1
 176 660 l 1,7,8
 173 711 173 711 173 764 c 0,9,10
 173 775 173 775 173 785 c 128,-1,11
 173 795 173 795 174 806 c 1,12,-1
 18 806 l 1,13,14
 16 817 16 817 16 827 c 128,-1,15
 16 837 16 837 16 847 c 0,16,17
 16 889 16 889 26.5 919 c 128,-1,18
 37 949 37 949 57 983 c 1,19,-1
 191 992 l 1,20,21
 212 1113 212 1113 259 1216 c 128,-1,22
 306 1319 306 1319 381.5 1393.5 c 128,-1,23
 457 1468 457 1468 563.5 1510 c 128,-1,24
 670 1552 670 1552 810 1552 c 0,25,26
 845 1552 845 1552 895.5 1548.5 c 128,-1,27
 946 1545 946 1545 1001.5 1538.5 c 128,-1,28
 1057 1532 1057 1532 1112.5 1523 c 128,-1,29
 1168 1514 1168 1514 1215 1503 c 1,30,31
 1239 1489 1239 1489 1256.5 1471 c 128,-1,32
 1274 1453 1274 1453 1287.5 1434.5 c 128,-1,33
 1301 1416 1301 1416 1311 1397.5 c 128,-1,34
 1321 1379 1321 1379 1329 1363 c 1,35,36
 1329 1310 1329 1310 1321 1249.5 c 128,-1,37
 1313 1189 1313 1189 1299.5 1132.5 c 128,-1,38
 1286 1076 1286 1076 1267.5 1030 c 128,-1,39
 1249 984 1249 984 1228 960 c 1,40,41
 1205 949 1205 949 1177.5 941.5 c 128,-1,42
 1150 934 1150 934 1108 934 c 0,43,44
 1019 934 1019 934 975 960 c 1,45,-1
 940 1165 l 1,46,47
 917 1171 917 1171 886 1175 c 128,-1,48
 855 1179 855 1179 821 1181.5 c 128,-1,49
 787 1184 787 1184 754 1184.5 c 128,-1,50
 721 1185 721 1185 696 1185 c 0,51,52
 683 1185 683 1185 660.5 1185 c 128,-1,53
 638 1185 638 1185 626 1184 c 1,54,55
 604 1115 604 1115 587 1021 c 1,56,-1
 829 1038 l 1,57,58
 835 1011 835 1011 835 980 c 0,59,60
 835 938 835 938 824 893.5 c 128,-1,61
 813 849 813 849 792 808 c 1,62,-1
 567 807 l 1,63,-1
 567 772 l 2,64,65
 567 751 567 751 567 730 c 128,-1,66
 567 709 567 709 568 688 c 1,67,-1
 844 708 l 1,68,69
 850 681 850 681 850 650 c 0,70,71
 850 608 850 608 839 563.5 c 128,-1,72
 828 519 828 519 807 478 c 1,73,-1
 592 477 l 1,74,75
 601 436 601 436 616.5 405.5 c 128,-1,76
 632 375 632 375 657 354.5 c 128,-1,77
 682 334 682 334 719.5 323.5 c 128,-1,78
 757 313 757 313 810 313 c 0,79,80
 865 313 865 313 914 322 c 128,-1,81
 963 331 963 331 1008 346.5 c 128,-1,82
 1053 362 1053 362 1096 383 c 128,-1,83
 1139 404 1139 404 1183 429 c 1,84,85
 1202 408 1202 408 1218.5 387 c 128,-1,86
 1235 366 1235 366 1248 341 c 128,-1,87
 1261 316 1261 316 1270 285.5 c 128,-1,88
 1279 255 1279 255 1284 216 c 1,89,90
 1275 198 1275 198 1239 159 c 128,-1,91
 1203 120 1203 120 1140.5 80 c 128,-1,92
 1078 40 1078 40 989.5 10 c 128,-1,93
 901 -20 901 -20 786 -20 c 0,94,95
 653 -20 653 -20 553 14 c 128,-1,96
 453 48 453 48 381.5 112 c 128,-1,97
 310 176 310 176 264.5 268 c 128,-1,98
 219 360 219 360 197 476 c 1,99,-1
 33 476 l 1,100,-1
 33 476 l 1,0,1
EndSplineSet
EndChar

StartChar: sterling
Encoding: 163 163 106
Width: 1182
Flags: W
LayerCount: 2
Fore
SplineSet
212 -20 m 1,0,1
 181 -15 181 -15 154.5 5 c 128,-1,2
 128 25 128 25 109 56 c 128,-1,3
 90 87 90 87 79 128 c 128,-1,4
 68 169 68 169 68 217 c 0,5,6
 68 260 68 260 77.5 306.5 c 128,-1,7
 87 353 87 353 108 401 c 1,8,9
 120 401 120 401 141.5 398 c 128,-1,10
 163 395 163 395 190 389 c 128,-1,11
 217 383 217 383 246.5 375 c 128,-1,12
 276 367 276 367 303 357 c 1,13,14
 303 365 303 365 303.5 373 c 128,-1,15
 304 381 304 381 304 389 c 0,16,17
 304 449 304 449 293 511 c 128,-1,18
 282 573 282 573 267 637 c 1,19,-1
 89 637 l 1,20,21
 82 653 82 653 78.5 679 c 128,-1,22
 75 705 75 705 75 734 c 0,23,24
 75 766 75 766 80.5 796.5 c 128,-1,25
 86 827 86 827 98 844 c 1,26,-1
 219 853 l 1,27,28
 211 896 211 896 206 938.5 c 128,-1,29
 201 981 201 981 201 1023 c 0,30,31
 201 1151 201 1151 230.5 1249.5 c 128,-1,32
 260 1348 260 1348 324.5 1414.5 c 128,-1,33
 389 1481 389 1481 491.5 1515.5 c 128,-1,34
 594 1550 594 1550 741 1550 c 0,35,36
 804 1550 804 1550 869.5 1539.5 c 128,-1,37
 935 1529 935 1529 994 1510.5 c 128,-1,38
 1053 1492 1053 1492 1099 1465.5 c 128,-1,39
 1145 1439 1145 1439 1169 1406 c 1,40,41
 1168 1383 1168 1383 1162 1353.5 c 128,-1,42
 1156 1324 1156 1324 1145.5 1292 c 128,-1,43
 1135 1260 1135 1260 1121 1228 c 128,-1,44
 1107 1196 1107 1196 1092 1168 c 128,-1,45
 1077 1140 1077 1140 1060.5 1119 c 128,-1,46
 1044 1098 1044 1098 1029 1088 c 1,47,48
 964 1119 964 1119 905.5 1139 c 128,-1,49
 847 1159 847 1159 796.5 1170.5 c 128,-1,50
 746 1182 746 1182 704 1186.5 c 128,-1,51
 662 1191 662 1191 631 1191 c 1,52,53
 617 1186 617 1186 608.5 1165 c 128,-1,54
 600 1144 600 1144 595 1111 c 128,-1,55
 590 1078 590 1078 588 1034.5 c 128,-1,56
 586 991 586 991 586 941 c 2,57,-1
 586 881 l 1,58,-1
 816 899 l 1,59,60
 823 888 823 888 826 871.5 c 128,-1,61
 829 855 829 855 829 834 c 0,62,63
 829 806 829 806 824.5 774.5 c 128,-1,64
 820 743 820 743 812.5 715 c 128,-1,65
 805 687 805 687 796 666 c 128,-1,66
 787 645 787 645 779 639 c 1,67,-1
 589 638 l 1,68,69
 588 544 588 544 581 462.5 c 128,-1,70
 574 381 574 381 552 330 c 1,71,-1
 833 330 l 1,72,-1
 906 514 l 1,73,-1
 919 514 l 2,74,75
 964 514 964 514 1015 505.5 c 128,-1,76
 1066 497 1066 497 1108 482 c 1,77,78
 1116 461 1116 461 1124.5 434.5 c 128,-1,79
 1133 408 1133 408 1140 378 c 128,-1,80
 1147 348 1147 348 1151.5 315.5 c 128,-1,81
 1156 283 1156 283 1156 250 c 0,82,83
 1156 197 1156 197 1139 148.5 c 128,-1,84
 1122 100 1122 100 1089.5 62.5 c 128,-1,85
 1057 25 1057 25 1009.5 2.5 c 128,-1,86
 962 -20 962 -20 901 -20 c 0,87,88
 855 -20 855 -20 794 -4.5 c 128,-1,89
 733 11 733 11 671.5 35.5 c 128,-1,90
 610 60 610 60 554.5 90.5 c 128,-1,91
 499 121 499 121 463 150 c 1,92,93
 421 77 421 77 362.5 32 c 128,-1,94
 304 -13 304 -13 212 -20 c 1,0,1
EndSplineSet
EndChar

StartChar: yen
Encoding: 165 165 107
Width: 1245
Flags: W
LayerCount: 2
Fore
SplineSet
173 35 m 1,0,1
 169 65 169 65 166 94 c 128,-1,2
 163 123 163 123 163 149 c 256,3,4
 163 175 163 175 167.5 198.5 c 128,-1,5
 172 222 172 222 184 242 c 1,6,-1
 390 251 l 1,7,-1
 390 331 l 2,8,9
 390 351 390 351 390 371 c 128,-1,10
 390 391 390 391 391 411 c 1,11,-1
 145 416 l 1,12,13
 142 433 142 433 138.5 464 c 128,-1,14
 135 495 135 495 135 527 c 0,15,16
 135 556 135 556 139 582 c 128,-1,17
 143 608 143 608 154 623 c 1,18,-1
 360 631 l 1,19,20
 323 682 323 682 278.5 750 c 128,-1,21
 234 818 234 818 189.5 893.5 c 128,-1,22
 145 969 145 969 105 1049 c 128,-1,23
 65 1129 65 1129 38 1205 c 1,24,-1
 34 1204 l 1,25,-1
 -100 1225 l 1,26,27
 -113 1277 -113 1277 -118.5 1318.5 c 128,-1,28
 -124 1360 -124 1360 -124 1407 c 2,29,-1
 -124 1430 l 1,30,31
 -109 1448 -109 1448 -81 1469 c 128,-1,32
 -53 1490 -53 1490 -15 1508 c 128,-1,33
 23 1526 23 1526 70 1538 c 128,-1,34
 117 1550 117 1550 168 1550 c 0,35,36
 259 1550 259 1550 321 1517.5 c 128,-1,37
 383 1485 383 1485 412 1419 c 1,38,-1
 418 1416 l 1,39,40
 423 1404 423 1404 435.5 1366.5 c 128,-1,41
 448 1329 448 1329 464.5 1273.5 c 128,-1,42
 481 1218 481 1218 500.5 1149 c 128,-1,43
 520 1080 520 1080 540 1006 c 128,-1,44
 560 932 560 932 578.5 856.5 c 128,-1,45
 597 781 597 781 613 713 c 1,46,-1
 616 712 l 1,47,48
 646 770 646 770 678.5 839.5 c 128,-1,49
 711 909 711 909 740 978 c 128,-1,50
 769 1047 769 1047 791.5 1109.5 c 128,-1,51
 814 1172 814 1172 825 1216 c 1,52,-1
 701 1237 l 1,53,54
 695 1263 695 1263 690.5 1284.5 c 128,-1,55
 686 1306 686 1306 683 1326.5 c 128,-1,56
 680 1347 680 1347 678.5 1366.5 c 128,-1,57
 677 1386 677 1386 677 1409 c 2,58,-1
 677 1432 l 1,59,60
 692 1450 692 1450 723 1471 c 128,-1,61
 754 1492 754 1492 796 1510 c 128,-1,62
 838 1528 838 1528 888 1540 c 128,-1,63
 938 1552 938 1552 989 1552 c 0,64,65
 1181 1552 1181 1552 1224 1404 c 0,66,67
 1230 1384 1230 1384 1232.5 1366 c 128,-1,68
 1235 1348 1235 1348 1235 1331 c 0,69,70
 1235 1280 1235 1280 1214.5 1221 c 128,-1,71
 1194 1162 1194 1162 1160.5 1099.5 c 128,-1,72
 1127 1037 1127 1037 1083 973.5 c 128,-1,73
 1039 910 1039 910 992 851 c 128,-1,74
 945 792 945 792 898 740 c 128,-1,75
 851 688 851 688 811 649 c 1,76,-1
 1036 658 l 1,77,78
 1044 646 1044 646 1047.5 627.5 c 128,-1,79
 1051 609 1051 609 1051 586 c 0,80,81
 1051 560 1051 560 1047 532.5 c 128,-1,82
 1043 505 1043 505 1036 479 c 128,-1,83
 1029 453 1029 453 1019.5 431.5 c 128,-1,84
 1010 410 1010 410 999 398 c 1,85,-1
 741 403 l 1,86,87
 739 370 739 370 737.5 335.5 c 128,-1,88
 736 301 736 301 734 266 c 1,89,-1
 986 277 l 1,90,91
 994 267 994 267 998 248.5 c 128,-1,92
 1002 230 1002 230 1002 206 c 0,93,94
 1002 180 1002 180 998 150.5 c 128,-1,95
 994 121 994 121 986.5 94.5 c 128,-1,96
 979 68 979 68 969.5 47 c 128,-1,97
 960 26 960 26 949 17 c 1,98,-1
 727 22 l 1,99,-1
 727 -34 l 2,100,101
 727 -66 727 -66 727.5 -97.5 c 128,-1,102
 728 -129 728 -129 729 -161 c 1,103,104
 710 -192 710 -192 674.5 -206 c 128,-1,105
 639 -220 639 -220 597 -220 c 0,106,107
 564 -220 564 -220 530 -211.5 c 128,-1,108
 496 -203 496 -203 466.5 -186.5 c 128,-1,109
 437 -170 437 -170 416 -147 c 128,-1,110
 395 -124 395 -124 387 -94 c 1,111,112
 387 -66 387 -66 387.5 -35 c 128,-1,113
 388 -4 388 -4 389 30 c 1,114,-1
 173 35 l 1,115,-1
 173 35 l 1,0,1
EndSplineSet
EndChar

StartChar: at
Encoding: 64 64 108
Width: 1708
Flags: W
LayerCount: 2
Fore
SplineSet
130 424 m 0,0,1
 130 543 130 543 149.5 656 c 128,-1,2
 169 769 169 769 209 869.5 c 128,-1,3
 249 970 249 970 310.5 1053.5 c 128,-1,4
 372 1137 372 1137 456.5 1197.5 c 128,-1,5
 541 1258 541 1258 648.5 1292 c 128,-1,6
 756 1326 756 1326 888 1326 c 0,7,8
 1072 1326 1072 1326 1198.5 1288.5 c 128,-1,9
 1325 1251 1325 1251 1402.5 1184 c 128,-1,10
 1480 1117 1480 1117 1514 1024 c 128,-1,11
 1548 931 1548 931 1548 820 c 0,12,13
 1548 764 1548 764 1540 695.5 c 128,-1,14
 1532 627 1532 627 1517 559 c 128,-1,15
 1502 491 1502 491 1481.5 431 c 128,-1,16
 1461 371 1461 371 1436 334 c 1,17,18
 1404 320 1404 320 1360.5 312 c 128,-1,19
 1317 304 1317 304 1275 304 c 0,20,21
 1222 304 1222 304 1186 310 c 1,22,23
 1204 376 1204 376 1220 459 c 128,-1,24
 1236 542 1236 542 1250 630 c 128,-1,25
 1264 718 1264 718 1275.5 806 c 128,-1,26
 1287 894 1287 894 1295 970 c 1,27,28
 1265 997 1265 997 1222.5 1011 c 128,-1,29
 1180 1025 1180 1025 1133 1025 c 0,30,31
 1104 1025 1104 1025 1076 1019.5 c 128,-1,32
 1048 1014 1048 1014 1022 1003 c 1,33,-1
 1016 829 l 1,34,35
 996 882 996 882 966.5 921 c 128,-1,36
 937 960 937 960 903.5 985.5 c 128,-1,37
 870 1011 870 1011 836 1023.5 c 128,-1,38
 802 1036 802 1036 773 1036 c 0,39,40
 703 1036 703 1036 648 1009 c 128,-1,41
 593 982 593 982 551 936.5 c 128,-1,42
 509 891 509 891 479.5 831 c 128,-1,43
 450 771 450 771 431.5 705.5 c 128,-1,44
 413 640 413 640 404.5 572.5 c 128,-1,45
 396 505 396 505 396 445 c 0,46,47
 396 373 396 373 407.5 304 c 128,-1,48
 419 235 419 235 447.5 180.5 c 128,-1,49
 476 126 476 126 524.5 93 c 128,-1,50
 573 60 573 60 647 60 c 0,51,52
 697 60 697 60 740 84 c 128,-1,53
 783 108 783 108 820.5 151.5 c 128,-1,54
 858 195 858 195 890.5 255 c 128,-1,55
 923 315 923 315 950 388 c 1,56,-1
 977 381 l 1,57,58
 973 371 973 371 967 345 c 128,-1,59
 961 319 961 319 954.5 290.5 c 128,-1,60
 948 262 948 262 943.5 236.5 c 128,-1,61
 939 211 939 211 938 203 c 0,62,63
 937 198 937 198 937 194 c 128,-1,64
 937 190 937 190 937 186 c 0,65,66
 937 132 937 132 968.5 96 c 128,-1,67
 1000 60 1000 60 1065 60 c 0,68,69
 1105 60 1105 60 1164.5 65 c 128,-1,70
 1224 70 1224 70 1294.5 88 c 128,-1,71
 1365 106 1365 106 1444.5 140 c 128,-1,72
 1524 174 1524 174 1605 233 c 1,73,74
 1631 184 1631 184 1643.5 137 c 128,-1,75
 1656 90 1656 90 1656 42 c 0,76,77
 1656 1 1656 1 1645 -45 c 1,78,79
 1610 -79 1610 -79 1539.5 -113.5 c 128,-1,80
 1469 -148 1469 -148 1379 -175.5 c 128,-1,81
 1289 -203 1289 -203 1186.5 -221.5 c 128,-1,82
 1084 -240 1084 -240 985 -243 c 0,83,84
 972 -244 972 -244 959.5 -244 c 128,-1,85
 947 -244 947 -244 934 -244 c 0,86,87
 745 -244 745 -244 595.5 -204 c 128,-1,88
 446 -164 446 -164 342.5 -81.5 c 128,-1,89
 239 1 239 1 184.5 127 c 128,-1,90
 130 253 130 253 130 424 c 0,0,1
744 309 m 0,91,92
 738 309 738 309 734 328.5 c 128,-1,93
 730 348 730 348 727.5 374 c 128,-1,94
 725 400 725 400 723.5 427 c 128,-1,95
 722 454 722 454 722 468 c 0,96,97
 722 509 722 509 726 553.5 c 128,-1,98
 730 598 730 598 737.5 636.5 c 128,-1,99
 745 675 745 675 755 704.5 c 128,-1,100
 765 734 765 734 778 745 c 1,101,102
 786 747 786 747 797.5 748.5 c 128,-1,103
 809 750 809 750 824 750 c 0,104,105
 850 750 850 750 886.5 741.5 c 128,-1,106
 923 733 923 733 968 707 c 1,107,108
 969 702 969 702 969 695.5 c 128,-1,109
 969 689 969 689 969 680 c 0,110,111
 969 654 969 654 966.5 619.5 c 128,-1,112
 964 585 964 585 957 558 c 1,113,114
 936 517 936 517 903.5 473.5 c 128,-1,115
 871 430 871 430 839 393 c 128,-1,116
 807 356 807 356 780.5 332.5 c 128,-1,117
 754 309 754 309 744 309 c 0,91,92
EndSplineSet
EndChar

StartChar: asterisk
Encoding: 42 42 109
Width: 1153
Flags: W
LayerCount: 2
Fore
SplineSet
407 568 m 1,0,1
 355 565 355 565 309.5 580 c 128,-1,2
 264 595 264 595 227.5 621.5 c 128,-1,3
 191 648 191 648 165.5 682 c 128,-1,4
 140 716 140 716 127 751 c 1,5,6
 197 837 197 837 278.5 904 c 128,-1,7
 360 971 360 971 451 1022 c 1,8,-1
 449 1034 l 1,9,10
 440 1034 440 1034 423 1033 c 128,-1,11
 406 1032 406 1032 397 1032 c 0,12,13
 309 1032 309 1032 223.5 1042.5 c 128,-1,14
 138 1053 138 1053 60 1078 c 1,15,16
 67 1118 67 1118 78 1164 c 128,-1,17
 89 1210 89 1210 107 1255 c 128,-1,18
 125 1300 125 1300 150.5 1342.5 c 128,-1,19
 176 1385 176 1385 211 1418 c 1,20,21
 296 1368 296 1368 369 1306 c 128,-1,22
 442 1244 442 1244 500 1164 c 1,23,-1
 514 1172 l 1,24,25
 495 1202 495 1202 479.5 1245 c 128,-1,26
 464 1288 464 1288 453 1336.5 c 128,-1,27
 442 1385 442 1385 436 1434 c 128,-1,28
 430 1483 430 1483 430 1524 c 0,29,30
 430 1544 430 1544 431.5 1562 c 128,-1,31
 433 1580 433 1580 437 1594 c 1,32,33
 479 1632 479 1632 535 1654.5 c 128,-1,34
 591 1677 591 1677 653 1677 c 0,35,36
 670 1677 670 1677 691.5 1675 c 128,-1,37
 713 1673 713 1673 735.5 1669 c 128,-1,38
 758 1665 758 1665 779.5 1659 c 128,-1,39
 801 1653 801 1653 818 1644 c 1,40,-1
 673 1164 l 1,41,-1
 686 1153 l 1,42,43
 727 1186 727 1186 766.5 1215.5 c 128,-1,44
 806 1245 806 1245 846.5 1273.5 c 128,-1,45
 887 1302 887 1302 929.5 1330.5 c 128,-1,46
 972 1359 972 1359 1019 1389 c 1,47,48
 1060 1351 1060 1351 1080.5 1290 c 128,-1,49
 1101 1229 1101 1229 1101 1161 c 0,50,51
 1101 1095 1101 1095 1081 1033 c 1,52,53
 1042 1024 1042 1024 999.5 1020.5 c 128,-1,54
 957 1017 957 1017 922 1017 c 0,55,56
 864 1017 864 1017 803 1023.5 c 128,-1,57
 742 1030 742 1030 697 1037 c 1,58,-1
 692 1026 l 1,59,60
 778 977 778 977 858 912.5 c 128,-1,61
 938 848 938 848 1016 769 c 1,62,63
 967 681 967 681 888.5 632 c 128,-1,64
 810 583 810 583 715 585 c 1,65,66
 694 620 694 620 671.5 663.5 c 128,-1,67
 649 707 649 707 627.5 755 c 128,-1,68
 606 803 606 803 586 854 c 128,-1,69
 566 905 566 905 550 955 c 1,70,-1
 536 957 l 1,71,72
 516 852 516 852 484.5 755.5 c 128,-1,73
 453 659 453 659 407 568 c 1,0,1
EndSplineSet
EndChar

StartChar: macron
Encoding: 175 175 110
Width: 808
Flags: W
LayerCount: 2
Fore
SplineSet
53 1297 m 1,0,1
 50 1322 50 1322 50 1350 c 0,2,3
 50 1410 50 1410 63 1467 c 128,-1,4
 76 1524 76 1524 99 1564 c 1,5,-1
 750 1578 l 1,6,7
 758 1541 758 1541 758 1501 c 0,8,9
 758 1450 758 1450 746 1397 c 128,-1,10
 734 1344 734 1344 710 1297 c 1,11,12
 679 1294 679 1294 602.5 1292 c 128,-1,13
 526 1290 526 1290 417 1290 c 0,14,15
 337 1290 337 1290 245 1291.5 c 128,-1,16
 153 1293 153 1293 53 1297 c 1,0,1
EndSplineSet
EndChar

StartChar: oslash
Encoding: 248 248 111
Width: 1190
Flags: W
LayerCount: 2
Fore
SplineSet
182 156 m 1,0,1
 121 238 121 238 94.5 347 c 128,-1,2
 68 456 68 456 67 581 c 0,3,4
 66 716 66 716 97 827.5 c 128,-1,5
 128 939 128 939 194 1018.5 c 128,-1,6
 260 1098 260 1098 362 1141.5 c 128,-1,7
 464 1185 464 1185 604 1185 c 0,8,9
 642 1185 642 1185 675.5 1182 c 128,-1,10
 709 1179 709 1179 741 1174 c 1,11,-1
 857 1441 l 1,12,13
 891 1444 891 1444 936 1432 c 128,-1,14
 981 1420 981 1420 1026 1396 c 128,-1,15
 1071 1372 1071 1372 1110 1337 c 128,-1,16
 1149 1302 1149 1302 1170 1259 c 1,17,18
 1145 1213 1145 1213 1102.5 1154 c 128,-1,19
 1060 1095 1060 1095 1008 1030 c 1,20,21
 1073 949 1073 949 1098 835 c 128,-1,22
 1123 721 1123 721 1123 581 c 0,23,24
 1123 455 1123 455 1090 345 c 128,-1,25
 1057 235 1057 235 989.5 154 c 128,-1,26
 922 73 922 73 820.5 26.5 c 128,-1,27
 719 -20 719 -20 583 -20 c 0,28,29
 535 -20 535 -20 493.5 -14.5 c 128,-1,30
 452 -9 452 -9 415 1 c 1,31,-1
 301 -157 l 1,32,33
 276 -171 276 -171 244 -171 c 0,34,35
 220 -171 220 -171 194.5 -163 c 128,-1,36
 169 -155 169 -155 147 -140.5 c 128,-1,37
 125 -126 125 -126 108.5 -104.5 c 128,-1,38
 92 -83 92 -83 85 -56 c 1,39,-1
 182 156 l 1,0,1
498 299 m 1,40,41
 504 292 504 292 518 287 c 128,-1,42
 532 282 532 282 549.5 279 c 128,-1,43
 567 276 567 276 586.5 274.5 c 128,-1,44
 606 273 606 273 624 273 c 0,45,46
 647 273 647 273 664 275 c 128,-1,47
 681 277 681 277 686 281 c 1,48,49
 710 323 710 323 721.5 397 c 128,-1,50
 733 471 733 471 733 552 c 0,51,52
 733 628 733 628 723.5 697 c 128,-1,53
 714 766 714 766 695 806 c 1,54,55
 684 819 684 819 653.5 825 c 128,-1,56
 623 831 623 831 590 832 c 0,57,58
 564 833 564 833 541.5 830 c 128,-1,59
 519 827 519 827 509 821 c 1,60,61
 482 774 482 774 470.5 712 c 128,-1,62
 459 650 459 650 459 582 c 0,63,64
 459 505 459 505 470.5 430.5 c 128,-1,65
 482 356 482 356 498 299 c 1,40,41
EndSplineSet
EndChar

StartChar: caron
Encoding: 711 711 112
Width: 881
Flags: W
LayerCount: 2
Fore
SplineSet
50 1519 m 1,0,1
 51 1538 51 1538 63.5 1563 c 128,-1,2
 76 1588 76 1588 96 1614 c 128,-1,3
 116 1640 116 1640 141.5 1665 c 128,-1,4
 167 1690 167 1690 194.5 1709 c 128,-1,5
 222 1728 222 1728 249.5 1739 c 128,-1,6
 277 1750 277 1750 301 1748 c 1,7,-1
 453 1541 l 1,8,9
 486 1581 486 1581 511.5 1612 c 128,-1,10
 537 1643 537 1643 562 1668.5 c 128,-1,11
 587 1694 587 1694 615 1717.5 c 128,-1,12
 643 1741 643 1741 681 1767 c 1,13,14
 700 1758 700 1758 722.5 1742.5 c 128,-1,15
 745 1727 745 1727 766 1708 c 128,-1,16
 787 1689 787 1689 804.5 1668 c 128,-1,17
 822 1647 822 1647 831 1629 c 1,18,-1
 545 1300 l 1,19,20
 528 1297 528 1297 502.5 1295.5 c 128,-1,21
 477 1294 477 1294 448 1294 c 0,22,23
 428 1294 428 1294 407 1294.5 c 128,-1,24
 386 1295 386 1295 367 1296.5 c 128,-1,25
 348 1298 348 1298 331.5 1300 c 128,-1,26
 315 1302 315 1302 303 1305 c 1,27,-1
 50 1519 l 1,0,1
EndSplineSet
EndChar

